<svg xmlns="http://www.w3.org/2000/svg" viewBox="0 0 895.25 970.03"><defs><style>.a{fill:none;stroke:#000;stroke-linecap:round;stroke-linejoin:round;stroke-width:7px;}</style></defs><title>t-shirt_u-neck</title><path class="a" d="M488.2,97.13c-109.14.75-102.32-81.86-102.32-81.86S361.88,32,335.61,40c0,0-59.62,17.69-89.43,26.78s-78.32,24.76-91.45,48.51S44.07,354.81,44.07,354.81s60.26,43.2,75.79,49.64,47.75,20.09,58.74,21.22,28,4.93,29.94,2.28S232,392.33,232,393.84s8,150.44,8,150.44-1.14,263-2.65,274.36-6.82,135.67-6.82,135.67,28.29,14.9,84.88,18.44,167.24,5.56,172.8,5.56" transform="translate(-40.57 -11.77)"/><path class="a" d="M385.88,15.27s63.41,9.1,102.32,8.09" transform="translate(-40.57 -11.77)"/><path class="a" d="M488.2,97.13c109.14.75,102.32-81.86,102.32-81.86S614.52,32,640.79,40c0,0,59.62,17.69,89.43,26.78s78.32,24.76,91.45,48.51S932.33,354.81,932.33,354.81s-60.26,43.2-75.79,49.64-47.75,20.09-58.74,21.22-28,4.93-29.94,2.28-23.49-35.62-23.49-34.11-8,150.44-8,150.44,1.14,263,2.65,274.36,6.82,135.67,6.82,135.67-28.29,14.9-84.88,18.44-167.24,5.56-172.8,5.56" transform="translate(-40.57 -11.77)"/><path class="a" d="M590.52,15.27s-63.41,9.1-102.32,8.09" transform="translate(-40.57 -11.77)"/></svg>