<svg xmlns="http://www.w3.org/2000/svg" viewBox="0 0 575.21 985.69"><defs><style>.a{fill:#a0a0a0;}.b{fill:#909090;}.c{fill:#8c8c8c;}.d{fill:#7a7a7a;}</style></defs><title>tshirt_under</title><path class="a" d="M6.39,985.37c-5.59.89-6.7.15-6.32-5.4.8-11.86,2.2-23.67,2.78-35.54.53-10.91.11-21.86.48-32.78.41-12.11,1.37-24.2,1.83-36.31.28-7.43-.06-14.88.1-22.31.21-9.43.53-18.87,1-28.29.9-17.68,2-35.35,2.93-53,.5-9.89.67-19.8,1.06-29.7.9-22.33,1.87-44.66,2.78-67,.14-3.45.17-6.91.21-10.36.35-26.28.41-52.57,1.1-78.85.53-19.85,1.9-39.69,2.83-59.53.44-9.28.74-18.56,1-27.84.38-11.63.78-23.26,1-34.89.15-7.74-.42-15.52.1-23.22,4.25-63.95.68-128,2.07-191.95.28-2.28.68-4.55.84-6.84.54-7.94.79-15.91,1.53-23.82a113.72,113.72,0,0,0-2.37-37.06c0-39.3-.13-78.61,0-117.92a6.45,6.45,0,0,1,3-4.87C34.92,53.2,45.7,49,56.3,44.48c20.33-8.74,40.58-17.66,60.89-26.43,10-4.31,20-8.46,30.06-12.68-1.49,3.52-4.18,7.05-4.15,10.55S146,22.75,147.94,27c-3.55-.84-6.43-1.45-9.27-2.21-4.51-1.2-9-2.53-13.48-3.75-2.69-.72-4.68-.17-4.85,3.11-.36,7.14-1,14.28-.88,21.42a9.54,9.54,0,0,0,3.41,6.5c6.86,5.27,14.22,9.88,21.19,15,10.15,7.5,20.63,14.68,30,23.06,8.28,7.39,15.18,16.3,22.84,24.39,3.07,3.25,6.13,6.82,9.9,9.06,16.32,9.69,32.87,19,49.41,28.3a18,18,0,0,0,7.48,2.47c10.62.59,21.27.76,31.91,1.16,5.31.2,10.62.8,15.93.79,4.95,0,10.5.78,14.73-1.13,18.05-8.18,35.78-17.08,53.43-26.09,2.8-1.43,4.62-4.77,6.9-7.23l-1.28-1.4c-2.3.85-4.68,1.55-6.89,2.59-26.08,12.2-53.48,20.38-81.38,27.12a13.63,13.63,0,0,1-11.63-2.1c-16.79-10.82-33.88-21.19-50.68-32q-24.36-15.66-48.35-31.91c-6.72-4.53-6.24-14.27,1.27-16.57,10.56-3.23,21.67-4.65,32.49-7.07,11-2.45,21.63-1.08,32.52,1.39,15.81,3.59,31.55,7.94,48.25,5.76,12-1.57,24.2-1.59,36.32-2.32a47.14,47.14,0,0,0,20.81-6.13c7.25-4.1,14.88-7.5,22.31-11.27,3.51-1.78,5.08-.64,4.85,3.12-.17,2.65-.94,5.3-.84,7.92.18,4.56-2.13,6.05-6.24,6.6-7.1,1-14.15,2.22-21.19,3.5-21,3.83-41.91,7.81-63.43,6.47-10.95-.67-21.95-.66-32.92-1.07-5.72-.21-9.87,2.73-14.73,6.59,3,.57,5.08,1.14,7.19,1.32q19.13,1.59,38.27,3c5.63.42,11.34,1.31,16.91.79,10.59-1,21.1-2.85,31.64-4.33q14.44-2,28.89-4c-6,5.62-12.62,10-19,14.69a19.55,19.55,0,0,1-13.52,4c-12.11-.77-24.3-2.5-36.33-1.75-18.55,1.15-37,4-55.47,6.3-2.53.32-4.88,1.93-8.2,3.31a32.31,32.31,0,0,0,3,1.56c18,6.12,35.93,12.32,54,18.23a12.84,12.84,0,0,0,7.22-.33q27.51-8.3,54.9-17a16.28,16.28,0,0,0,6.09-3.21q29.32-27,58.41-54.32c2.9-2.72,5.3-6,8-8.88s5.61-1.37,8.19.14c3,1.79,1.08,4.06,0,6-2.84,5.28-5.77,10.51-8.69,15.74-2.57,4.59-2,11.5,1.72,15.28.78.81,3,1.32,3.83.8,4.6-2.88,8.15-.72,11.92,1.74,5.23,3.42,10.62,6.58,16.88,10.43,0-7.59.11-14-.11-20.33,0-1.08-1.37-2.24-2.32-3.13-3.17-2.94-6.39-5.84-9.69-8.63-5.8-4.89-6.1-5-1.67-11.45s6.26-12.77,4.61-20.62C451.09,19.38,451,12,450.24,4.69c7.48,3.84,14.84,7.93,22.46,11.45,6.87,3.17,14.05,5.64,21.05,8.54,5.86,2.44,11.73,4.9,17.46,7.63,10.13,4.83,20.15,9.63,31.26,12.27,6.6,1.58,12.6,5.84,18.73,9.14,1,.56,1.69,2.34,1.94,3.66a29.5,29.5,0,0,1,.12,5.49q0,176.73,0,353.48c0,24.42-.13,48.84,0,73.26.17,24.11.59,48.21,1,72.32.38,23.07.91,46.13,1.29,69.2.3,18,.29,36.07.78,54.1.29,10.77,1.44,21.51,1.9,32.28.59,13.74.84,27.48,1.28,41.22.35,10.92.83,21.84,1.13,32.75.33,11.6.51,23.2.78,34.8.25,10.66.6,21.31.79,32s.13,21,.36,31.57c.24,11.06.7,22.12,1,33.18q.61,19.95,1.18,39.91c.14,5,.11,9.92.38,14.87.18,3.14-.93,4.71-4.16,4.78-13.45.26-26.9.7-40.35.83q-26.74.25-53.48.09c-11.81-.06-23.62-.57-35.43-.68q-25.68-.25-51.37-.2c-14.94,0-29.88.25-44.82.3-17.83,0-35.67-.13-53.5,0-33.43.24-66.86.73-100.29.93-18.29.11-36.58-.29-54.87-.25-9.26,0-18.52.51-27.78.79-6.58-2.31-13.13-4.7-19.77-6.86a7,7,0,0,0-4.32.21c-5.6,2.09-11.12,4.41-16.66,6.65l-24,.19C31.63,981.75,18.9,978.57,6.39,985.37Z"/><path class="b" d="M450.24,4.69c.73,7.28.85,14.69,2.34,21.8,1.65,7.85-.21,14.25-4.61,20.62s-4.13,6.56,1.67,11.45c3.3,2.79,6.52,5.69,9.69,8.63.95.89,2.28,2,2.32,3.13.22,6.36.11,12.74.11,20.33-6.26-3.85-11.65-7-16.88-10.43-3.77-2.46-7.32-4.62-11.92-1.74-.83.52-3,0-3.83-.8-3.69-3.78-4.29-10.69-1.72-15.28,2.92-5.23,5.85-10.46,8.69-15.74,1-2,3-4.23,0-6-2.58-1.51-5.48-3-8.19-.14s-5.13,6.16-8,8.88q-29.09,27.27-58.41,54.32a16.28,16.28,0,0,1-6.09,3.21q-27.41,8.64-54.9,17a12.84,12.84,0,0,1-7.22.33c-18.05-5.91-36-12.11-54-18.23a32.31,32.31,0,0,1-3-1.56c3.32-1.38,5.67-3,8.2-3.31C263,98.78,281.41,96,300,94.81c12-.75,24.22,1,36.33,1.75a19.55,19.55,0,0,0,13.52-4c6.34-4.71,12.94-9.07,19-14.69q-14.44,2-28.89,4c-10.54,1.48-21.05,3.34-31.64,4.33-5.57.52-11.28-.37-16.91-.79q-19.14-1.41-38.27-3c-2.11-.18-4.19-.75-7.19-1.32,4.86-3.86,9-6.8,14.73-6.59,11,.41,22,.4,32.92,1.07C315,76.92,336,72.94,357,69.11c7-1.28,14.09-2.55,21.19-3.5,4.11-.55,6.42-2,6.24-6.6-.1-2.62.67-5.27.84-7.92.23-3.76-1.34-4.9-4.85-3.12-7.43,3.77-15.06,7.17-22.31,11.27a47.14,47.14,0,0,1-20.81,6.13c-12.12.73-24.32.75-36.32,2.32-16.7,2.18-32.44-2.17-48.25-5.76-10.89-2.47-21.52-3.84-32.52-1.39-10.82,2.42-21.93,3.84-32.49,7.07-7.51,2.3-8,12-1.27,16.57q24,16.2,48.35,31.91c16.8,10.81,33.89,21.18,50.68,32a13.63,13.63,0,0,0,11.63,2.1c27.9-6.74,55.3-14.92,81.38-27.12,2.21-1,4.59-1.74,6.89-2.59l1.28,1.4c-2.28,2.46-4.1,5.8-6.9,7.23-17.65,9-35.38,17.91-53.43,26.09-4.23,1.91-9.78,1.12-14.73,1.13-5.31,0-10.62-.59-15.93-.79-10.64-.4-21.29-.57-31.91-1.16a18,18,0,0,1-7.48-2.47c-16.54-9.3-33.09-18.61-49.41-28.3-3.77-2.24-6.83-5.81-9.9-9.06-7.66-8.09-14.56-17-22.84-24.39-9.39-8.38-19.87-15.56-30-23.06-7-5.15-14.33-9.76-21.19-15a9.54,9.54,0,0,1-3.41-6.5c-.13-7.14.52-14.28.88-21.42.17-3.28,2.16-3.83,4.85-3.11,4.5,1.22,9,2.55,13.48,3.75,2.84.76,5.72,1.37,9.27,2.21-2-4.25-4.8-7.65-4.84-11.08s2.66-7,4.15-10.55c1.66-1.06,3.34-2.08,5-3.18,4.42-3,9.15-2.88,13.62.08,13.88,9.17,27.53,18.79,43.8,23.54,28.7,8.38,57.72,15.33,87.73,16.63,11.25.49,22.59-.26,33.86-.93,12-.71,24.24-.93,36-3.28,13.32-2.68,26.4-7,39.21-11.57,6.73-2.42,13-6.56,18.88-10.74,5.73-4.06,10.72-9.16,16.3-14Z"/><path class="c" d="M68.39,984.37c5.54-2.24,11.06-4.56,16.66-6.65a7,7,0,0,1,4.32-.21c6.64,2.16,13.19,4.55,19.77,6.86Z"/><path class="d" d="M21.42,180.66a113.72,113.72,0,0,1,2.37,37.06c-.74,7.91-1,15.88-1.53,23.82-.16,2.29-.56,4.56-.84,6.84Z"/><path class="c" d="M6.39,985.37c12.51-6.8,25.24-3.62,38-.81-4,.31-8,.83-12,.88C23.7,985.54,15,985.4,6.39,985.37Z"/></svg>