<svg xmlns="http://www.w3.org/2000/svg" viewBox="0 0 1000 1000">
    <defs>
        <style>.b{fill:#999999;}.c{fill:#999999;}.d{fill:#888888;}.e{fill:#888888;}.f{fill:#888888;}.g{fill:#888888;}.h{fill:#888888;}.i{fill:#888888;}.j{fill:#888888;}</style>
    </defs>
    <title>tshirt</title>
    <path class="b" d="M783.12,398.07c-6.77,2.27-7.68,3.63-7.72,12.14-.15,30.82-.41,61.64-.33,92.46.07,22.77.58,45.55,1,68.32s.93,45.8,1.31,68.7c.3,18,.28,36.07.76,54.1.29,10.77,1.45,21.51,1.91,32.28.58,13.74.83,27.48,1.27,41.22.35,10.92.86,21.83,1.15,32.75.32,11.77.44,23.53.71,35.3.24,10.32.63,20.65.82,31,.2,10.69.14,21.38.37,32.07.24,11.06.72,22.11,1.07,33.17q.61,20,1.16,39.92c.14,4.79,0,9.6.37,14.37.3,3.7-1.06,5.23-4.68,5.31-9.3.2-18.6.69-27.91.75q-32.72.21-65.43.11c-11.48,0-22.95-.45-34.44-.56q-26.18-.27-52.36-.33c-15.1,0-30.21.17-45.31.21-17.67,0-35.33-.06-53,.08-33.43.26-66.86.74-100.29.94-18.29.11-36.58-.29-54.87-.25-9.27,0-18.52.51-27.78.79-6.59-2.31-13.14-4.7-19.77-6.86a7.06,7.06,0,0,0-4.33.21c-5.6,2.09-11.12,4.41-16.66,6.65l-24,.19c-12.72-2.81-25.45-6-38,.81-5.58.9-6.7.15-6.32-5.4.8-11.86,2.21-23.68,2.78-35.54.53-11.08.11-22.21.48-33.3.4-11.94,1.37-23.87,1.83-35.81.28-7.26-.06-14.54.1-21.81.23-10.11.61-20.2,1-30.3.63-15.22,1.33-30.43,2-45.64.64-14,1.38-28.07,2-42.1q1.1-26.32,2-52.64.65-19.35,1-38.72c.4-21.62.54-43.25,1.08-64.87.4-15.72,1.3-31.43,2-47.15,1-24.21,2.48-48.42,2.84-72.64.29-19-.83-38-1.3-57.07-.1-4.28-.78-8.7,0-12.82,1-5.21-1.25-9-3.59-13,.33-17.29.13-34.62,1.13-51.87,1.13-19.56,3.49-39.05,5-58.59,1.46-18.38,3.79-36.8,3.5-55.17-.27-17.69-3.34-35.35-5.29-53-1.28-11.55-2.57-23-10.09-32.83-4.92-6.45-8.55-13.88-12.88-20.78s-9-14-13.48-20.93c6.42-4.65,12.47-10,19.33-13.81,9.34-5.25,19.2-9.66,29-14C255.51,58.24,269,53,282.31,47.17c15.74-6.85,31.34-14,47.07-20.92C339.18,22,349.1,17.94,359,13.8c-1.5,3.51-4.19,7.05-4.15,10.55s2.85,6.83,4.83,11.08c-3.55-.84-6.43-1.45-9.27-2.21-4.5-1.2-9-2.53-13.48-3.75-2.68-.72-4.68-.18-4.85,3.11-.36,7.14-1,14.28-.88,21.42a9.58,9.58,0,0,0,3.41,6.51c6.87,5.26,14.23,9.88,21.19,15,10.16,7.5,20.64,14.69,30,23.07C394.08,106,401,114.89,408.64,123c3.07,3.25,6.13,6.82,9.9,9.06,16.32,9.69,32.87,19,49.42,28.3a18,18,0,0,0,7.47,2.47c10.63.6,21.28.76,31.92,1.16,5.31.2,10.62.8,15.93.79,5,0,10.51.78,14.73-1.13,18-8.17,35.78-17.08,53.44-26.09,2.8-1.43,4.62-4.77,6.9-7.23l-1.28-1.4c-2.3.85-4.68,1.55-6.9,2.59-26.07,12.2-53.47,20.38-81.38,27.12a13.63,13.63,0,0,1-11.63-2.1c-16.8-10.81-33.88-21.19-50.69-32q-24.36-15.66-48.35-31.91c-6.72-4.53-6.24-14.27,1.27-16.57C410,72.81,421.06,71.39,431.88,69c11-2.46,21.63-1.09,32.53,1.39C480.22,74,496,78.31,512.66,76.13c12-1.58,24.21-1.6,36.32-2.33a47.18,47.18,0,0,0,20.82-6.13c7.25-4.09,14.88-7.5,22.31-11.27,3.51-1.78,5.08-.64,4.84,3.12-.16,2.65-.94,5.3-.83,7.93.18,4.56-2.13,6-6.25,6.59-7.09.95-14.15,2.22-21.19,3.51-21,3.82-41.91,7.8-63.43,6.47-11-.68-21.95-.67-32.92-1.08-5.73-.21-9.87,2.74-14.74,6.6,3,.56,5.08,1.14,7.19,1.32q19.14,1.59,38.28,3c5.63.41,11.34,1.31,16.91.79,10.59-1,21.1-2.85,31.65-4.33q14.45-2,28.89-4c-6,5.62-12.63,10-19,14.69A19.57,19.57,0,0,1,548,105c-12.11-.77-24.31-2.5-36.34-1.75-18.55,1.15-37,4-55.48,6.3-2.52.32-4.88,1.93-8.2,3.31a28.41,28.41,0,0,0,3,1.55c18,6.13,35.93,12.33,54,18.24a12.84,12.84,0,0,0,7.22-.33q27.51-8.29,54.9-17a16.34,16.34,0,0,0,6.1-3.22q29.33-27,58.42-54.32c2.9-2.72,5.29-6,8-8.88s5.62-1.37,8.19.14c3.05,1.79,1.08,4.07,0,6-2.84,5.28-5.77,10.51-8.69,15.74-2.57,4.59-2,11.51,1.72,15.29.78.8,3,1.31,3.83.79,4.61-2.87,8.16-.72,11.92,1.75,5.23,3.41,10.63,6.58,16.88,10.43,0-7.6.11-14-.11-20.34,0-1.07-1.36-2.24-2.32-3.13-3.17-2.94-6.38-5.84-9.69-8.62-5.79-4.9-6.1-5-1.67-11.45s6.26-12.78,4.62-20.62c-1.49-7.12-1.62-14.53-2.34-21.81,7.47,3.84,14.83,7.93,22.46,11.45,6.86,3.17,14.06,5.6,21,8.55,5.41,2.29,10.62,5.07,16,7.3,11,4.51,21.66,9.38,33.1,12.89,12.37,3.81,23.59,11.23,35.65,16.25,10.52,4.38,20.2,10,28.2,17.87,6.9,6.81,12.65,14.78,18.9,22.25,2.41,2.88,4.77,5.8,7.16,8.69,10.11,12.2,20.15,24.44,30.35,36.56,7.65,9.09,15.49,18,23.25,27a61.65,61.65,0,0,1-6.2-3.08c-10.62-6.88-21.15-13.9-31.77-20.78-6.18-4-17.66-1.28-19.87,4.65-5.22,14-10.75,28-15.47,42.15-2.89,8.73-4.49,17.88-6.68,26.84l1.13,1.19c16-8,33.22-11.14,50.4-14.38l.5,1.22-27.64,22.34.68,1.18c5.22-1.94,10.35-4.24,15.7-5.65a15.28,15.28,0,0,1,8.86.41c5.42,2.09,10.52,5,15.7,7.67,3,1.53,5.14,1.13,7.32-1.65a152.53,152.53,0,0,1,12.07-13.93c1.39-1.4,4.18-1.94,6.31-1.92,3.28,0,6.55.91,9.88,1.44-3.08,4.73-6.57,10.19-10.18,15.56-1.81,2.69-1.21,4.26,1.82,5.13s6.08,1.75,9.09,2.72c2.76.9,4,0,4.26-2.9.59-6.79,1.05-13.61,2.19-20.32.65-3.76,2.55-7.31,3.88-11,5.87,6.66,11.63,13.41,17.62,20,7.72,8.45,15.62,16.74,23.44,25.09-6.38-1.9-12.82-3.63-19.13-5.75-4.64-1.57-7.84-.77-10.39,3.73a125.11,125.11,0,0,1-9.12,13.72c-2.55,3.36-1.94,6,.61,8.85,3.45,3.83,7.05,7.55,10.17,11.64,2.34,3.05,4.43,2.72,7.21.92,6-3.9,12.08-7.7,18.18-11.44,1.57-1,3.35-1.59,6.27-2.94-.82,4-1.37,6.72-1.91,9.41a29.72,29.72,0,0,1-3,4.38c-8.53,8.58-17,17.22-25.79,25.53-6.88,6.51-14.18,12.58-21.29,18.85-3.77-9.83-3.77-9.7-14.2-9.87-9.12-.16-18.24-.71-27.36-1-3.68-.11-4.51-1.85-3.82-5.18,1.44-7,2.74-14,4-21.06.51-2.8.8-5.65,1.29-9.19-1.29.76-1.85.89-2.05,1.24-6.27,10.76-12.64,21.47-18.58,32.42-.81,1.5,0,4.57,1.08,6.26,3.12,4.89,6.72,9.48,10.2,14.14,2.22,3,4.56,5.88,7.34,9.44.88-2.26,1.37-3.54,2.17-5.61l12,14.6c-10.57,10.19-21.44,20.07-31.6,30.65-8.53,8.88-18.49,15.86-28,23.4a49.67,49.67,0,0,1-6.93,4.7,4.15,4.15,0,0,1-3.53-.12c-3.75-2.36-7.32-5-11-7.54-.8-1.44-1.48-3-2.41-4.31-6.87-10-13.84-20-20.64-30.07-1.26-1.87-2.72-4.19-2.69-6.28.23-18.79.09-37.63,1.45-56.35,1.15-15.9,5.23-31.6,6-47.5,1.29-25.08.93-50.25,1.27-75.38a54.27,54.27,0,0,1,.15-6q5.76-44.77,11.59-89.54c.38-3,.68-5.91,1-8.86a3.89,3.89,0,0,0-2,2.5c-6.83,22.81-13.75,45.59-20.4,68.46-3,10.38-6.9,20.79-7.92,31.43-2,21.16-3,42.47-3.27,63.73-.33,25.12.57,50.26.82,75.4.13,13.15.39,26.33-.11,39.47C776.57,383.42,778.94,390.9,783.12,398.07Z"/>
    <path class="c" d="M163.79,412c-14.62-13.08-29.19-26.22-43.88-39.22-6.41-5.68-13.2-10.95-19.56-16.69-3.73-3.37-6.94-7.31-10.39-11-2-2.24-3.91-4.52-5.95-6.7-3.35-3.59-4.28-7.19-2.44-12.2,4.23-11.56,7.56-23.45,11.64-35.07a20.2,20.2,0,0,1,5.33-7.46c6.41-6,13.41-11.38,17.53-19.54,1.65-3.28,1.47-4.81-1.83-6.64-9.31-5.17-18.45-10.65-27.59-16.13-1.32-.8-3.39-2.58-3.17-3.36,1.56-5.51,2.3-12.05,5.82-16,5.53-6.26,13-10.79,19.73-16a14,14,0,0,1,3.39-1.34c1.62,11.84,3.17,23.21,4.9,35.81,8.29-17.51,16.43-33.53,23.48-50,6.13-14.3,16.32-22,31.61-23.43a10.89,10.89,0,0,1,9.82,3.6c4.29,4.65,8.76,9.16,13.43,13.42A12.28,12.28,0,0,1,200,194.62c-1.1,18.6.51,36.8,6.85,54.56,3.41,9.53,7,19.45,7.7,29.39,1.74,23.86,2.67,47.85-.8,71.7-.68,4.73-1,9.68-2.66,14.07-2.72,7.14-6.52,13.85-9.68,20.82-3.91,8.63-7.62,17.34-11.42,26l-5.92,5.93Z"/>
    <path class="d" d="M662,13.12c.72,7.28.85,14.69,2.34,21.81,1.64,7.84-.22,14.25-4.62,20.62S655.59,62.1,661.38,67c3.31,2.78,6.52,5.68,9.69,8.62,1,.89,2.29,2.06,2.32,3.13.22,6.37.11,12.74.11,20.34-6.25-3.85-11.65-7-16.88-10.43-3.76-2.47-7.31-4.62-11.92-1.75-.83.52-3.05,0-3.83-.79-3.68-3.78-4.29-10.7-1.72-15.29,2.92-5.23,5.85-10.46,8.69-15.74,1-2,3-4.23,0-6-2.57-1.51-5.48-3-8.19-.14s-5.12,6.16-8,8.88q-29.1,27.27-58.42,54.32a16.34,16.34,0,0,1-6.1,3.22q-27.41,8.64-54.9,17a12.84,12.84,0,0,1-7.22.33c-18-5.91-36-12.11-54-18.24a28.41,28.41,0,0,1-3-1.55c3.32-1.38,5.68-3,8.2-3.31,18.47-2.34,36.93-5.15,55.48-6.3,12-.75,24.23,1,36.34,1.75a19.57,19.57,0,0,0,13.52-4c6.33-4.72,12.94-9.07,19-14.69q-14.44,2-28.89,4c-10.55,1.48-21.06,3.34-31.65,4.33-5.57.52-11.28-.38-16.91-.79q-19.14-1.42-38.28-3c-2.11-.18-4.18-.76-7.19-1.32,4.87-3.86,9-6.81,14.74-6.6,11,.41,22,.4,32.92,1.08,21.52,1.33,42.45-2.65,63.43-6.47,7-1.29,14.1-2.56,21.19-3.51,4.12-.55,6.43-2,6.25-6.59-.11-2.63.67-5.28.83-7.93.24-3.76-1.33-4.9-4.84-3.12-7.43,3.77-15.06,7.18-22.31,11.27A47.18,47.18,0,0,1,549,73.8c-12.11.73-24.32.75-36.32,2.33C496,78.31,480.22,74,464.41,70.37c-10.9-2.48-21.52-3.85-32.53-1.39-10.82,2.41-21.93,3.83-32.49,7.07-7.51,2.3-8,12-1.27,16.57q24,16.2,48.35,31.91c16.81,10.81,33.89,21.19,50.69,32a13.63,13.63,0,0,0,11.63,2.1c27.91-6.74,55.31-14.92,81.38-27.12,2.22-1,4.6-1.74,6.9-2.59l1.28,1.4c-2.28,2.46-4.1,5.8-6.9,7.23-17.66,9-35.39,17.92-53.44,26.09-4.22,1.91-9.78,1.13-14.73,1.13-5.31,0-10.62-.59-15.93-.79-10.64-.4-21.29-.56-31.92-1.16a18,18,0,0,1-7.47-2.47c-16.55-9.3-33.1-18.61-49.42-28.3-3.77-2.24-6.83-5.81-9.9-9.06-7.66-8.1-14.56-17-22.84-24.39-9.39-8.38-19.87-15.57-30-23.07-7-5.14-14.32-9.76-21.19-15A9.58,9.58,0,0,1,331.17,54c-.12-7.14.52-14.28.88-21.42.17-3.29,2.17-3.83,4.85-3.11,4.51,1.22,9,2.55,13.48,3.75,2.84.76,5.72,1.37,9.27,2.21-2-4.25-4.79-7.65-4.83-11.08s2.65-7,4.15-10.55c1.65-1.06,3.34-2.08,5-3.18,4.42-3,9.15-2.88,13.61.07,13.88,9.18,27.54,18.8,43.81,23.55,28.71,8.38,57.73,15.34,87.74,16.63,11.25.49,22.59-.26,33.87-.93,12-.7,24.23-.92,36-3.28a240.2,240.2,0,0,0,39.2-11.58c13.46-5.22,24.93-14,34.71-24.92Z"/>
    <path class="e" d="M190,411.17c3.8-8.67,7.51-17.38,11.42-26,3.16-7,7-13.68,9.68-20.82,1.67-4.39,2-9.34,2.66-14.07,3.47-23.85,2.54-47.84.8-71.7-.72-9.94-4.29-19.86-7.7-29.39-6.34-17.76-8-36-6.85-54.56a12.28,12.28,0,0,0-4.35-10.56c-4.67-4.26-9.14-8.77-13.43-13.42a10.89,10.89,0,0,0-9.82-3.6c-15.29,1.44-25.48,9.13-31.61,23.43-7.05,16.48-15.19,32.5-23.48,50-1.73-12.6-3.28-24-4.9-35.81A14,14,0,0,0,109,206c-6.72,5.18-14.2,9.71-19.73,16-3.52,4-4.26,10.53-5.82,16-.22.78,1.85,2.56,3.17,3.36,9.14,5.48,18.28,11,27.59,16.13,3.3,1.83,3.48,3.36,1.83,6.64C112,272.31,105,277.68,98.54,283.69a20.2,20.2,0,0,0-5.33,7.46c-4.08,11.62-7.41,23.51-11.64,35.07-1.84,5-.91,8.61,2.44,12.2,2,2.18,4,4.46,5.95,6.7a36.84,36.84,0,0,1-4.9-3.14c-10.78-9.58-21.47-19.24-32.19-28.87a44.51,44.51,0,0,1,1.43-4.73c3.2-7.48,3.38-7.76-3.6-11.53A69.91,69.91,0,0,1,23,270c-.69-1-1.38-2-2.06-3Q35,252.73,49.09,238.55c.42-.42,1.22-.45,1.84-.66q4.83,11.36,9.65,22.72l1.09-.42q-3.39-13.66-6.77-27.33l18.58-17.93c4.43-4.29,8.83-8.61,13.27-12.9,3.62-3.5,7.26-7,10.89-10.47l15.21-14.67c5-.54,8.94-3,12.44-6.64,7.21-7.57,14.71-14.87,22.14-22.23,5.71-5.67,11.91-10.52,19.89-12.81a9.51,9.51,0,0,0,5.33-4c6.93-12.7,13.54-25.58,20.26-38.41l1-.94c4.5,7,9.07,13.9,13.48,20.93s8,14.33,12.88,20.78c7.52,9.85,8.81,21.28,10.09,32.83,1.95,17.66,5,35.32,5.29,53,.29,18.37-2,36.79-3.5,55.17-1.55,19.54-3.91,39-5,58.59-1,17.25-.8,34.58-1.13,51.87-6.06-1-9.87,3-13.77,6.49-6.25,5.62-12.3,11.46-18.49,17.14A28.7,28.7,0,0,1,190,411.17Z"/>
    <path class="d" d="M930.11,218.87c-1.33,3.65-3.23,7.2-3.88,11-1.14,6.71-1.6,13.53-2.19,20.32-.25,2.93-1.5,3.8-4.26,2.9-3-1-6-1.85-9.09-2.72s-3.63-2.44-1.82-5.13c3.61-5.37,7.1-10.83,10.18-15.56-3.33-.53-6.6-1.4-9.88-1.44-2.13,0-4.92.52-6.31,1.92a152.53,152.53,0,0,0-12.07,13.93c-2.18,2.78-4.34,3.18-7.32,1.65-5.18-2.67-10.28-5.58-15.7-7.67a15.28,15.28,0,0,0-8.86-.41c-5.35,1.41-10.48,3.71-15.7,5.65l-.68-1.18,27.64-22.34-.5-1.22c-17.18,3.24-34.38,6.39-50.4,14.38l-1.13-1.19c2.19-9,3.79-18.11,6.68-26.84,4.72-14.2,10.25-28.12,15.47-42.15,2.21-5.93,13.69-8.66,19.87-4.65,10.62,6.88,21.15,13.9,31.77,20.78a61.65,61.65,0,0,0,6.2,3.08q11.4,13,22.79,26.06C924,211.58,927.05,215.24,930.11,218.87Z"/>
    <path class="f" d="M783.12,398.07c-4.18-7.17-6.55-14.65-6.23-23.22.5-13.14.24-26.32.11-39.47-.25-25.14-1.15-50.28-.82-75.4.28-21.26,1.23-42.57,3.27-63.73,1-10.64,4.9-21.05,7.92-31.43,6.65-22.87,13.57-45.65,20.4-68.46a3.89,3.89,0,0,1,2-2.5c-.33,3-.63,5.91-1,8.86Q803,147.5,797.18,192.26a54.27,54.27,0,0,0-.15,6c-.34,25.13,0,50.3-1.27,75.38-.82,15.9-4.9,31.6-6,47.5-1.36,18.72-1.22,37.56-1.45,56.35,0,2.09,1.43,4.41,2.69,6.28,6.8,10.08,13.77,20,20.64,30.07.93,1.35,1.61,2.87,2.41,4.31-9-6.07-18-12.16-27-18.19A30.09,30.09,0,0,0,783.12,398.07Z"/>
    <path class="g" d="M895.06,367.05l-12-14.6c-.8,2.07-1.29,3.35-2.17,5.61-2.78-3.56-5.12-6.46-7.34-9.44-3.48-4.66-7.08-9.25-10.2-14.14-1.08-1.69-1.89-4.76-1.08-6.26,5.94-11,12.31-21.66,18.58-32.42.2-.35.76-.48,2.05-1.24-.49,3.54-.78,6.39-1.29,9.19-1.27,7-2.57,14.06-4,21.06-.69,3.33.14,5.07,3.82,5.18,9.12.25,18.24.8,27.36,1,10.43.17,10.43,0,14.2,9.87Z"/>
    <path class="h" d="M973.06,292.06c.54-2.69,1.09-5.38,1.91-9.41-2.92,1.35-4.7,2-6.27,2.94-6.1,3.74-12.18,7.54-18.18,11.44-2.78,1.8-4.87,2.13-7.21-.92-3.12-4.09-6.72-7.81-10.17-11.64-2.55-2.82-3.16-5.49-.61-8.85a125.11,125.11,0,0,0,9.12-13.72c2.55-4.5,5.75-5.3,10.39-3.73,6.31,2.12,12.75,3.85,19.13,5.75l11.42,14.55c1.69,2.16,1.71,4.14-.53,6C979,287,976.06,289.52,973.06,292.06Z"/>
    <path class="b" d="M192.91,92.83c-6.72,12.83-13.33,25.71-20.26,38.41a9.51,9.51,0,0,1-5.33,4c-8,2.29-14.18,7.14-19.89,12.81-7.43,7.36-14.93,14.66-22.14,22.23-3.5,3.68-7.4,6.1-12.44,6.64,4.51-4.61,9.15-9.1,13.5-13.85,11-12,21.71-24.25,32.76-36.19,7.26-7.84,14.93-15.29,22.35-23,2.58-2.66,4.86-5.61,7.45-8.26A25,25,0,0,1,192.91,92.83Z"/>
    <path class="c" d="M23,270A69.91,69.91,0,0,0,50.7,296.85c7,3.77,6.8,4,3.6,11.53a44.51,44.51,0,0,0-1.43,4.73L39.93,300.16a48.52,48.52,0,0,0-2.44-4.83c-4.55-7.11-9.24-14.12-13.73-21.26C23.07,273,23.2,271.35,23,270Z"/>
    <path class="e" d="M23,270c.24,1.38.11,3,.8,4.1,4.49,7.14,9.18,14.15,13.73,21.26a48.52,48.52,0,0,1,2.44,4.83c-9-9-19.11-17-26.42-28.2l7.39-5C21.58,268,22.27,269,23,270Z"/>
    <path class="i" d="M280.1,992.89c5.54-2.24,11.06-4.56,16.66-6.65a7.06,7.06,0,0,1,4.33-.21c6.63,2.16,13.18,4.55,19.77,6.86Z"/>
    <path class="i" d="M218.09,993.89c12.52-6.8,25.25-3.62,38-.81-4,.31-8,.83-12,.88C235.4,994.06,226.75,993.92,218.09,993.89Z"/>
    <path class="e" d="M163.79,412l20.29,5.08c-7.64,6.75-7.89,6.73-14.88-.2C167.48,415.19,165.6,413.64,163.79,412Z"/>
    <path class="j" d="M54.9,232.86q3.39,13.66,6.77,27.33l-1.09.42q-4.81-11.37-9.65-22.72Z"/>
</svg>