<svg xmlns="http://www.w3.org/2000/svg" viewBox="0 0 1000 1000"><defs><style>.a{fill:#fefefe;}.b{fill:#929292;}.c{fill:#c6c6c6;}.d{fill:#adadad;}.e{fill:#b1b1b1;}.f{fill:#b6b6b6;}.g{fill:#939393;}.h{fill:#b8b8b8;}.i{fill:#949494;}.j{fill:#ababab;}.k{fill:#a7a7a7;}.l{fill:#a4a4a4;}.m{fill:#a6a6a6;}.n{fill:#515151;}.o{fill:#a9a9a9;}.p{fill:#a2a2a2;}.q{fill:#a5a5a5;}.r{fill:#aaa;}.s{fill:#a8a8a8;}.t{fill:#a3a3a3;}.u{fill:#a1a1a1;}.v{fill:#a0a0a0;}</style></defs><title>sweatpants</title><path class="a" d="M689,0h311V1000H0V0H686c-2.15,1-4.22,2.56-6.45,2.82-19.87,2.27-39.73,4.62-59.65,6.32-15.85,1.36-31.76,2.29-47.67,2.65-29.06.67-58.14.77-87.22,1.12l-14,.18c-12.77-.38-25.55-.62-38.31-1.2-6.6-.3-13.17-1.22-19.76-1.86L385,8.12l-16.08-1L348,5c-7.59-.9-15.19-1.7-22.76-2.75-3-.41-5.59.08-6.54,3.07a94,94,0,0,0-3.19,13c-1.24,7.31-1.71,14.76-3.26,22-3.37,15.73-7.39,31.32-10.82,47A505.2,505.2,0,0,0,290.07,196.8c.05,17.1,1,34.2,1.68,51.29.69,18.58,1.51,37.15,2.21,55.72.71,18.89,1.25,37.79,2.05,56.68.39,9.07,1.44,18.1,1.74,27.16.35,10.4.07,20.81.27,31.22.22,10.77.54,21.55,1.09,32.31.4,8,1.37,15.88,1.83,23.84.81,14.1,1.43,28.22,2.13,42.33.33,6.64.6,13.28,1,19.92,1.26,20.55,2.72,41.1,3.84,61.67q1.75,32.12,3,64.25c.84,21.77,1.34,43.55,2.09,65.33.56,16.45.89,32.92,2,49.33,1.6,23.2,3.33,46.41,6,69.5,3.37,29.23,7.37,58.39,11.81,87.47,2.09,13.73,5.85,27.2,8.78,40.8,1.53,7.1,2.91,14.24,4.35,21.37,2.26.35,4.52,1.07,6.76,1,17.43-.54,34.85-1.56,52.29-1.79,13.46-.17,26.93.54,40.4.94,3.15.09,5.6-.6,6.48-4,4.11-16,5.5-32.43,10.66-48.37,4.21-13,4-27.48,5.53-41.33,1.88-17.48,3.7-35,5.1-52.48,1.86-23.33,3.69-46.67,4.79-70,.92-19.45.73-38.94,1.08-58.41q.52-30.19,1.15-60.4c.19-8.31.56-16.61,1-24.91q1.88-32.32,3.95-64.64c.66-10.61,1.42-21.21,2.1-31.82q2-30.81,3.91-61.64c.73-11.6,1.33-23.21,2.14-34.8.84-12.08,1.95-24.14,2.79-36.21.81-11.76,1.32-23.55,2.16-35.3,1.16-16.23,2.51-32.45,3.78-48.67.82-1.37,1.64-2.74,2.65-4.45,1.49,10.05,2.93,19.74,4.37,29.44-.34,3.39-1.1,6.81-.95,10.19.49,10.53,1.32,21.05,2,31.57q.51,3.66,1,7.3,1,17.42,2,34.81.5,5.55,1,11.1l1,18.84.92,9.14c.29,6.44.54,12.89.89,19.32q1.56,28.75,3.18,57.5,1,18.61,2,37.22,0,6.43,0,12.87c.6,14.77,1.24,29.55,1.8,44.33Q525.51,684.12,527,725c.62,16.28,1.11,32.56,2,48.82q1.88,34.07,4.34,68.11c.73,9.74,2.31,19.42,3.5,29.12l2.28,23.9a21.32,21.32,0,0,0,0,3c1.78,14,3.57,27.93,5.45,41.88A22.71,22.71,0,0,0,546,944c1.72,15.83,3.6,31.64,5.06,47.49.38,4.11,2.63,5.16,5.82,5.23,9.6.22,19.21.25,28.82.28,24.33.06,48.66,0,73,.16,4.37,0,7-1.75,7.62-6.11,1.14-7.38,2.13-14.78,3.43-22.12,2-11.36,4.76-22.61,6.22-34,1.63-12.83,2.07-25.81,3.23-38.7,1.27-14.05,2.7-28.07,4.18-42.09,1.87-17.65,4-35.27,5.75-52.94,1.31-13.37,2.13-26.8,3.17-40.2,1.61-20.68,3.4-41.35,4.77-62.05,1-14.75,1.4-29.53,2-44.31.71-17.1,1.35-34.21,2-51.32.66-16.94,1.35-33.88,2-50.82.72-20.11,1.33-40.21,2.07-60.32.59-16.1,1.38-32.2,1.92-48.31.77-22.94,1.4-45.88,2.07-68.81.38-12.64.67-25.27,1.08-37.9.26-7.64.62-15.28,1-22.91,1.27-23.21,3.26-46.41,3.71-69.63.49-24.79-.28-49.6-.82-74.4-.39-18.11-.76-36.25-2.14-54.3-1.06-13.82-2.57-27.79-5.87-41.2C701.2,54.86,694.4,35.51,692.32,15,691.81,10,690.14,5,689,0Z"/><path class="b" d="M539.15,894.93,536.87,871c5.26-9.3,3.52-19,1.39-28.61-1.72-7.8-4.33-15.55,2.06-22.71.79-.9.62-3.65-.17-4.8a32.26,32.26,0,0,1-5.31-18.3c0-4.35,1.23-7.88,4.28-10.71,3.84-3.56,4.15-7.23,1.15-11.41-.67-.93-1-2.11-1.59-3.1-1.71-2.79-1.47-5.09.85-7.63a8.77,8.77,0,0,0,2.18-5.73c-.31-5.8-1.56-11.55-1.77-17.35a67.26,67.26,0,0,1,1.13-14.08c.51-2.91,1-5.12-2.15-6.74-1-.53-2.33-1.89-2.32-2.87,0-4.82-.15-9.74.8-14.42,1.39-6.91,8-9,13.65-4.85,1.8,1.34,3.73,2.52,5.64,3.79,4.54-8.45,4.2-9.5-2-15.2-1.78-1.63-2.62-4.4-3.56-6.77-.56-1.41-.49-3.07-.88-5.89-4.07,3.41-7,6.3-10.4,8.55-1.32.87-4.44,1.14-5.31.27-7.07-7.1-6.43-14.41,1.42-20.46.92-.71,1.84-1.43,2.69-2.22,4.92-4.56,4.88-5-.44-9.36a11.83,11.83,0,0,1-1.71-1.95c7.09-8.1,12.83-17.19,24.44-19.79-8.88-6.5-17.34-5.94-26.05-4.2a129.55,129.55,0,0,1,16.36-4.42c3-.64,5.07-1.66,4.19-5.3s1.37-5.73,4.26-7c3-1.3,6.34-2,9.48-3.13,1.87-.66,3.67-1.53,5.5-2.31l-.33-1-10.18-1,6-10.38c-6.21,1.7-11,2.76-15.66,4.45-1.19.44-2.14,2.77-2.39,4.36-.84,5.43-1.29,6-6.12,3.08-6.81-4.16-13.7-5.67-21.36-3.12a10.11,10.11,0,0,1-2.48.18q0-6.44,0-12.87c5.26.48,10.54.86,15.79,1.47,3.35.4,6.88.59,9.91,1.88,3.4,1.45,5.93,1.54,8.49-1.49-.72-1.44-1.42-2.82-2.7-5.33,5.67,0,10.91-1.26,15,.34s7.41,6.09,11.46,9.68c.75-1.71,1.43-3,1.89-4.36,2.61-7.69,2.21-8.24-5.75-8.26H560.42c.13-2.69.19-4,.27-5.86-8.08.49-12.11-3.73-14.06-11.27,1.75.25,3,.53,4.3.59,2.18.08,4.36,0,6.54,0-.45-2.65-.61-5.41-1.47-7.93-.64-1.89-2.18-3.47-3.62-5.63,2.46-.92,4.12-1.65,5.85-2.15,4.08-1.2,3.92-3.43,1.66-6.27a27.32,27.32,0,0,1-3.3-4.36c-.49-1-.67-3-.09-3.49,3.24-2.83,2.8-6.29,1.93-9.7-1.11-4.42.86-6.22,4.89-6.73,2.49-.31,5-.69,7.46-1,.05-.45.09-.89.13-1.34l-9.24-5.55L577,496.49c-6.14-4.07-8.12-2-4-21.88l-8.9.49a57.49,57.49,0,0,0,3.13-6.65,66.26,66.26,0,0,0,2.64-10.51c.64-4.55.69-9.18,1-13.77.23-3,.4-6,.89-8.89.85-5.14,1.87-10.24,3-15.33a19.33,19.33,0,0,1,1.73-3.83c-8.84-4.84-10.59-7.21-10.2-13.63a46.15,46.15,0,0,0,6.2-1.38c1.55-.55,4-1.63,4.06-2.64.18-2.06-.84-4.28-1.6-6.34-.25-.67-1.2-1.12-1.9-1.57-2.68-1.74-2.49-3.55-1-6.29,3.27-6.1,8.46-8.35,14.92-9.35a9.45,9.45,0,0,0,5.78-4.14c1.22-2,1-4.9,1.53-7.83-4.38-.47-8.69-.75-12.93-1.44s-8.12-1.76-12.18-2.67c2.12-.56,4.06,0,6,0,2.78,0,7.06.53,8.05-.94,3.83-5.7,10.79-8.82,12.57-16.24,1-4.24.56-6.05-4.06-6.8-4.41-.71-8.66-2.46-13-3.75,0-.59,0-1.17.07-1.76,4.53-1.84,9-3.83,13.6-5.5s5.79-4.36,4.38-9.24c-2.15-7.45-5.51-14.94-1.78-23.6l-6.31,2.89-1.22-1.33c1.62-2,2.95-4.38,4.9-6,6.29-5.25,6.55-5.49,1.56-11.88-2.46-3.15-3.13-5.88-1-9.51,4.28-7.35,4.15-7.42-2.86-13.06l12.59-2.23c-5.29-4.78-5.29-4.78-2-9.35.58-.81,1.18-1.61,1.77-2.42,3.4-4.66,2.48-7.89-2.85-10-6.75-2.71-6.94-2.79-4.07-9.66,1.67-4,.91-5.95-3.46-6.49-3.56-.44-4.16-2.61-2.29-5.27,2.71-3.86,5.85-7.42,8.55-11.29.8-1.16,1.47-3.3.93-4.35-2.36-4.65-2.18-15.09,1.73-18,4.28-3.25,5.38-6.7,4.14-11.57a8,8,0,0,1,.35-3.94c1-3.56,0-6.31-2.38-9.14-5.33-6.35-5.18-6.47.69-12.57.69-.72,1.77-1.38,2-2.22.64-3.13,2-6.62,1.2-9.41-1.37-4.7-4.1-9-6.47-13.41-1.44-2.64-1.26-4.58,1.2-6.48,3.17-2.43,6.21-5,9.19-7.68,2.07-1.85,2.28-3.86-.68-4.94C605.86,90,599.4,94.18,599,98.81c-.26,3.29-1.71,4.32-4.86,4-1.69-.18-3.75-.19-5.13.61-5.45,3.16-10.82,6.51-16,10.14-1.92,1.35-4.57,3.76-4.44,5.49.3,3.73.81,8.1,5.91,9.35,3.29.81,6.44,2.19,10.55,3.63-4.41,4.7-8.05,8.57-12.47,13.26l13.55,2.64L570.1,160.11l7.17,3.31c-4.16,1-7.27.77-8.83,2.24-3.77,3.53-2.39,7.41,2.71,9.22,6.19,2.21,5.87,2.05,3.22,7.34a17.63,17.63,0,0,0-1.75,9.39c.11,1.06,4.41,1.43,6.53,2.59a8.3,8.3,0,0,1,3.87,3.85c.28.8-1.64,2.84-3,3.64a42.6,42.6,0,0,1-7.31,3.2c-2.59,1-3.62,2.11-2.59,5.22,1.42,4.3,2.13,8.83-2.37,12.26a3.16,3.16,0,0,0-.54,3c4.66,8.53,4.49,16.64-1.66,24.41a8.07,8.07,0,0,0-.89,2.09c2.7,4.22,10.89,3.17,9.93,9.38-.65,4.26-4.35,8.06-7,12.57l7.7,3.12c-.48.9-.56,1.28-.79,1.46a17.77,17.77,0,0,1-2.08,1.37c-6.4,3.63-6.5,4-2.55,10.11.46.7.9,1.41,1.38,2.09,1.49,2.13,1.27,3.7-.87,5.52-7,5.93-13.68,12.14-20.61,18.1-1.14,1-3.2,2.17-4.26,1.77-4.21-1.61-8.2-3.82-13.5-6.4,2.69-2.25,4.16-3.56,5.71-4.76,7.2-5.62,6.47-13.08-1.73-17.14-2.24-1.11-4.59-2-6.86-3-3.19-1.45-3.72-3.48-1.41-6.27a109.29,109.29,0,0,0,7.33-9.47c.68-1,.74-3.68.07-4.16-3.71-2.63-3.11-5.73-2-9.32,2.38-7.64,2.35-7.79-4.62-11.46-3.11-1.64-3.83-3.4-1.68-6.22,4.53-5.92,4.94-12.9,5.11-19.92.08-3-.31-6,.09-9,.64-4.7,1.2-9.54,2.82-13.94s2.28-8.25-.11-12.36c-2-3.51-1.17-6.83-.12-10.53a39.6,39.6,0,0,0,1.08-12c-.18-4.77-1.86-9.56-1.56-14.26.39-6.19-1.11-10.45-7-13.12-3.14-1.41-5.84-3.8-8.76-5.76-1.7,8.34-3.22,15.6-4.66,22.88-2.22,11.26-4.5,22.51-6.47,33.82-.38,2.17.5,4.56.84,6.85,1,6.36,2.75,12.72,2.71,19.07-.06,8.78-1.45,17.55-2.36,26.31-.44,4.25-1.07,8.49-1.62,12.73,2.48-12.34-5.37-20.83-11.24-30.16a16.35,16.35,0,0,0-.1,5.26c1.5,15.52,3.42,31,4.38,46.57.91,14.58.78,29.22,1.17,43.84a26.26,26.26,0,0,0,.84,4.33l.18,4.36c-1.27,16.22-2.62,32.44-3.78,48.67-.84,11.75-1.35,23.54-2.16,35.3-.84,12.07-1.95,24.13-2.79,36.21-.81,11.59-1.41,23.2-2.14,34.8q-1.94,30.82-3.91,61.64c-.68,10.61-1.44,21.21-2.1,31.82q-2,32.31-3.95,64.64c-.48,8.3-.85,16.6-1,24.91q-.68,30.2-1.15,60.4c-.35,19.47-.16,39-1.08,58.41-1.1,23.37-2.93,46.71-4.79,70-1.4,17.52-3.22,35-5.1,52.48-1.49,13.85-1.32,28.32-5.53,41.33-5.16,15.94-6.55,32.39-10.66,48.37-.88,3.43-3.33,4.12-6.48,4-13.47-.4-26.94-1.11-40.4-.94-17.44.23-34.86,1.25-52.29,1.79-2.24.07-4.5-.65-6.76-1l20.78-3.13c1-2.35.21-5.09-3-6.6-8-3.83-12.11-10.43-14.22-18.75-.39-1.54-1.94-3.68-3.27-3.94-5.17-1-5.53-4.45-5.31-8.59.15-2.83.11-5.67,0-8.5-.08-3.18,1.41-4.54,4.54-4.48,4.17.07,8.34-.13,12.5,0,3.69.15,5.89-.67,6.3-5,.19-1.93,2.44-3.74,3.94-5.45a50.84,50.84,0,0,1,4.42-3.92c-1.69-.08-2.17-.16-2.64-.12-6.74.51-8.84-1.5-7.76-7.92.51-3-1-3.52-3.29-3.55-4.16,0-8.33.07-12.49-.11s-10.27-6.33-8.55-8.53a43,43,0,0,1,10.68-9.81c2.84-1.8,5.46-.14,5.35,3.87-.07,2.86,0,5.73,0,8.59l1.65.35,11.6-12.92-11.65,1.66A22.19,22.19,0,0,1,362.37,886c3.43-3.42,6.41-7.29,10.44-11.94-6.32,1-11.19,2.11-16.11,2.55-1.75.16-4.37-.68-5.3-2-1.45-2-2.06-4.84-2.52-7.4a4.51,4.51,0,0,1,1.34-3.66,19.92,19.92,0,0,1,6.47-3.69c2-.6,4.35-.13,6.54-.13l.27,1.67-5.59,6.7c6,3.79,7.66,3.33,8.2-2.76s2.62-10.76,8.23-13.7c2-1,3.52-2.74,5.3-4.17-5-5.34-6.84-5.82-12.64-3.69-6.41,2.36-12.77,4.88-19.26,7-1.47.47-4.28,0-5-1.06-1.49-2.23-2.86-5.16.15-7.6A37.15,37.15,0,0,0,346.8,839c.7-.72,1.48-2.59,1.27-2.77-5.11-4.15-4.78-10-6.2-15.71-1.53-6.13-6.28-11.52-9.89-17.06-1.75-2.68-1.94-5,.35-7.15a169.62,169.62,0,0,1,13-11.42c4.06-3.06,6.47-2.41,10.27,1.68l-9.89,1.92c0,.66,0,1.31-.05,2,5.29.57,10.64,1.92,15.85,1.5,5.52-.45,11-2.45,16.35-4,1.94-.56,3.68-1.81,5.5-2.74l-.51-1.6c-5-1.31-9.5-5.34-15.31-1.39-.83.57-3-.55-4.37-1.23-.32-.16-.3-2,.17-2.58a110.24,110.24,0,0,1,8.64-9.66c.94-.89,3.05-1.1,4.48-.84,3.72.67,7.33,2.11,11.07,2.57,1.88.23,5.66-1.1,5.63-1.54-.19-3-.35-6.55-4.76-6.92-2.31-.2-4.63-1-6.92-.87-7.52.31-5.33-5.8-6.31-9.56-1.06-4.07,1.72-5.59,5.25-6.23,4.53-.81,8-2.89,9.54-8.09-1.64-.44-3-.89-4.44-1.18-11.58-2.45-23.08-1.75-34.66.28-3.24.57-6.81-.69-10.52-1.15,3-7.6,3.46-7.25,9.71-7.52,6.95-.31,13.84-2,20.75-3v-1.48l-11.26-5.13,29.71-11.14-.41-1.93a61.82,61.82,0,0,1-6.81-.06c-2-.22-4.95-.28-5.84-1.55-2.41-3.45-4.63-2.88-7.57-1.15-6.15,3.62-14.87,1.74-20.07-4.65,4.82-.88,9.31-1.76,13.82-2.5,6.76-1.12,9.6-7.09,6.18-13.16-5.34-9.47-5.32-9.4-16.11-6.88a3.9,3.9,0,0,1-3.23-2.07c-.74-3.21.71-5,4.27-5,4.32,0,8.65-.1,12.95-.5,2.57-.23,5.26-2,7.57-1.53,5.85,1.22,10.38.39,13-5.16-6.59,1.09-13.47,2-20.25,3.43-3.62.75-4.7-.69-5.27-3.88s-.92-6.17,3.21-7c4.44-.87,8.92-1.49,14.55-2.41-1.32-2.12-2.31-5.08-4.37-6.49-1.05-.71-4.19,1.1-6.06,2.29a77.32,77.32,0,0,0-6.73,5.27,76.59,76.59,0,0,1-7.24-4.16c-.89-.64-1.18-2.1-1.75-3.18,4.56-2.27,7.49-7.92,13.15-7.55,10.48.69,20-1,28.88-7.1,5.8-4,12-1.24,19.43-.07l-12.06,18.92c5.58,1.7,10.74,3.14,15.79,4.89a62.6,62.6,0,0,1,7,3.43c-1.23,2.22-2.51,4.41-3.69,6.65a75.41,75.41,0,0,0-4.23,8.61c-1.14,3.11-1,6.87-2.69,9.58-2.39,3.86-2.27,6.24,2.21,7.32,6.16,1.48,9.2,6.11,12.27,10.95,1.8,2.83,1,4.25-1.93,5.09a25.68,25.68,0,0,0-2.83,1c-3.79,1.6-7.57,3.23-11.36,4.84,2.12,3.65,3.73,7.75,6.46,10.87,5.79,6.61,4.83,14.4,4.13,21.85-.31,3.29-3.37,6.48-5.63,9.36-1.8,2.3-1.59,3.59.67,5.26,3,2.22,5.76,4.76,9.48,7.87-7,2.51-14.26,2-19,8.39,3.34-.79,6-1.5,8.78-2.05,4.54-.91,9.14-2.55,13.66-2.37,8.3.34,12.95-4.93,9.76-13.09L461,749.83l-20.51-5.68v-1.74l9.56-7-.5-1.16-6.42.6c-1.44-2.41-2.47-4.14-3.85-6.47,4.2-2,7.94-4.33,12-5.3,1.23-.29,3.37,3.28,5.14,5.12l7.82-6.61-10.45-4.78c2.07-2.09,3.36-3.92,5.11-5,3.66-2.37,4.64-5.32,3.24-9.38-1.68-4.86-2.86-9.92-4.86-14.64-2.5-5.9-3-10.88,3.62-14.31.45-.23.59-1,1.12-2.08-9.55.62-3.34-6.2-5-9.78-7.21,2.9-14.2,5.87-21.34,8.45-1.48.54-3.47-.36-5.23-.6,1.11-1.26,2-2.83,3.38-3.74,7.87-5.3,17.05-6.42,26.13-7.57,4.59-.58,6-2.64,6.19-7.16.23-5.18.86-10.65,2.81-15.37,2.54-6.14,3-11.82-.88-17-4.38-5.86-4.59-11.45-1.11-17.58.74-1.29,1-2.84,1.7-4.15,1.8-3.36,1.28-6.36-1-9.29-3.88-5-3.37-10.16-.17-15.34a48,48,0,0,0,3.57-6.57c3.93-9.34,3.18-16.53-3.36-21.72-4.16-3.3-3.67-4.78.14-7.62,6.56-4.88,7.77-13.19,3.78-20.33-.59-1.06-.15-3,.35-4.29s1.66-2.29,2.61-3.51a15.38,15.38,0,0,0-1.8-1.63c-7.5-4.68-7.62-4.79-1.27-11.45,2.57-2.69,2.3-4.91.21-7.39-2.55-3-2.74-6-1-9.67,2.56-5.41,4.48-11.13,7-16.57,2.19-4.78,2.83-9.51,1-14.51-2.39-6.64-1.9-12.72,3.46-17.89.46-.44.47-1.35.86-2.55l-8.93,2.24-1.33-1.5c1.84-2.69,3.31-5.77,5.62-8,3.92-3.72,5.07-7.12,2.23-12.25a16.21,16.21,0,0,1,2.85-19.4L476.19,379l8.92-6.35-12-9.34c-6.83-5.32-6.74-5.28-2.27-12.66,1.33-2.19,2.9-4.8,2.82-7.17-.25-7.64-.52-7.62,6.47-10.45a11.48,11.48,0,0,0,2-1.26c-3.46-6.94-3.41-6.94-3.36-17.17a4.48,4.48,0,0,0-1.86-2.86c-3.72-2.83-3.55-6.12.63-8.49,2.07-1.17,4.21-2.24,6.31-3.35l-.3-1.28a36.77,36.77,0,0,1-5.67-.87c-2-.61-4.89-1.22-5.52-2.65a76.63,76.63,0,0,1-5.11-15.56c-1.14-5.76-.23-10.91,5.78-14.55,4.43-2.68,5.92-10.41,3.28-14.25-3.74-5.46-3.49-11.16-2.72-17.23a40.38,40.38,0,0,0-.06-10.42q-2.07-15.8-4.7-31.52c-.88-5.23-1.27-11-3.86-15.35-2.89-4.84-1.46-7.64,1.07-11.44,1.75-2.63,3.83-6.09,3.45-8.85-.71-5.16-3.26-10-4.74-15.11a9.28,9.28,0,0,1,.08-5.35c1.87-5.36,4.11-10.59,6.43-16.43-2.07-.46-4.24-.61-6.1-1.45a7.56,7.56,0,0,1-3.48-3.34c-1.5-3.17-2.55-6.55-3.74-9.86-1-2.74-2.87-5.57-2.68-8.24.62-8.5-1.89-16-5.61-23.37-6.71,1.11-6.69,1.09-12.09-3.8-2.46-2.23-5.1-4.28-7.5-6.57a8.44,8.44,0,0,0-9.27-1.94C422,67.3,423.39,73.64,424.48,80c1.65,9.66,3.27,19.33,4.62,29,1.42,10.2,2.57,20.44,3.68,30.67.19,1.75.22,4.07-.74,5.28-3.76,4.73-3.06,9.5-1.17,14.59a42.39,42.39,0,0,1,2.25,8.18c1.43,9.25,2.83,18.47-5.15,26-1.3,1.24-1.83,4.49-1.22,6.3,1.27,3.83,3.54,7.33,5.65,11.44l-11.46,6.94c0-2.3.06-3.27,0-4.24-.85-11.74-5.05-14.81-15.93-11.42-1.74.54-3.83,1.64-4.65,3.1a97.84,97.84,0,0,0-5.72,12.54,65.89,65.89,0,0,0-2.86,10.08c-.2,1,.66,3.08,1.24,3.15,5.13.69,6.4,3.51,4.89,8.93,7.34-8.27,16.83-9.44,26.35-9.75v-2.8l1.34-.07a28.15,28.15,0,0,1,.54,18.95c-1,3.34-6.2,5.4-9.51,8l-1.27-1.22a52.28,52.28,0,0,0,.94-7.3c0-1.74-.34-4.62-1.32-5-2.32-.91-5.1-.64-7.69-.85-.15,1.86-.35,3.72-.42,5.59a8,8,0,0,0,.41,2c1.08,4.94.15,6.18-5,6.77-1.86.21-3.72.47-6.68.84a16.6,16.6,0,0,0,2.38,1.37c5,1.3,10,2.41,15,3.91,1.75.53,3.93,1.6,4.67,3.06,1.91,3.75-1.48,16.13-4.71,19,6.54,4,8.11,9.19,4.67,16.22-4.09-1.72-8.06-4.11-12.33-5s-8.62-.18-13-.18c4.57.86,6.7,3.83,7.72,7.83,1.19,4.71,3.65,6.81,8.67,5,1.34-.48,3-.08,4.51-.08.14.49.29,1,.43,1.47-1.75.87-3.48,1.78-5.25,2.61-3.52,1.64-7.45,3.28-6.93,8,.42,3.86-1.48,4.55-4.46,5-4.34.64-8.66,1.48-13,2.23v1.33l28.19,1.9.05.71-15.4,4.89,12.64,3.18c-.1.42-.2.84-.31,1.26l-9.61-1.27c4.12,3.55,3.2,6.74.85,10.71-.89,1.49.08,4.75,1.2,6.6,2,3.35,4.8,6.25,7.49,9.62-5.24,1.6-3.51,4.68-2.18,7.48,2,4.23,2.76,7.87-1.49,11.59-4.92,4.29-4.64,4.57,0,9.65a32.15,32.15,0,0,1,2.28,3.29l-8.36,5.18,10,10.89c-9.17,5-18,.24-27.41,1.5,5,5.8,6.05,11.48,1.9,17.89,2.42-.6,4.36-1.26,5.45-2.61,1.75-2.18,2.72-5,4.47-7.18,1-1.23,3.07-2.68,4.27-2.39,3.92.94,7.65,2.64,11.32,4-2,2.82-5.09,5.32-4.72,7.1,1,5.09-1.67,7.21-4.95,9.79a40.77,40.77,0,0,0-8.55,8.34c-2,2.92-2.82,6.69-4.16,10.09l1.25.52c.41-.71.83-1.41,1.22-2.12,7.29-13.17,5.31-11,16.95-6.26a16.25,16.25,0,0,1,4.07,1.87c2.6,2.08,5,4.43,7.52,6.71-6.51,6.12-7.31,6.25-13.85,3-2.86-1.4-5.77-2.71-9.44-4.43,4,8.33,5.18,9.29,12.42,11,4.06.94,2.39,3.27.95,5.11-4.38,5.57-15.83,7.84-22.73,4.46l7.17-4.32c-4.17-3.2-7.94-5.8-11.34-8.81-3.93-3.47-7.49-7.35-11.29-11a48,48,0,0,0-4.21-3.2c5.51-6.56,5.51-6.56,4.24-11.29,6.35-4.16,7-4.36,4.58-12.44-2.21-7.28,2-16.51-7.44-21.84l20.45-13.12-.38-1.25c-4.66,3.73-7.57.74-10.24-2.28a15.05,15.05,0,0,1-2.46-4.82c-2.72-7.43-2.49-14.91-.89-22.61,2.06-9.87-.89-16.48-8.14-19.68,2.48-2.15,5.63-3.86,7.14-6.5s1.12-6,1.58-9l-2-.94-3.5,6.66L358.73,319l9.67-2.78c-1.75-7.24-5.27-12.47-12.66-14.8,1.13-1.19,2.46-2.13,2.32-2.5-1.95-5,2-6.22,5-8.05,5.54-3.35,7.48-11.72,2.65-16.17-6.19-5.7-6.74-13.07-8.28-20.27-.4-1.85-.54-4.47.45-5.78,5.71-7.53,3-14.72-.22-22a73.22,73.22,0,0,1-2.77-7c-.39-1.2-.86-3.27-.3-3.74,4.31-3.54,2.5-7.59,1.64-11.8a12.72,12.72,0,0,1,.74-6.34,11.49,11.49,0,0,0-1.23-10.43c-4.14-6.87-3.11-12.65,2.92-18.17-.9-.74-1.78-1.45-2.65-2.19-8-6.9-8.69-13.83-2-20.57s7.85-18.62,2.47-27.56c-1.46-2.42-3.33-4.74-4.12-7.38a9.81,9.81,0,0,1,.39-6.85c1.69-3.08,2.37-5.53.38-8.75-.76-1.24-.27-3.45.08-5.12.45-2.08,2-4.07,1.93-6.09-.07-4.91-1.6-9.92-1-14.69,1.23-10-4.78-16-11-21.6-3.78-3.42-5-6.69-3.48-11.31l4.91-.82a22,22,0,0,0-.7-4.5c-1.82-4.6-1.59-8.65.81-13.28,2.06-4,2.27-8.94,3.3-13.47l20.93,2.13c.35,7.88,1.22,8.53,8.43,5.48,2.7-1.14,5.11-3,7.65-4.49L413,10c-.88,3.77-1.77,7.53-2.78,11.83a28.08,28.08,0,0,0,2.91-1.49c5.64-3.8,5.57-3.78,8.67,2.11,1.6,3,3.46,5.92,5.2,8.88l1.11-.67c-1.53-2.83-3.06-5.65-4.89-9,5,0,9.11.46,13.11-.09C447.65,20,447.74,19.84,448,30.88c.08,3.85,1.42,5.73,5.4,6.23,6.3.78,6.52.71,8.61-6.36.81-2.75.5-4.08-2.58-5.11-2.63-.89-4.79-3.13-7.7-5.15,11.4-6.21,12.73-6.29,21.53-1.85-.75-1.93-1.46-3.74-2.16-5.55l14-.18c29.08-.35,58.16-.45,87.22-1.12,15.91-.36,31.82-1.29,47.67-2.65,19.92-1.7,39.78-4.05,59.65-6.32C681.78,2.56,683.85,1,686,0h3c1.14,5,2.81,10,3.32,15,2.08,20.5,8.88,39.85,13.77,59.67,3.3,13.41,4.81,27.38,5.87,41.2,1.38,18.05,1.75,36.19,2.14,54.3.54,24.8,1.31,49.61.82,74.4-.45,23.22-2.44,46.42-3.71,69.63-.42,7.63-.78,15.27-1,22.91-.41,12.63-.7,25.26-1.08,37.9-.67,22.93-1.3,45.87-2.07,68.81-.54,16.11-1.33,32.21-1.92,48.31-.74,20.11-1.35,40.21-2.07,60.32-.61,16.94-1.3,33.88-2,50.82-.67,17.11-1.31,34.22-2,51.32-.61,14.78-1,29.56-2,44.31-1.37,20.7-3.16,41.37-4.77,62.05-1,13.4-1.86,26.83-3.17,40.2-1.72,17.67-3.88,35.29-5.75,52.94-1.48,14-2.91,28-4.18,42.09-1.16,12.89-1.6,25.87-3.23,38.7-1.46,11.43-4.21,22.68-6.22,34-1.3,7.34-2.29,14.74-3.43,22.12-.67,4.36-3.25,6.13-7.62,6.11-24.33-.11-48.66-.1-73-.16-9.61,0-19.22-.06-28.82-.28-3.19-.07-5.44-1.12-5.82-5.23-1.46-15.85-3.34-31.66-5.06-47.49,3-1.94,8.41-2.75,3.92-8.37-.24-.3,1.41-3.1,2.37-3.21,4.89-.58,9.84-.72,14.78-.87,2-.07,4.07.23,6.9.42-7.1-5.39-13.37-10.18-19.7-14.89a3.88,3.88,0,0,0-2.76-.89c-7,1.81-7.13-2.75-6.34-7.25.43-2.42,2.18-4.72,3.69-6.81.68-.93,2.26-1.21,3.42-1.79-.31-.66-.62-1.32-.94-2ZM439,804c-1.28,1-2.4,2.57-3.85,3-5.17,1.56-10.45,2.75-15.69,4.07,9.88,5.16,17,1.74,22.55-6.07,5.28-1.66,6-6.66,7.9-10.81,1.76-3.81,1-6.93-2-9.89-2.47-2.41-4.28-5.49-6.76-7.88a5.29,5.29,0,0,0-4.43-1.12c-6.32,2-12.52,4.32-18.75,6.58-1.25.45-2.42,1.09-4.93,2.24l21.05,4,.06,1.75-10.93,4.26ZM646.87,580.21l-39.78,5.92L611.22,575a8.32,8.32,0,0,0-5,1.54c-9,5.78-10.09,3.55-2.61,14.14a10.67,10.67,0,0,0,6.63,4c3.19.44,6.59-.47,9.88-1,9.22-1.33,14.43,2.94,15,12.05.11,1.7,1.4,4.73,2.19,4.75,3.88.07,7.78-.66,11.68-1.1,0-.45-.05-.9-.07-1.35l-5.42-4c2-1.64,3.52-2.85,5.46-4.42-1.9-1.64-3.32-3-4.84-4.16-3.72-2.93-3.49-5.38,1-7.18a45.42,45.42,0,0,1,8.6-2.55c1.65-.31,4.13-.37,5,.59s.49,3.42,0,5c-1.21,3.54-2.86,6.93-4.32,10.34,9.46,4.38,23.88-1.48,27.7-10.89l-8.68.59,3.55-10.2-10.36,3.35a105.66,105.66,0,0,1,13.4-13.08c1.94-1.65,3.66-3.51,1.61-5.87-5.93-6.81-2.81-13.53.27-20,2.84-6,3-6.6-2.82-9.56-8.29-4.23-9.2-7.61-3.63-15.12,1.32-1.78,3.6-2.87,5.45-4.25,1.51-1.13,3.05-2.23,5.13-3.74-3.6-2.16-6.34-4-9.28-5.5-3.92-2-4-4.3-1.22-7.58l6.57,4c-3.29-7.88-4.93-15.13.58-22.73,1.21-1.68-.3-5.34-.56-8.08-2,.42-4,.87-6.08,1.24-.23.05-.53-.28-1.15-.63,3-5.77,6-11.55,9.12-17.63-10.25-1.19-15.68-8.29-11.84-14.54l-6.7-5.34c7.13-4.58,13.52-8.36,19.51-12.71,1.77-1.29,2.38-4.16,3.53-6.3-2.52-.79-5-2-7.55-2.21-1.59-.1-3.29,1.43-5,2.2-1.86.85-3.74,1.67-6.06,2.7-.13-10.89,10.13-9.24,15.2-14.34l-6.52.29-1.2-1.64,6.36-3.39-1-1.37-16.11,1.17a47.9,47.9,0,0,1,9.85-6.62c3.67-1.92,7.34-3.71,8.08-8.58l-15.58,2c2-4.8,3.29-7.92,5.1-12.29a87.26,87.26,0,0,1-9.77-.11c-1.29-.16-2.44-1.48-3.65-2.28a36.3,36.3,0,0,1,3.25-2.84c1.4-1,3.5-1.41,4.34-2.7,3-4.64,5.72-9.35,13.16-5.73-6.38-4.34-6.31-10.54-7-16.43-.19-1.48-.41-3-.7-4.44-.73-3.59-1.5-7.18-2.26-10.76,3.76-.57,7.57-1,11.27-1.79,1.48-.34,2.73-1.66,4.08-2.53-1.33-1-2.51-2.51-4-3-2.37-.81-5-1-8.52-1.6,2.24-2.93,3.73-4.85,5.19-6.8,4.14-5.5,4-14.89-.68-19.73-3.36-3.48-2.42-6.11.77-8.78l7.61-6.36c-1.89-1.38-3.12-2.43-4.49-3.27-6.08-3.75-6.5-4-2.29-9.79,3.59-4.92,4-8.77-1-12.65a4.39,4.39,0,0,1-.58-.81c-4-5.19-3-8.05,3.34-10.31,1.91-.68,3.77-1.48,6.05-2.38-5.5-7.61-12.49-11-21-12.23,4.53-2.46,9-4,13.37-5.91,1.5-.66,3.86-2.37,3.71-3.2a13.71,13.71,0,0,0-3.2-5.78c-.76-.91-2.38-1.09-3.61-1.61-5.64-2.37-5.8-2.89-2.54-8.3.34-.57.73-1.11,1.06-1.69,3.64-6.27,3.63-6.3-2.5-9.59-.23-.13-.3-.56-.58-1.11.54-.65,1-1.64,1.79-2.07,4.73-2.57,6.15-5.94,3.6-11-3-6-1.56-10.9,2.68-16.39,3.13-4,3.51-10.2,5.12-15.42l-1.76-.8c-.73,4.32-1.43,8.16-7.33,7.06-8.81-1.65-8.86-1.37-5.94-10.06.43-1.27.79-2.56,1.3-3.78,1.74-4.16,3.14-4.45,6.61-1.64,1.84,1.5,3.82,2.82,5.94,4.36,3.06-9.43,1.65-13.48-5.47-17.58-1.44-.83-2.77-1.84-4.19-2.71-6.5-4-3.83-10.42-3.91-15.91-.07-4.76,4.68-3.08,7.26-4.3.86-.41,1.77-.69,2.52-1-.13-10.07-9.53-10.64-16.4-15.38,6.56-.92,7.71-3.55,6.42-8.57-1.14-4.43-3.44-7-7.47-8.46s-4.87-4-3-7.78a31.35,31.35,0,0,0,1.56-5.21,84.89,84.89,0,0,0-17.8,7.84c-1,.58-1.73,3.44-1.19,4.55a23.38,23.38,0,0,1,1.2,18.41c-.44,1.34.06,3,0,4.46-.14,4.27-.17,8.56-.54,12.82-.67,7.91-1.71,15.8-2.28,23.72-.34,4.61.12,9.28-.15,13.9-.19,3.21-.64,6.08,2.17,8.72,1.1,1,1.1,3.64,1,5.49-.2,2.8-1.12,5.54-1.44,8.34-2.1,18-3.64,36.05-6.36,53.93-1.28,8.42-1.64,16.39.42,24.66a100.09,100.09,0,0,1,2.64,17.74c.17,2.68-.55,6.43-2.35,8-3.5,3.06-3.07,5.1,0,7.51,3.81,3,7.74,5.78,12,9l-14,9.05,13.14,5.21L630.43,306l13.5,9.17-9.12,8.64,12.36,3,.24,1.87-16.63,5.82a11.28,11.28,0,0,0,1.59,2c8.09,6.17,8.09,6.16,4.35,15.79a16.36,16.36,0,0,0-.74,1.86c-2.52,9.65-7.15,19.54,3,27.83.18.15.1.62.29,2-8.08,2.1-13.15,6.87-11.37,16.5,1.39,7.56-.88,16.39,9.38,20.45-4.23,3.78-7.49,7.09-11.15,9.86-3.26,2.47-2.76,4.12-.06,6.65,4.1,3.86,7.86,8.08,11.65,12.24,1.88,2.07,1.68,4.17-1.19,5-7.4,2-10.7,6-11.41,14.31-.45,5.29-1.22,8.16,4.45,9.52.16,0,.19.58.41,1.34l-7.23,3.79c1,3,1.87,5.78,3.07,9.46l-11.64-2.44c.26,3.46,1.63,7,.45,9-2.59,4.52-1.94,7.36,3.2,10l-11,8.78c4,.7,7.52.32,11.08.32,1.59,0,3.18.73,4.77,1.14-.95,1.7-1.5,4.17-2.95,5-3.31,1.79-7.06,2.75-10.74,4.09.21,3.92,1.21,8,.38,11.73-.78,3.52.66,4.82,3.1,5.55,2,.59,4.24.35,6.37.24,5.28-.26,10.58-1,15.84-.76,1.33.06,3.75,3.18,3.54,4.59-.44,3-2.93,4.16-6.09,2.7-2-.92-4.09-1.63-6.19-2.46-1.86,6.68-1.86,6.69-8.41,8-2.93.6-5.92,1-8.81,1.81a47.11,47.11,0,0,0-6,2.5c2.81.54,5.26.09,7.68.21C616.23,563.44,641.16,574.85,646.87,580.21Zm-28.39,20.06-1.7-.07c-.59,4.86-1.54,9.71-1.7,14.58-.27,8.45,4,11.76,12.52,10.64,8-1.06,15.91-3.36,24.15-.59,6.63,2.23,11.28,7.64,11.24,14.58,0,5.48-.76,5.77-5.78,3.8a26.37,26.37,0,0,0-9.34-1.88c-3.27,0-6.53,1.51-9.82,1.58-9.61.19-19.16-.36-28.3,4.07-4.1,2-9,2.23-13.61,3.26l.09,1.5c6.09,1.46,12.22,2.79,18.26,4.43,3.21.87,5.32.39,7-2.78.68-1.31,2.7-2.78,4-2.72,5.09.24,7.81,4,7.38,9.23a126.74,126.74,0,0,0-.74,14.42c.07,2.22,1.38,4.53,2.54,6.56,2.36,4.09,5,8,7.7,12.26-7.33,1.56-7.33,1.56-10.78-6.75-4.56,2.66-9.07,5-11.19,11.33h11.1c-1.79,2.51-3.22,3.92-3.85,5.62-.45,1.19,0,4,.37,4,4.48.66,9,1.46,13.51,1.18,3.28-.21,6.29-5.07,9.88-.4.15.2,1,0,1.41-.17,4.82-2.39,9.62-4.83,14.43-7.25,0-.65-.07-1.29-.11-1.94l-18.31-4.38,2.73-15.22,1.93-.2,2,11.17a23.37,23.37,0,0,1,5-2.32c2.09-.49,4.61-.85,6.52-.13,3.72,1.4,7.71,1.77,8.95-2,.63-1.9-2.85-5.21-4.6-7.81a2.74,2.74,0,0,0-1.82-.71c-6.42-.68-10.75-4.62-15.07-9-2.39-2.41-5.8-3.78-8.6-5.83a27,27,0,0,1-3.5-3.72c1.25-1,2.36-2.33,3.78-2.83,6.89-2.47,13.87-4.72,20.81-7,5.68-1.88,10-9.42,7.17-14.56-2.65-4.87-.26-7.48,2-11a20.12,20.12,0,0,0,2.66-8.64c.39-4.37-3.72-5.25-6.67-6.23-1.51-.5-3.95.6-5.5,1.66a24.48,24.48,0,0,0-5.29,5.27c-.82,1.07-.91,2.7-1.57,4.9-11.85-.71-24.74-1.45-37.62-2.28-3.44-.23-2.81-2.71-2.16-4.82A14.74,14.74,0,0,0,618.48,600.27ZM408.07,77.43c-1.19-3.57-1.91-7.44-3.71-10.73-2.75-5-6.54-4.85-10-.32-2.38,3.14-2.49,6.12-1,9.74,3.45,8.36,5.12,16.59-.37,25.17-4,6.34-3.68,7,2.76,10.77,4.63,2.71,5.34,5.19,2.41,9.8-6.16,9.7-5.82,9.32,5.29,11.92,1.8.41,5.16.11,5.58-.85.84-1.88.22-4.46,0-6.74-.17-2-.79-3.94-.86-5.92-.11-3.13,1.23-7-.11-9.29-3.29-5.75-2.85-10.15,2.1-14.34.75-.63,1.19-1.63,1.95-2.26,2.94-2.44,2.33-4.49-.17-7S404.74,82.77,408.07,77.43Zm-6.79,85.44c.54-7.25,3.6-11.75,7.94-15.6,3.39-3,3-5.84-.79-9-5.33,4.41-10.62,8.64-15.65,13.17-.61.55-.32,3.16.45,4,5.36,6,5.44,5.94-.51,11.29a13.73,13.73,0,0,1-1.88,1.63c-2.75,1.68-2.64,3.58-1.2,6.28A130.47,130.47,0,0,1,395,186.83c1.11,2.71,1.86,5.58,3.08,8.24,1.6,3.51,4.15,3,6.36.73,2.57-2.58,4.85-5.46,7.19-8.26,2.81-3.36,3-6.25-1.66-8.09-1.07-.42-2.17-.76-3.25-1.13,2.25-2,3.13-2.59,4.06-2.7,5-.57,6.87-3.36,6.28-8.2a26.79,26.79,0,0,1,0-4.48c.19-3.88-1.31-5.23-5.11-3.76C408.7,160.41,405.42,161.44,401.28,162.87Zm107-39.2,1.82.41c2.9-7,5.85-14,8.65-21a6.43,6.43,0,0,0,.1-3.46c-2-10.28-3.59-20.66-6.23-30.76-2.74-10.45-3.23-10.4,6.66-14.75,3.05-1.34,4.62-3.15,2.28-6-2.64-3.23-2.38-5.71,1.22-8.51-2.37-.2-4.48-.21-6.11.67a22.14,22.14,0,0,0-5.64,4.53,7.53,7.53,0,0,0-1.95,4.27c-.51,8.13-1,16.27-1.06,24.4-.16,15-.06,30,0,45C508,120.17,508.2,121.92,508.31,123.67Zm71.45,675.86,9.12,17.18-5.19,2.43c1.77,7.52,6,12.34,13,14.74,2.37.8,4.18.75,4.14-2.15-.09-7.61,2.1-15.7-4.7-22-2.83-2.61-1.65-5.09,1.27-6.88,2.21-1.35,4.51-2.56,7.64-4.32-2.84-2.45-5.26-4.14-7.19-6.28-3.06-3.41-5.29-2.9-7,1C589,797.79,586.43,801,579.76,799.53ZM602.87,89.38c3.16-5,6.09-9.66,9-14.3L595.64,66c-1.77,2.08-4.24,4.69-6.32,7.58a3.63,3.63,0,0,0,.41,3.46C593.92,81.19,598.33,85.15,602.87,89.38ZM583.45,839.1c-.2,3-.24,4.93-.48,6.86-.22,1.76-.14,3.88-1.09,5.2-6.46,9-5.33,14.1,4,18.18.87-1.76,1.38-3.84,2.67-5.14,3.53-3.57,3.6-7.3,2.29-11.9-.86-3-.16-6.49-.16-10.57Zm92.94-177.42-8.08-7.86c-6.43,7.11-6.65,12.92.43,18.78ZM392,814.64l-1.09-1.37c-4.33.7-8.7,1.23-12.95,2.27-.84.2-2,2.75-1.63,3.59,1.45,3.24,3.46,6.22,6,10.58ZM587.8,882.5c.2-.64.39-1.28.58-1.92-3.72-2.26-7.4-4.57-11.18-6.72a2.4,2.4,0,0,0-2.25.34c-2.42,3.31-4.67,6.74-7,10.13l1.13,1.21Zm43.75-154-1-1.07c-6.73,1.7-13.56,3.09-20.15,5.22-4.17,1.34-5.66,5.32-6.35,9.77a33.82,33.82,0,0,0,9.59-5.58c4.48-3.69,9.13-5.71,15.2-2.8C629.76,732.15,630.66,730.3,631.55,728.45Zm20.14,53.67c.08-.56.17-1.12.26-1.68l-12.26-8.56a95.93,95.93,0,0,0-3,9.19c-.15.72,1.29,2.6,1.91,2.56C643,783.33,647.34,782.67,651.69,782.12ZM429.06,53.88l.89-1.06c-2.64-3.36-5.06-6.93-8-10-2.26-2.38-5.13-4.18-7.79-6.16-4.5-3.34-6.1-2.62-7.38,3.18,8.46,2.29,8.4,2.35,13.61,7C423.17,49.31,426.16,51.54,429.06,53.88ZM400.8,671.67c-9.1-2.68-18.8,2.7-19.85,11ZM595.08,774.93c7.21,3.05,11.43,2.73,14.81-1.46-2.42-.93-4.7-1.85-7-2.69C597.38,768.74,596.86,769,595.08,774.93ZM385,803.56c-3.14-4.36-5.49-7.6-8.54-11.83l-4.89,8.19c2.33.9,4.61,2,7,2.67A53,53,0,0,0,385,803.56Zm275.27,15.69-15.63-2.73C651.82,828.25,651.62,827.61,660.28,819.25ZM565,533l-1.09,1,7.72,11.68c5-3.84,5.67-5.58,3.16-7.22C571.66,536.49,568.27,534.85,565,533Zm56.07,381.53-16.5,8.18C617.63,922.37,622.1,923.06,621.06,914.56Zm-44.61-9.31,1,.37A76.11,76.11,0,0,0,581,897a5.18,5.18,0,0,0-1-4.34c-1.22-1.22-3.27-1.6-5.81-2.71C575.12,896.1,575.78,900.68,576.45,905.25Zm15.18-361.34,1.84,1.67,11.34-12.5-1.24-1.14C600.3,536.6,592.28,536.76,591.63,543.91Zm-1.51,189.15c7.4-3.31,11.73-6.78,5.25-12.22-1.08,2.3-2.15,4.5-3.14,6.74C591.57,729.08,591.05,730.64,590.12,733.06ZM443.21,49.14c-5.34,9.13-3.79,12.85,6.4,13C441.55,60,445.29,53.48,443.21,49.14Zm-98.93,752c-.75,3.15-1.5,6.31-2.29,9.67C348.35,810.72,348.94,808.53,344.28,801.17Zm259.14-43L589,761.59C596.72,764.69,598.36,764.29,603.42,758.21Zm64.12,23.34c-4.59-4.26-6.59-3.24-8.69,4.4Z"/><path class="c" d="M348,5c-1,4.53-1.24,9.48-3.3,13.47-2.4,4.63-2.63,8.68-.81,13.28a22,22,0,0,1,.7,4.5l-4.91.82c-1.51,4.62-.3,7.89,3.48,11.31C349.41,54,355.42,60,354.19,70c-.58,4.77.95,9.78,1,14.69,0,2-1.48,4-1.93,6.09-.35,1.67-.84,3.88-.08,5.12,2,3.22,1.31,5.67-.38,8.75a9.81,9.81,0,0,0-.39,6.85c.79,2.64,2.66,5,4.12,7.38,5.38,8.94,4.33,20.74-2.47,27.56S348,160.09,356,167c.87.74,1.75,1.45,2.65,2.19-6,5.52-7.06,11.3-2.92,18.17A11.49,11.49,0,0,1,357,197.78a12.72,12.72,0,0,0-.74,6.34c.86,4.21,2.67,8.26-1.64,11.8-.56.47-.09,2.54.3,3.74a73.22,73.22,0,0,0,2.77,7c3.23,7.31,5.93,14.5.22,22-1,1.31-.85,3.93-.45,5.78,1.54,7.2,2.09,14.57,8.28,20.27,4.83,4.45,2.89,12.82-2.65,16.17-3,1.83-7,3-5,8.05.14.37-1.19,1.31-2.32,2.5,7.39,2.33,10.91,7.56,12.66,14.8L358.73,319l9.79,14.22,3.5-6.66,2,.94c-.46,3.05-.15,6.53-1.58,9s-4.66,4.35-7.14,6.5c7.25,3.2,10.2,9.81,8.14,19.68-1.6,7.7-1.83,15.18.89,22.61a15.05,15.05,0,0,0,2.46,4.82c2.67,3,5.58,6,10.24,2.28l.38,1.25L367,406.8c9.43,5.33,5.23,14.56,7.44,21.84,2.45,8.08,1.77,8.28-4.58,12.44,1.27,4.73,1.27,4.73-4.24,11.29a48,48,0,0,1,4.21,3.2c3.8,3.62,7.36,7.5,11.29,11,3.4,3,7.17,5.61,11.34,8.81l-7.17,4.32c6.9,3.38,18.35,1.11,22.73-4.46,1.44-1.84,3.11-4.17-.95-5.11-7.24-1.69-8.44-2.65-12.42-11,3.67,1.72,6.58,3,9.44,4.43,6.54,3.22,7.34,3.09,13.85-3-2.52-2.28-4.92-4.63-7.52-6.71a16.25,16.25,0,0,0-4.07-1.87c-11.64-4.77-9.66-6.91-16.95,6.26-.39.71-.81,1.41-1.22,2.12l-1.25-.52c1.34-3.4,2.13-7.17,4.16-10.09a40.77,40.77,0,0,1,8.55-8.34c3.28-2.58,6-4.7,4.95-9.79-.37-1.78,2.74-4.28,4.72-7.1-3.67-1.35-7.4-3.05-11.32-4-1.2-.29-3.29,1.16-4.27,2.39-1.75,2.19-2.72,5-4.47,7.18-1.09,1.35-3,2-5.45,2.61,4.15-6.41,3.13-12.09-1.9-17.89,9.45-1.26,18.24,3.45,27.41-1.5l-10-10.89,8.36-5.18a32.15,32.15,0,0,0-2.28-3.29c-4.61-5.08-4.89-5.36,0-9.65,4.25-3.72,3.48-7.36,1.49-11.59-1.33-2.8-3.06-5.88,2.18-7.48-2.69-3.37-5.47-6.27-7.49-9.62-1.12-1.85-2.09-5.11-1.2-6.6,2.35-4,3.27-7.16-.85-10.71l9.61,1.27c.11-.42.21-.84.31-1.26l-12.64-3.18,15.4-4.89-.05-.71L384,327.6v-1.33c4.32-.75,8.64-1.59,13-2.23,3-.44,4.88-1.13,4.46-5-.52-4.71,3.41-6.35,6.93-8,1.77-.83,3.5-1.74,5.25-2.61-.14-.49-.29-1-.43-1.47-1.51,0-3.17-.4-4.51.08-5,1.77-7.48-.33-8.67-5-1-4-3.15-7-7.72-7.83,4.33,0,8.8-.68,13,.18s8.24,3.28,12.33,5c3.44-7,1.87-12.26-4.67-16.22,3.23-2.89,6.62-15.27,4.71-19-.74-1.46-2.92-2.53-4.67-3.06-4.93-1.5-10-2.61-15-3.91a16.6,16.6,0,0,1-2.38-1.37c3-.37,4.82-.63,6.68-.84,5.17-.59,6.1-1.83,5-6.77a8,8,0,0,1-.41-2c.07-1.87.27-3.73.42-5.59,2.59.21,5.37-.06,7.69.85,1,.38,1.33,3.26,1.32,5a52.28,52.28,0,0,1-.94,7.3l1.27,1.22c3.31-2.64,8.48-4.7,9.51-8a28.15,28.15,0,0,0-.54-18.95l-1.34.07v2.8c-9.52.31-19,1.48-26.35,9.75,1.51-5.42.24-8.24-4.89-8.93-.58-.07-1.44-2.18-1.24-3.15a65.89,65.89,0,0,1,2.86-10.08,97.84,97.84,0,0,1,5.72-12.54c.82-1.46,2.91-2.56,4.65-3.1,10.88-3.39,15.08-.32,15.93,11.42.07,1,0,1.94,0,4.24l11.46-6.94c-2.11-4.11-4.38-7.61-5.65-11.44-.61-1.81-.08-5.06,1.22-6.3,8-7.58,6.58-16.8,5.15-26a42.39,42.39,0,0,0-2.25-8.18C429,154.5,428.28,149.73,432,145c1-1.21.93-3.53.74-5.28-1.11-10.23-2.26-20.47-3.68-30.67-1.35-9.7-3-19.37-4.62-29-1.09-6.38-2.45-12.72-3.77-19.51A8.44,8.44,0,0,1,430,62.45c2.4,2.29,5,4.34,7.5,6.57,5.4,4.89,5.38,4.91,12.09,3.8,3.72,7.34,6.23,14.87,5.61,23.37-.19,2.67,1.7,5.5,2.68,8.24,1.19,3.31,2.24,6.69,3.74,9.86a7.56,7.56,0,0,0,3.48,3.34c1.86.84,4,1,6.1,1.45-2.32,5.84-4.56,11.07-6.43,16.43a9.28,9.28,0,0,0-.08,5.35c1.48,5.08,4,9.95,4.74,15.11.38,2.76-1.7,6.22-3.45,8.85-2.53,3.8-4,6.6-1.07,11.44,2.59,4.35,3,10.12,3.86,15.35q2.64,15.7,4.7,31.52a40.38,40.38,0,0,1,.06,10.42c-.77,6.07-1,11.77,2.72,17.23,2.64,3.84,1.15,11.57-3.28,14.25-6,3.64-6.92,8.79-5.78,14.55a76.63,76.63,0,0,0,5.11,15.56c.63,1.43,3.54,2,5.52,2.65a36.77,36.77,0,0,0,5.67.87l.3,1.28c-2.1,1.11-4.24,2.18-6.31,3.35-4.18,2.37-4.35,5.66-.63,8.49a4.48,4.48,0,0,1,1.86,2.86c-.05,10.23-.1,10.23,3.36,17.17a11.48,11.48,0,0,1-2,1.26c-7,2.83-6.72,2.81-6.47,10.45.08,2.37-1.49,5-2.82,7.17-4.47,7.38-4.56,7.34,2.27,12.66l12,9.34L476.19,379l7.32,8.55a16.21,16.21,0,0,0-2.85,19.4c2.84,5.13,1.69,8.53-2.23,12.25-2.31,2.2-3.78,5.28-5.62,8l1.33,1.5,8.93-2.24c-.39,1.2-.4,2.11-.86,2.55-5.36,5.17-5.85,11.25-3.46,17.89,1.8,5,1.16,9.73-1,14.51-2.5,5.44-4.42,11.16-7,16.57-1.72,3.63-1.53,6.64,1,9.67,2.09,2.48,2.36,4.7-.21,7.39-6.35,6.66-6.23,6.77,1.27,11.45a15.38,15.38,0,0,1,1.8,1.63c-.95,1.22-2.13,2.24-2.61,3.51s-.94,3.23-.35,4.29c4,7.14,2.78,15.45-3.78,20.33-3.81,2.84-4.3,4.32-.14,7.62,6.54,5.19,7.29,12.38,3.36,21.72a48,48,0,0,1-3.57,6.57c-3.2,5.18-3.71,10.3.17,15.34,2.26,2.93,2.78,5.93,1,9.29-.7,1.31-1,2.86-1.7,4.15-3.48,6.13-3.27,11.72,1.11,17.58,3.89,5.2,3.42,10.88.88,17-2,4.72-2.58,10.19-2.81,15.37-.21,4.52-1.6,6.58-6.19,7.16-9.08,1.15-18.26,2.27-26.13,7.57-1.36.91-2.27,2.48-3.38,3.74,1.76.24,3.75,1.14,5.23.6,7.14-2.58,14.13-5.55,21.34-8.45,1.67,3.58-4.54,10.4,5,9.78-.53,1-.67,1.85-1.12,2.08-6.64,3.43-6.12,8.41-3.62,14.31,2,4.72,3.18,9.78,4.86,14.64,1.4,4.06.42,7-3.24,9.38-1.75,1.13-3,3-5.11,5l10.45,4.78-7.82,6.61c-1.77-1.84-3.91-5.41-5.14-5.12-4.08,1-7.82,3.32-12,5.3,1.38,2.33,2.41,4.06,3.85,6.47l6.42-.6.5,1.16-9.56,7v1.74L461,749.83l-19.57,7.49c3.19,8.16-1.46,13.43-9.76,13.09-4.52-.18-9.12,1.46-13.66,2.37-2.74.55-5.44,1.26-8.78,2.05,4.74-6.42,12-5.88,19-8.39-3.72-3.11-6.48-5.65-9.48-7.87-2.26-1.67-2.47-3-.67-5.26,2.26-2.88,5.32-6.07,5.63-9.36.7-7.45,1.66-15.24-4.13-21.85-2.73-3.12-4.34-7.22-6.46-10.87,3.79-1.61,7.57-3.24,11.36-4.84a25.68,25.68,0,0,1,2.83-1c2.93-.84,3.73-2.26,1.93-5.09-3.07-4.84-6.11-9.47-12.27-10.95-4.48-1.08-4.6-3.46-2.21-7.32,1.67-2.71,1.55-6.47,2.69-9.58a75.41,75.41,0,0,1,4.23-8.61c1.18-2.24,2.46-4.43,3.69-6.65a62.6,62.6,0,0,0-7-3.43c-5.05-1.75-10.21-3.19-15.79-4.89L414.6,630c-7.44-1.17-13.63-3.92-19.43.07-8.83,6.08-18.4,7.79-28.88,7.1-5.66-.37-8.59,5.28-13.15,7.55.57,1.08.86,2.54,1.75,3.18a76.59,76.59,0,0,0,7.24,4.16,77.32,77.32,0,0,1,6.73-5.27c1.87-1.19,5-3,6.06-2.29,2.06,1.41,3.05,4.37,4.37,6.49-5.63.92-10.11,1.54-14.55,2.41-4.13.82-3.8,3.74-3.21,7s1.65,4.63,5.27,3.88c6.78-1.39,13.66-2.34,20.25-3.43-2.65,5.55-7.18,6.38-13,5.16-2.31-.49-5,1.3-7.57,1.53-4.3.4-8.63.5-12.95.5-3.56,0-5,1.78-4.27,5a3.9,3.9,0,0,0,3.23,2.07c10.79-2.52,10.77-2.59,16.11,6.88,3.42,6.07.58,12-6.18,13.16-4.51.74-9,1.62-13.82,2.5,5.2,6.39,13.92,8.27,20.07,4.65,2.94-1.73,5.16-2.3,7.57,1.15.89,1.27,3.8,1.33,5.84,1.55a61.82,61.82,0,0,0,6.81.06l.41,1.93-29.71,11.14,11.26,5.13v1.48c-6.91,1.07-13.8,2.72-20.75,3-6.25.27-6.75-.08-9.71,7.52,3.71.46,7.28,1.72,10.52,1.15,11.58-2,23.08-2.73,34.66-.28,1.41.29,2.8.74,4.44,1.18-1.5,5.2-5,7.28-9.54,8.09-3.53.64-6.31,2.16-5.25,6.23,1,3.76-1.21,9.87,6.31,9.56,2.29-.09,4.61.67,6.92.87,4.41.37,4.57,3.89,4.76,6.92,0,.44-3.75,1.77-5.63,1.54-3.74-.46-7.35-1.9-11.07-2.57-1.43-.26-3.54,0-4.48.84a110.24,110.24,0,0,0-8.64,9.66c-.47.57-.49,2.42-.17,2.58,1.38.68,3.54,1.8,4.37,1.23,5.81-4,10.35.08,15.31,1.39l.51,1.6c-1.82.93-3.56,2.18-5.5,2.74-5.4,1.56-10.83,3.56-16.35,4-5.21.42-10.56-.93-15.85-1.5,0-.65,0-1.3.05-2l9.89-1.92c-3.8-4.09-6.21-4.74-10.27-1.68a169.62,169.62,0,0,0-13,11.42c-2.29,2.13-2.1,4.47-.35,7.15,3.61,5.54,8.36,10.93,9.89,17.06,1.42,5.68,1.09,11.56,6.2,15.71.21.18-.57,2-1.27,2.77a37.15,37.15,0,0,1-3.89,3.12c-3,2.44-1.64,5.37-.15,7.6.7,1,3.51,1.53,5,1.06,6.49-2.09,12.85-4.61,19.26-7,5.8-2.13,7.63-1.65,12.64,3.69-1.78,1.43-3.35,3.15-5.3,4.17-5.61,2.94-7.69,7.62-8.23,13.7s-2.19,6.55-8.2,2.76l5.59-6.7-.27-1.67c-2.19,0-4.53-.47-6.54.13a19.92,19.92,0,0,0-6.47,3.69,4.51,4.51,0,0,0-1.34,3.66c.46,2.56,1.07,5.35,2.52,7.4.93,1.3,3.55,2.14,5.3,2,4.92-.44,9.79-1.5,16.11-2.55-4,4.65-7,8.52-10.44,11.94a22.19,22.19,0,0,0-6.78,14.12l11.65-1.66-11.6,12.92-1.65-.35c0-2.86-.06-5.73,0-8.59.11-4-2.51-5.67-5.35-3.87A43,43,0,0,0,338,908.4c-1.72,2.2,4.5,8.37,8.55,8.53s8.33.06,12.49.11c2.3,0,3.8.57,3.29,3.55-1.08,6.42,1,8.43,7.76,7.92.47,0,.95,0,2.64.12a50.84,50.84,0,0,0-4.42,3.92c-1.5,1.71-3.75,3.52-3.94,5.45-.41,4.36-2.61,5.18-6.3,5-4.16-.16-8.33,0-12.5,0-3.13-.06-4.62,1.3-4.54,4.48.08,2.83.12,5.67,0,8.5-.22,4.14.14,7.57,5.31,8.59,1.33.26,2.88,2.4,3.27,3.94,2.11,8.32,6.19,14.92,14.22,18.75,3.17,1.51,3.94,4.25,3,6.6L346,997c-1.44-7.13-2.82-14.27-4.35-21.37-2.93-13.6-6.69-27.07-8.78-40.8-4.44-29.08-8.44-58.24-11.81-87.47-2.65-23.09-4.38-46.3-6-69.5-1.14-16.41-1.47-32.88-2-49.33-.75-21.78-1.25-43.56-2.09-65.33q-1.25-32.13-3-64.25c-1.12-20.57-2.58-41.12-3.84-61.67-.41-6.64-.68-13.28-1-19.92-.7-14.11-1.32-28.23-2.13-42.33-.46-8-1.43-15.88-1.83-23.84-.55-10.76-.87-21.54-1.09-32.31-.2-10.41.08-20.82-.27-31.22-.3-9.06-1.35-18.09-1.74-27.16-.8-18.89-1.34-37.79-2.05-56.68-.7-18.57-1.52-37.14-2.21-55.72-.64-17.09-1.63-34.19-1.68-51.29A505.2,505.2,0,0,1,301.43,87.37c3.43-15.71,7.45-31.3,10.82-47,1.55-7.24,2-14.69,3.26-22a94,94,0,0,1,3.19-13c.95-3,3.53-3.48,6.54-3.07C332.81,3.3,340.41,4.1,348,5Zm32.12,586.79c-7,.36-8.47,3.88-8.39,9.34,0,3.84-3.56,4.58-7.05,5.06-.44-2.09-.84-4-1.43-6.71-6.23,5.17-12,9.81-17.53,14.75-.64.57-.39,3.22.37,4.11,6.17,7.13,8.94,7,13.93-1,2.25-3.58,4.52-4.73,8.61-2.81,2.8,1.32,6.08,1.59,9.51,2.42-.15,4.09,1.63,8.85,6.51,9.51,6,.82,12.32-.33,19-.66-.74-2.22-.88-3.44-1.49-4.34-3.53-5.15-3.58-9.69,1.53-14a5.21,5.21,0,0,0,1-4.8c-3.18-6.74-2.37-12.82,1.92-18.72a62.09,62.09,0,0,0,3.29-5.73c-1.36-.53-2.14-1.14-2.82-1.05-7.43.91-13.51-2.89-19.91-5.56-4.25-1.78-5.8-.89-7,3.69-.87,3.3-2.13,6.49-3.53,10.68C377.14,586.75,378.3,588.7,380.12,591.79Zm11.93-50.64-2-.09c-.4,1.68-.89,3.35-1.19,5.06-1.29,7.41-3.19,8.43-10,5.29a19.38,19.38,0,0,0-3.64-1.58,3.11,3.11,0,0,0-2.58.65c-2.42,2.86-.22,10.59,3.35,11.13,5.77.88,10.16,3.76,14.08,7.82a19.43,19.43,0,0,0,3.68,2.47C393.16,561.4,392.61,551.27,392.05,541.15ZM368.84,741.68c-5.62-5.77-15.08-6.56-20.07-1.8-1.34,1.28-1,4.85-.58,7.2.19,1.08,2.43,1.9,3.85,2.6,2.18,1.08,4.53,1.83,6.66,3,1.12.61,1.94,1.78,3.47,3.25C364,750.27,360.68,743.5,368.84,741.68Zm81.57-34.16c-2.63-3.49-4.34-7.71-7.43-9.41-5.49-3-9.05-6.84-10.51-12.81-.05-.18-.57-.25-1.2-.51-6.72,6.37-.2,11.85,1.54,17.39C434.23,706.7,441.62,708.82,450.41,707.52ZM322.33,44.78l-.93,1c2.1,3.5,3.85,7.31,6.48,10.37,1,1.19,4,.69,6.1,1-.43-2-.18-4.74-1.41-5.78C329.51,48.74,325.79,46.92,322.33,44.78Zm28.54,619.5,1.16-.86c-.79-2.58-1.24-5.34-2.51-7.66-.55-1-2.75-1.53-4.22-1.54-1,0-2.76,1.2-2.8,1.95a5.13,5.13,0,0,0,1.62,3.72A65.07,65.07,0,0,0,350.87,664.28ZM419.42,378.2c-5.89,7.11-5.53,8.45,5.55,14Zm-81.24,130,15.45-1.41C346.76,500.93,343.62,501.14,338.18,508.21Zm4.31,374.68c-.6,4.88-1.05,8.57-1.51,12.27C345,892,347.64,888.72,342.49,882.89Zm87.88-235.67c4.16,5.56,10.07,4.61,15.73,4.58ZM335,620.8c3.54-.67,6.45-1.92,7.52-4.93l-1.61-1.52Z"/><path class="d" d="M502.06,324.09l-.18-4.36c.31-5.7.62-11.41,1-18.13l2.14,2.9c0-12.28-.18-25.06.08-37.83.12-5.61,1.13-11.19,1.74-16.78.55-4.24,1.18-8.48,1.62-12.73.91-8.76,2.3-17.53,2.36-26.31,0-6.35-1.75-12.71-2.71-19.07-.34-2.29-1.22-4.68-.84-6.85,2-11.31,4.25-22.56,6.47-33.82,1.44-7.28,3-14.54,4.66-22.88,2.92,2,5.62,4.35,8.76,5.76,5.92,2.67,7.42,6.93,7,13.12-.3,4.7,1.38,9.49,1.56,14.26a39.6,39.6,0,0,1-1.08,12c-1,3.7-1.91,7,.12,10.53,2.39,4.11,1.72,8,.11,12.36s-2.18,9.24-2.82,13.94c-.4,2.94,0,6-.09,9-.17,7-.58,14-5.11,19.92-2.15,2.82-1.43,4.58,1.68,6.22,7,3.67,7,3.82,4.62,11.46-1.12,3.59-1.72,6.69,2,9.32.67.48.61,3.14-.07,4.16a109.29,109.29,0,0,1-7.33,9.47c-2.31,2.79-1.78,4.82,1.41,6.27,2.27,1,4.62,1.91,6.86,3,8.2,4.06,8.93,11.52,1.73,17.14-1.55,1.2-3,2.51-5.71,4.76,5.3,2.58,9.29,4.79,13.5,6.4,1.06.4,3.12-.78,4.26-1.77,6.93-6,13.65-12.17,20.61-18.1,2.14-1.82,2.36-3.39.87-5.52-.48-.68-.92-1.39-1.38-2.09-3.95-6.1-3.85-6.48,2.55-10.11a17.77,17.77,0,0,0,2.08-1.37c.23-.18.31-.56.79-1.46l-7.7-3.12c2.63-4.51,6.33-8.31,7-12.57,1-6.21-7.23-5.16-9.93-9.38a8.07,8.07,0,0,1,.89-2.09c6.15-7.77,6.32-15.88,1.66-24.41a3.16,3.16,0,0,1,.54-3c4.5-3.43,3.79-8,2.37-12.26-1-3.11,0-4.26,2.59-5.22a42.6,42.6,0,0,0,7.31-3.2c1.34-.8,3.26-2.84,3-3.64a8.3,8.3,0,0,0-3.87-3.85c-2.12-1.16-6.42-1.53-6.53-2.59a17.63,17.63,0,0,1,1.75-9.39c2.65-5.29,3-5.13-3.22-7.34-5.1-1.81-6.48-5.69-2.71-9.22,1.56-1.47,4.67-1.27,8.83-2.24l-7.17-3.31,16.08-12.18-13.55-2.64c4.42-4.69,8.06-8.56,12.47-13.26-4.11-1.44-7.26-2.82-10.55-3.63-5.1-1.25-5.61-5.62-5.91-9.35-.13-1.73,2.52-4.14,4.44-5.49,5.15-3.63,10.52-7,16-10.14,1.38-.8,3.44-.79,5.13-.61,3.15.32,4.6-.71,4.86-4,.36-4.63,6.82-8.79,11.11-7.22,3,1.08,2.75,3.09.68,4.94-3,2.65-6,5.25-9.19,7.68-2.46,1.9-2.64,3.84-1.2,6.48,2.37,4.37,5.1,8.71,6.47,13.41.82,2.79-.56,6.28-1.2,9.41-.18.84-1.26,1.5-2,2.22-5.87,6.1-6,6.22-.69,12.57,2.37,2.83,3.38,5.58,2.38,9.14a8,8,0,0,0-.35,3.94c1.24,4.87.14,8.32-4.14,11.57-3.91,3-4.09,13.39-1.73,18,.54,1-.13,3.19-.93,4.35-2.7,3.87-5.84,7.43-8.55,11.29-1.87,2.66-1.27,4.83,2.29,5.27,4.37.54,5.13,2.5,3.46,6.49-2.87,6.87-2.68,7,4.07,9.66,5.33,2.15,6.25,5.38,2.85,10-.59.81-1.19,1.61-1.77,2.42-3.3,4.57-3.3,4.57,2,9.35l-12.59,2.23c7,5.64,7.14,5.71,2.86,13.06-2.11,3.63-1.44,6.36,1,9.51,5,6.39,4.73,6.63-1.56,11.88-2,1.63-3.28,4-4.9,6l1.22,1.33L595,291c-3.73,8.66-.37,16.15,1.78,23.6,1.41,4.88.27,7.55-4.38,9.24s-9.07,3.66-13.6,5.5c0,.59,0,1.17-.07,1.76,4.32,1.29,8.57,3,13,3.75,4.62.75,5.08,2.56,4.06,6.8-1.78,7.42-8.74,10.54-12.57,16.24-1,1.47-5.27.91-8.05.94-1.94,0-3.88-.54-6,0,4.06.91,8.08,2,12.18,2.67s8.55,1,12.93,1.44c-.5,2.93-.31,5.8-1.53,7.83a9.45,9.45,0,0,1-5.78,4.14c-6.46,1-11.65,3.25-14.92,9.35-1.46,2.74-1.65,4.55,1,6.29.7.45,1.65.9,1.9,1.57.76,2.06,1.78,4.28,1.6,6.34-.09,1-2.51,2.09-4.06,2.64a46.15,46.15,0,0,1-6.2,1.38c-.39,6.42,1.36,8.79,10.2,13.63a19.33,19.33,0,0,0-1.73,3.83c-1.11,5.09-2.13,10.19-3,15.33-.49,2.93-.66,5.92-.89,8.89-.36,4.59-.41,9.22-1,13.77a66.26,66.26,0,0,1-2.64,10.51,57.49,57.49,0,0,1-3.13,6.65l8.9-.49c-4.12,19.88-2.14,17.81,4,21.88L561.67,509.3l9.24,5.55c0,.45-.08.89-.13,1.34-2.48.35-5,.73-7.46,1-4,.51-6,2.31-4.89,6.73.87,3.41,1.31,6.87-1.93,9.7-.58.51-.4,2.51.09,3.49a27.32,27.32,0,0,0,3.3,4.36c2.26,2.84,2.42,5.07-1.66,6.27-1.73.5-3.39,1.23-5.85,2.15,1.44,2.16,3,3.74,3.62,5.63.86,2.52,1,5.28,1.47,7.93-2.18,0-4.36,0-6.54,0-1.28-.06-2.55-.34-4.3-.59,2,7.54,6,11.76,14.06,11.27-.08,1.83-.14,3.17-.27,5.86H576.3c8,0,8.36.57,5.75,8.26-.46,1.36-1.14,2.65-1.89,4.36-4-3.59-7.21-8-11.46-9.68s-9.37-.34-15-.34c1.28,2.51,2,3.89,2.7,5.33-2.56,3-5.09,2.94-8.49,1.49-3-1.29-6.56-1.48-9.91-1.88-5.25-.61-10.53-1-15.79-1.47q-1-18.6-2-37.22c.92-6.69,2.65-13.39,2.61-20.08-.09-13.89-.87-27.8-1.86-41.66-.48-6.8,1-11.7,8.12-13.66a10,10,0,0,0,2.34-1.48l-.22-.84-15.06.9c-.31-3-.61-6.09-.92-9.14,4.56-2.73,2.86-7.59,3.72-11.5.8-3.67-.9-6.36-4.74-7.34q-.51-5.55-1-11.1c4.15.13,5.25-2.06,4.4-5.77-.37-1.62-.53-3.3-1-4.89-1-3.52-.24-6.08,3.21-7.87,2.45-1.27,4.65-3,8-5.28-2.89-.7-4.56-1.4-6.26-1.45-6.29-.2-10.37-2.61-10.4-9.55q-.5-3.64-1-7.3c1.8-7.39,3.74-14.76,5.3-22.21a12,12,0,0,0-.62-6.29c-1.68-4.51-3.8-8.85-5.75-13.26-1.44-9.7-2.88-19.39-4.37-29.44C503.7,321.35,502.88,322.72,502.06,324.09Z"/><path class="e" d="M522.15,598.94a10.11,10.11,0,0,0,2.48-.18c7.66-2.55,14.55-1,21.36,3.12,4.83,2.94,5.28,2.35,6.12-3.08.25-1.59,1.2-3.92,2.39-4.36,4.61-1.69,9.45-2.75,15.66-4.45l-6,10.38,10.18,1,.33,1c-1.83.78-3.63,1.65-5.5,2.31-3.14,1.09-6.43,1.83-9.48,3.13-2.89,1.23-5.15,3.28-4.26,7s-1.18,4.66-4.19,5.3a129.55,129.55,0,0,0-16.36,4.42c8.71-1.74,17.17-2.3,26.05,4.2-11.61,2.6-17.35,11.69-24.44,19.79a11.83,11.83,0,0,0,1.71,1.95c5.32,4.34,5.36,4.8.44,9.36-.85.79-1.77,1.51-2.69,2.22-7.85,6-8.49,13.36-1.42,20.46.87.87,4,.6,5.31-.27,3.38-2.25,6.33-5.14,10.4-8.55.39,2.82.32,4.48.88,5.89.94,2.37,1.78,5.14,3.56,6.77,6.18,5.7,6.52,6.75,2,15.2-1.91-1.27-3.84-2.45-5.64-3.79-5.64-4.15-12.26-2.06-13.65,4.85-.95,4.68-.8,9.6-.8,14.42,0,1,1.28,2.34,2.32,2.87,3.14,1.62,2.66,3.83,2.15,6.74a67.26,67.26,0,0,0-1.13,14.08c.21,5.8,1.46,11.55,1.77,17.35a8.77,8.77,0,0,1-2.18,5.73c-2.32,2.54-2.56,4.84-.85,7.63.6,1,.92,2.17,1.59,3.1,3,4.18,2.69,7.85-1.15,11.41-3,2.83-4.27,6.36-4.28,10.71a32.26,32.26,0,0,0,5.31,18.3c.79,1.15,1,3.9.17,4.8-6.39,7.16-3.78,14.91-2.06,22.71,2.13,9.65,3.87,19.31-1.39,28.61-1.19-9.7-2.77-19.38-3.5-29.12q-2.52-34-4.34-68.11c-.9-16.26-1.39-32.54-2-48.82q-1.56-40.86-3.07-81.71C523.39,628.49,522.75,613.71,522.15,598.94Z"/><path class="e" d="M471.05,13.09c.7,1.81,1.41,3.62,2.16,5.55-8.8-4.44-10.13-4.36-21.53,1.85,2.91,2,5.07,4.26,7.7,5.15,3.08,1,3.39,2.36,2.58,5.11-2.09,7.07-2.31,7.14-8.61,6.36-4-.5-5.32-2.38-5.4-6.23-.21-11-.3-10.87-11.64-9.33-4,.55-8.14.09-13.11.09,1.83,3.4,3.36,6.22,4.89,9.05l-1.11.67c-1.74-3-3.6-5.85-5.2-8.88-3.1-5.89-3-5.91-8.67-2.11a28.08,28.08,0,0,1-2.91,1.49c1-4.3,1.9-8.06,2.78-11.83,6.59.64,13.16,1.56,19.76,1.86C445.5,12.47,458.28,12.71,471.05,13.09Z"/><path class="f" d="M539.15,894.93l12.17,3.43c.32.66.63,1.32.94,2-1.16.58-2.74.86-3.42,1.79-1.51,2.09-3.26,4.39-3.69,6.81-.79,4.5-.67,9.06,6.34,7.25a3.88,3.88,0,0,1,2.76.89c6.33,4.71,12.6,9.5,19.7,14.89-2.83-.19-4.87-.49-6.9-.42-4.94.15-9.89.29-14.78.87-1,.11-2.61,2.91-2.37,3.21,4.49,5.62-.89,6.43-3.92,8.37a22.71,22.71,0,0,1-1.39-4.2c-1.88-13.95-3.67-27.92-5.45-41.88A21.32,21.32,0,0,1,539.15,894.93Z"/><path class="g" d="M516.08,472l15.06-.9.22.84a10,10,0,0,1-2.34,1.48c-7.13,2-8.6,6.86-8.12,13.66,1,13.86,1.77,27.77,1.86,41.66,0,6.69-1.69,13.39-2.61,20.08q-1.59-28.76-3.18-57.5C516.62,484.92,516.37,478.47,516.08,472Z"/><path class="g" d="M511.15,398.14c0,6.94,4.11,9.35,10.4,9.55,1.7.05,3.37.75,6.26,1.45-3.4,2.25-5.6,4-8,5.28-3.45,1.79-4.23,4.35-3.21,7.87.46,1.59.62,3.27,1,4.89.85,3.71-.25,5.9-4.4,5.77Q512.14,415.55,511.15,398.14Z"/><path class="g" d="M509.08,349.08c1.95,4.41,4.07,8.75,5.75,13.26a12,12,0,0,1,.62,6.29c-1.56,7.45-3.5,14.82-5.3,22.21-.7-10.52-1.53-21-2-31.57C508,355.89,508.74,352.47,509.08,349.08Z"/><path class="h" d="M385,8.12c-2.54,1.52-4.95,3.35-7.65,4.49-7.21,3.05-8.08,2.4-8.43-5.48Z"/><path class="i" d="M514.14,444.05c3.84,1,5.54,3.67,4.74,7.34-.86,3.91.84,8.77-3.72,11.5Z"/><path class="j" d="M646.87,580.21c-5.71-5.36-30.64-16.77-36.48-17.08-2.42-.12-4.87.33-7.68-.21a47.11,47.11,0,0,1,6-2.5c2.89-.8,5.88-1.21,8.81-1.81,6.55-1.34,6.55-1.35,8.41-8,2.1.83,4.19,1.54,6.19,2.46,3.16,1.46,5.65.35,6.09-2.7.21-1.41-2.21-4.53-3.54-4.59-5.26-.23-10.56.5-15.84.76-2.13.11-4.39.35-6.37-.24-2.44-.73-3.88-2-3.1-5.55.83-3.7-.17-7.81-.38-11.73,3.68-1.34,7.43-2.3,10.74-4.09,1.45-.79,2-3.26,2.95-5-1.59-.41-3.18-1.14-4.77-1.14-3.56,0-7.12.38-11.08-.32l11-8.78c-5.14-2.67-5.79-5.51-3.2-10,1.18-2.06-.19-5.58-.45-9l11.64,2.44c-1.2-3.68-2.09-6.42-3.07-9.46l7.23-3.79c-.22-.76-.25-1.3-.41-1.34-5.67-1.36-4.9-4.23-4.45-9.52.71-8.32,4-12.29,11.41-14.31,2.87-.79,3.07-2.89,1.19-5-3.79-4.16-7.55-8.38-11.65-12.24-2.7-2.53-3.2-4.18.06-6.65,3.66-2.77,6.92-6.08,11.15-9.86-10.26-4.06-8-12.89-9.38-20.45-1.78-9.63,3.29-14.4,11.37-16.5-.19-1.41-.11-1.88-.29-2-10.17-8.29-5.54-18.18-3-27.83a16.36,16.36,0,0,1,.74-1.86c3.74-9.63,3.74-9.62-4.35-15.79a11.28,11.28,0,0,1-1.59-2l16.63-5.82-.24-1.87-12.36-3,9.12-8.64L630.43,306l18.16-8.85-13.14-5.21,14-9.05c-4.3-3.21-8.23-6-12-9-3.11-2.41-3.54-4.45,0-7.51,1.8-1.57,2.52-5.32,2.35-8a100.09,100.09,0,0,0-2.64-17.74c-2.06-8.27-1.7-16.24-.42-24.66C639.39,198.09,640.93,180,643,162c.32-2.8,1.24-5.54,1.44-8.34.13-1.85.13-4.46-1-5.49-2.81-2.64-2.36-5.51-2.17-8.72.27-4.62-.19-9.29.15-13.9.57-7.92,1.61-15.81,2.28-23.72.37-4.26.4-8.55.54-12.82,0-1.49-.46-3.12,0-4.46a23.38,23.38,0,0,0-1.2-18.41c-.54-1.11.19-4,1.19-4.55a84.89,84.89,0,0,1,17.8-7.84A31.35,31.35,0,0,1,660.51,59c-1.85,3.8-1.07,6.34,3,7.78s6.33,4,7.47,8.46c1.29,5,.14,7.65-6.42,8.57,6.87,4.74,16.27,5.31,16.4,15.38-.75.29-1.66.57-2.52,1-2.58,1.22-7.33-.46-7.26,4.3.08,5.49-2.59,11.9,3.91,15.91,1.42.87,2.75,1.88,4.19,2.71,7.12,4.1,8.53,8.15,5.47,17.58-2.12-1.54-4.1-2.86-5.94-4.36-3.47-2.81-4.87-2.52-6.61,1.64-.51,1.22-.87,2.51-1.3,3.78-2.92,8.69-2.87,8.41,5.94,10.06,5.9,1.1,6.6-2.74,7.33-7.06l1.76.8c-1.61,5.22-2,11.38-5.12,15.42-4.24,5.49-5.67,10.41-2.68,16.39,2.55,5.1,1.13,8.47-3.6,11-.78.43-1.25,1.42-1.79,2.07.28.55.35,1,.58,1.11,6.13,3.29,6.14,3.32,2.5,9.59-.33.58-.72,1.12-1.06,1.69-3.26,5.41-3.1,5.93,2.54,8.3,1.23.52,2.85.7,3.61,1.61a13.71,13.71,0,0,1,3.2,5.78c.15.83-2.21,2.54-3.71,3.2-4.35,1.89-8.84,3.45-13.37,5.91,8.54,1.27,15.53,4.62,21,12.23-2.28.9-4.14,1.7-6.05,2.38-6.38,2.26-7.32,5.12-3.34,10.31a4.39,4.39,0,0,0,.58.81c5,3.88,4.54,7.73,1,12.65-4.21,5.77-3.79,6,2.29,9.79,1.37.84,2.6,1.89,4.49,3.27l-7.61,6.36c-3.19,2.67-4.13,5.3-.77,8.78,4.67,4.84,4.82,14.23.68,19.73-1.46,1.95-2.95,3.87-5.19,6.8,3.55.62,6.15.79,8.52,1.6,1.51.51,2.69,2,4,3-1.35.87-2.6,2.19-4.08,2.53-3.7.83-7.51,1.22-11.27,1.79.76,3.58,1.53,7.17,2.26,10.76.29,1.47.51,3,.7,4.44.74,5.89.67,12.09,7,16.43-7.44-3.62-10.15,1.09-13.16,5.73-.84,1.29-2.94,1.71-4.34,2.7a36.3,36.3,0,0,0-3.25,2.84c1.21.8,2.36,2.12,3.65,2.28A87.26,87.26,0,0,0,674,375c-1.81,4.37-3.1,7.49-5.1,12.29l15.58-2c-.74,4.87-4.41,6.66-8.08,8.58a47.9,47.9,0,0,0-9.85,6.62l16.11-1.17,1,1.37-6.36,3.39,1.2,1.64,6.52-.29c-5.07,5.1-15.33,3.45-15.2,14.34,2.32-1,4.2-1.85,6.06-2.7,1.66-.77,3.36-2.3,5-2.2,2.55.17,5,1.42,7.55,2.21-1.15,2.14-1.76,5-3.53,6.3-6,4.35-12.38,8.13-19.51,12.71l6.7,5.34c-3.84,6.25,1.59,13.35,11.84,14.54-3.15,6.08-6.13,11.86-9.12,17.63.62.35.92.68,1.15.63,2-.37,4.05-.82,6.08-1.24.26,2.74,1.77,6.4.56,8.08-5.51,7.6-3.87,14.85-.58,22.73l-6.57-4c-2.79,3.28-2.7,5.62,1.22,7.58,2.94,1.47,5.68,3.34,9.28,5.5-2.08,1.51-3.62,2.61-5.13,3.74-1.85,1.38-4.13,2.47-5.45,4.25-5.57,7.51-4.66,10.89,3.63,15.12,5.8,3,5.66,3.6,2.82,9.56-3.08,6.42-6.2,13.14-.27,20,2.05,2.36.33,4.22-1.61,5.87a105.66,105.66,0,0,0-13.4,13.08l10.36-3.35-3.55,10.2,8.68-.59c-3.82,9.41-18.24,15.27-27.7,10.89,1.46-3.41,3.11-6.8,4.32-10.34.54-1.56.89-4.07,0-5s-3.36-.9-5-.59a45.42,45.42,0,0,0-8.6,2.55c-4.45,1.8-4.68,4.25-1,7.18,1.52,1.2,2.94,2.52,4.84,4.16-1.94,1.57-3.42,2.78-5.46,4.42l5.42,4c0,.45.05.9.07,1.35-3.9.44-7.8,1.17-11.68,1.1-.79,0-2.08-3.05-2.19-4.75-.54-9.11-5.75-13.38-15-12.05-3.29.48-6.69,1.39-9.88,1a10.67,10.67,0,0,1-6.63-4c-7.48-10.59-6.38-8.36,2.61-14.14a8.32,8.32,0,0,1,5-1.54l-4.13,11.15Z"/><path class="k" d="M618.48,600.27a14.74,14.74,0,0,1,1.54,12.8c-.65,2.11-1.28,4.59,2.16,4.82,12.88.83,25.77,1.57,37.62,2.28.66-2.2.75-3.83,1.57-4.9a24.48,24.48,0,0,1,5.29-5.27c1.55-1.06,4-2.16,5.5-1.66,3,1,7.06,1.86,6.67,6.23a20.12,20.12,0,0,1-2.66,8.64c-2.23,3.57-4.62,6.18-2,11,2.81,5.14-1.49,12.68-7.17,14.56-6.94,2.31-13.92,4.56-20.81,7-1.42.5-2.53,1.87-3.78,2.83a27,27,0,0,0,3.5,3.72c2.8,2.05,6.21,3.42,8.6,5.83,4.32,4.34,8.65,8.28,15.07,9a2.74,2.74,0,0,1,1.82.71c1.75,2.6,5.23,5.91,4.6,7.81-1.24,3.76-5.23,3.39-8.95,2-1.91-.72-4.43-.36-6.52.13a23.37,23.37,0,0,0-5,2.32l-2-11.17-1.93.2-2.73,15.22,18.31,4.38c0,.65.07,1.29.11,1.94-4.81,2.42-9.61,4.86-14.43,7.25-.41.21-1.26.37-1.41.17-3.59-4.67-6.6.19-9.88.4-4.47.28-9-.52-13.51-1.18-.35-.05-.82-2.83-.37-4,.63-1.7,2.06-3.11,3.85-5.62h-11.1c2.12-6.3,6.63-8.67,11.19-11.33,3.45,8.31,3.45,8.31,10.78,6.75-2.69-4.25-5.34-8.17-7.7-12.26-1.16-2-2.47-4.34-2.54-6.56a126.74,126.74,0,0,1,.74-14.42c.43-5.19-2.29-9-7.38-9.23-1.34-.06-3.36,1.41-4,2.72-1.65,3.17-3.76,3.65-7,2.78-6-1.64-12.17-3-18.26-4.43l-.09-1.5c4.56-1,9.51-1.27,13.61-3.26,9.14-4.43,18.69-3.88,28.3-4.07,3.29-.07,6.55-1.59,9.82-1.58a26.37,26.37,0,0,1,9.34,1.88c5,2,5.75,1.68,5.78-3.8,0-6.94-4.61-12.35-11.24-14.58-8.24-2.77-16.15-.47-24.15.59-8.48,1.12-12.79-2.19-12.52-10.64.16-4.87,1.11-9.72,1.7-14.58Z"/><path class="j" d="M408.07,77.43c-3.33,5.34,1.33,7.34,3.93,10s3.11,4.55.17,7c-.76.63-1.2,1.63-1.95,2.26-5,4.19-5.39,8.59-2.1,14.34,1.34,2.34,0,6.16.11,9.29.07,2,.69,3.94.86,5.92.2,2.28.82,4.86,0,6.74-.42,1-3.78,1.26-5.58.85-11.11-2.6-11.45-2.22-5.29-11.92,2.93-4.61,2.22-7.09-2.41-9.8-6.44-3.78-6.81-4.43-2.76-10.77,5.49-8.58,3.82-16.81.37-25.17-1.5-3.62-1.39-6.6,1-9.74,3.43-4.53,7.22-4.7,10,.32C406.16,70,406.88,73.86,408.07,77.43Z"/><path class="l" d="M401.28,162.87c4.14-1.43,7.42-2.46,10.61-3.69,3.8-1.47,5.3-.12,5.11,3.76a26.79,26.79,0,0,0,0,4.48c.59,4.84-1.31,7.63-6.28,8.2-.93.11-1.81.68-4.06,2.7,1.08.37,2.18.71,3.25,1.13,4.66,1.84,4.47,4.73,1.66,8.09-2.34,2.8-4.62,5.68-7.19,8.26-2.21,2.22-4.76,2.78-6.36-.73-1.22-2.66-2-5.53-3.08-8.24a130.47,130.47,0,0,0-5.33-12.16c-1.44-2.7-1.55-4.6,1.2-6.28a13.73,13.73,0,0,0,1.88-1.63c5.95-5.35,5.87-5.28.51-11.29-.77-.86-1.06-3.47-.45-4,5-4.53,10.32-8.76,15.65-13.17,3.76,3.15,4.18,6,.79,9C404.88,151.12,401.82,155.62,401.28,162.87Z"/><path class="l" d="M508.31,123.67c-.11-1.75-.29-3.5-.3-5.25,0-15-.12-30,0-45,.08-8.13.55-16.27,1.06-24.4a7.53,7.53,0,0,1,1.95-4.27,22.14,22.14,0,0,1,5.64-4.53c1.63-.88,3.74-.87,6.11-.67-3.6,2.8-3.86,5.28-1.22,8.51,2.34,2.86.77,4.67-2.28,6-9.89,4.35-9.4,4.3-6.66,14.75,2.64,10.1,4.24,20.48,6.23,30.76a6.43,6.43,0,0,1-.1,3.46c-2.8,7-5.75,14-8.65,21Z"/><path class="m" d="M579.76,799.53c6.67,1.51,9.27-1.74,11.17-6.23,1.67-3.94,3.9-4.45,7-1,1.93,2.14,4.35,3.83,7.19,6.28-3.13,1.76-5.43,3-7.64,4.32-2.92,1.79-4.1,4.27-1.27,6.88,6.8,6.29,4.61,14.38,4.7,22,0,2.9-1.77,2.95-4.14,2.15-7.06-2.4-11.27-7.22-13-14.74l5.19-2.43Z"/><path class="m" d="M439,804l-15.79-9.87,10.93-4.26-.06-1.75-21.05-4c2.51-1.15,3.68-1.79,4.93-2.24,6.23-2.26,12.43-4.6,18.75-6.58a5.29,5.29,0,0,1,4.43,1.12c2.48,2.39,4.29,5.47,6.76,7.88,3.05,3,3.77,6.08,2,9.89-1.9,4.15-2.62,9.15-7.9,10.81Z"/><path class="n" d="M506.83,249.89c-.61,5.59-1.62,11.17-1.74,16.78-.26,12.77-.08,25.55-.08,37.83l-2.14-2.9c-.37,6.72-.68,12.43-1,18.13a26.26,26.26,0,0,1-.84-4.33c-.39-14.62-.26-29.26-1.17-43.84-1-15.56-2.88-31.05-4.38-46.57a16.35,16.35,0,0,1,.1-5.26C501.46,229.06,509.31,237.55,506.83,249.89Z"/><path class="o" d="M602.87,89.38c-4.54-4.23-9-8.19-13.14-12.38a3.63,3.63,0,0,1-.41-3.46c2.08-2.89,4.55-5.5,6.32-7.58l16.25,9.12C609,79.72,606,84.36,602.87,89.38Z"/><path class="o" d="M583.45,839.1l7.19,2.63c0,4.08-.7,7.55.16,10.57,1.31,4.6,1.24,8.33-2.29,11.9-1.29,1.3-1.8,3.38-2.67,5.14-9.29-4.08-10.42-9.23-4-18.18,1-1.32.87-3.44,1.09-5.2C583.21,844,583.25,842.08,583.45,839.1Z"/><path class="k" d="M676.39,661.68l-7.65,10.92c-7.08-5.86-6.86-11.67-.43-18.78Z"/><path class="p" d="M392,814.64l-9.65,15.07c-2.56-4.36-4.57-7.34-6-10.58-.38-.84.79-3.39,1.63-3.59,4.25-1,8.62-1.57,12.95-2.27Z"/><path class="m" d="M587.8,882.5l-18.69,3L568,884.33c2.3-3.39,4.55-6.82,7-10.13a2.4,2.4,0,0,1,2.25-.34c3.78,2.15,7.46,4.46,11.18,6.72C588.19,881.22,588,881.86,587.8,882.5Z"/><path class="l" d="M631.55,728.45c-.89,1.85-1.79,3.7-2.68,5.54-6.07-2.91-10.72-.89-15.2,2.8a33.82,33.82,0,0,1-9.59,5.58c.69-4.45,2.18-8.43,6.35-9.77,6.59-2.13,13.42-3.52,20.15-5.22Z"/><path class="l" d="M651.69,782.12c-4.35.55-8.69,1.21-13.05,1.51-.62,0-2.06-1.84-1.91-2.56a95.93,95.93,0,0,1,3-9.19L652,780.44C651.86,781,651.77,781.56,651.69,782.12Z"/><path class="q" d="M429.06,53.88c-2.9-2.34-5.89-4.57-8.66-7-5.21-4.66-5.15-4.72-13.61-7,1.28-5.8,2.88-6.52,7.38-3.18,2.66,2,5.53,3.78,7.79,6.16,2.93,3.08,5.35,6.65,8,10Z"/><path class="p" d="M400.8,671.67l-19.85,11C382,674.37,391.7,669,400.8,671.67Z"/><path class="q" d="M439,804l3,1c-5.6,7.81-12.67,11.23-22.55,6.07,5.24-1.32,10.52-2.51,15.69-4.07C436.6,806.57,437.72,805,439,804Z"/><path class="q" d="M595.08,774.93c1.78-5.9,2.3-6.19,7.81-4.15,2.3.84,4.58,1.76,7,2.69C606.51,777.66,602.29,778,595.08,774.93Z"/><path class="p" d="M385,803.56a53,53,0,0,1-6.44-1c-2.38-.72-4.66-1.77-7-2.67l4.89-8.19C379.52,796,381.87,799.2,385,803.56Z"/><path class="r" d="M660.28,819.25c-8.66,8.36-8.46,9-15.63-2.73Z"/><path class="m" d="M565,533c3.28,1.82,6.67,3.46,9.79,5.5,2.51,1.64,1.82,3.38-3.16,7.22l-7.72-11.68Z"/><path class="k" d="M621.06,914.56c1,8.5-3.43,7.81-16.5,8.18Z"/><path class="l" d="M576.45,905.25c-.67-4.57-1.33-9.15-2.22-15.28,2.54,1.11,4.59,1.49,5.81,2.71a5.18,5.18,0,0,1,1,4.34,76.11,76.11,0,0,1-3.57,8.6Z"/><path class="s" d="M591.63,543.91c.65-7.15,8.67-7.31,11.94-12l1.24,1.14-11.34,12.5Z"/><path class="t" d="M590.12,733.06c.93-2.42,1.45-4,2.11-5.48,1-2.24,2.06-4.44,3.14-6.74C601.85,726.28,597.52,729.75,590.12,733.06Z"/><path class="m" d="M443.21,49.14c2.08,4.34-1.66,10.82,6.4,13C439.42,62,437.87,58.27,443.21,49.14Z"/><path class="s" d="M344.28,801.17c4.66,7.36,4.07,9.55-2.29,9.67C342.78,807.48,343.53,804.32,344.28,801.17Z"/><path class="l" d="M603.42,758.21c-5.06,6.08-6.7,6.48-14.42,3.38Z"/><path class="l" d="M667.54,781.55l-8.69,4.4C661,778.31,663,777.29,667.54,781.55Z"/><path class="u" d="M380.12,591.79c-1.82-3.09-3-5-3.44-5.82,1.4-4.19,2.66-7.38,3.53-10.68,1.21-4.58,2.76-5.47,7-3.69,6.4,2.67,12.48,6.47,19.91,5.56.68-.09,1.46.52,2.82,1.05a62.09,62.09,0,0,1-3.29,5.73c-4.29,5.9-5.1,12-1.92,18.72a5.21,5.21,0,0,1-1,4.8c-5.11,4.33-5.06,8.87-1.53,14,.61.9.75,2.12,1.49,4.34-6.71.33-13,1.48-19,.66-4.88-.66-6.66-5.42-6.51-9.51-3.43-.83-6.71-1.1-9.51-2.42-4.09-1.92-6.36-.77-8.61,2.81-5,7.94-7.76,8.11-13.93,1-.76-.89-1-3.54-.37-4.11,5.52-4.94,11.3-9.58,17.53-14.75.59,2.76,1,4.62,1.43,6.71,3.49-.48,7.1-1.22,7.05-5.06C371.65,595.67,373.13,592.15,380.12,591.79Z"/><path class="t" d="M392.05,541.15c.56,10.12,1.11,20.25,1.69,30.75a19.43,19.43,0,0,1-3.68-2.47c-3.92-4.06-8.31-6.94-14.08-7.82-3.57-.54-5.77-8.27-3.35-11.13a3.11,3.11,0,0,1,2.58-.65,19.38,19.38,0,0,1,3.64,1.58c6.84,3.14,8.74,2.12,10-5.29.3-1.71.79-3.38,1.19-5.06Z"/><path class="q" d="M368.84,741.68c-8.16,1.82-4.84,8.59-6.67,14.24-1.53-1.47-2.35-2.64-3.47-3.25-2.13-1.16-4.48-1.91-6.66-3-1.42-.7-3.66-1.52-3.85-2.6-.43-2.35-.76-5.92.58-7.2C353.76,735.12,363.22,735.91,368.84,741.68Z"/><path class="p" d="M450.41,707.52c-8.79,1.3-16.18-.82-17.6-5.34-1.74-5.54-8.26-11-1.54-17.39.63.26,1.15.33,1.2.51,1.46,6,5,9.79,10.51,12.81C446.07,699.81,447.78,704,450.41,707.52Z"/><path class="v" d="M322.33,44.78c3.46,2.14,7.18,4,10.24,6.57,1.23,1,1,3.8,1.41,5.78-2.09-.27-5.08.23-6.1-1-2.63-3.06-4.38-6.87-6.48-10.37Z"/><path class="q" d="M350.87,664.28a65.07,65.07,0,0,1-6.75-4.39,5.13,5.13,0,0,1-1.62-3.72c0-.75,1.82-2,2.8-1.95,1.47,0,3.67.52,4.22,1.54,1.27,2.32,1.72,5.08,2.51,7.66Z"/><path class="s" d="M419.42,378.2l5.55,14C413.89,386.65,413.53,385.31,419.42,378.2Z"/><path class="m" d="M338.18,508.21c5.44-7.07,8.58-7.28,15.45-1.41Z"/><path class="q" d="M342.49,882.89c5.15,5.83,2.53,9.14-1.51,12.27C341.44,891.46,341.89,887.77,342.49,882.89Z"/><path class="o" d="M430.37,647.22l15.73,4.58C440.44,651.83,434.53,652.78,430.37,647.22Z"/><path class="u" d="M335,620.8l5.91-6.45,1.61,1.52C341.43,618.88,338.52,620.13,335,620.8Z"/></svg>