<svg xmlns="http://www.w3.org/2000/svg" viewBox="0 0 982 997" xmlns:v="https://vecta.io/nano"><path d="M982 276v5l-33.62 36.51c-8 8.37-16.48 16.24-24.72 24.36-2.76 2.72-5.55 5.43-8.15 8.29-3.74 4.11-7 8.76-11 12.47-10 9.1-20.29 17.88-30.61 26.62-3.4 2.88-7.24 5.23-10.88 7.82l-.41-5.18-1.32-.53c-4.82 5.79-11.43 10-14.23 17.57l-11.24 6.82c-5.25 3.34-10.31 7-15.67 10.11-3.61 2.11-7.29 1.86-10.14-1.76-1.32-9.73 2-17.84 8.22-25.23 2.74-3.24 5.54-7.09 6.47-11.1 5.24-22.36 10.49-44.75 14.59-67.34 3.64-20 3.07-20.22-8.26-37.3-2.81-4.23-4.77-8.57-3.92-13.54 1.68-9.79 3.5-19.57 5.78-29.23 1.11-4.67.06-7.17-4.48-8.8-6.22-2.23-6.9-3.3-5.37-9.65 2.37-9.8 2-19.41-.28-29.16-2-8.6-3.82-17.27-5-26-2.87-21.94-12.15-43.2-7.14-66.07.35-1.63-2.43-4-3.94-5.92a3.77 3.77 0 0 0-2.32-.8c-8.07-1-11.71-5.79-12.36-13.65-.28-3.31-1.49-6.55-2.27-9.83l-1.82-.07C784 79.71 776.75 87.53 777 98.6l1.82 94.84a282.15 282.15 0 0 0 4 47.68c1 5.74.62 11.94-.24 17.77-1.57 10.7-4.39 21.22-5.9 31.93-1.25 8.82-2.73 18-1.72 26.68 3.6 31.12 6.33 62.25 6.06 93.6-.19 4-.14 8-.62 11.88-1 8-2.66 15.85-3.23 23.83-.41 5.7.75 11.49.75 17.24 0 6.9-.33 13.82-.78 20.72-.56 8.54-1.81 17.05-2 25.59-.18 9.29.55 18.59.83 27.88q.79 25.9 1.53 51.8l1.38 49.08c.23 12.16.09 24.33.1 36.49v46.21c-.1 9.91-.8 19.82-.87 29.73-.08 10.59.4 21.18.39 31.77l-.35 48c.15 13.3 1.06 26.58 1.56 39.87l2.4 66.09.76 15.7c-1.49-1.53-3.29-2.86-4.42-4.61-3.41-5.33-7-10.63-9.66-16.34-1.49-3.21-1.8-7.24-1.67-10.86.23-6.12 1.89-12.21 1.8-18.3l-1.93-86.39c-.14-5.65-1.32-6.43-7.1-6-6.79.47-13.69 1.44-20.38.73-10.75-1.16-21.37-3.48-32-5.38-4.65-.83-5.64-2.33-3-6.47 5.17-8.05 6.13-19.49 18.1-22.59-11.9-5.19-24.72-7.55-35-17.1l7.34-2.57a118.83 118.83 0 0 0-18.74-4.23c-10.34-1.72-10.26-1.69-7.7-11.5.35-1.31-.07-3.72-1-4.23-1-.62-3.75-.3-4.38.58-4.49 6.3-10 12.27-8.83 21 .87 6.27 1.27 12.65 2.68 18.8 1.88 8.18 6.31 14.58 15.14 16.77l11.2 2.91c-1.15 1.78-2.1 2.48-3.16 2.7-7.41 1.57-13.15 6-19.16 10.33-8.78 6.29-18.08 11.86-27.17 17.72-3.12 2-6 1.68-8.49-1.1-1.45-1.6-3.15-3-4.46-4.71-4.25-5.48-3.38-10 2.6-13.52Q636.7 801 650 793.55c3.33-1.86 3.57-3.85 1.21-6.76-6.83-8.41-7.8-8.47-14.49-.18-.21.26-.45.5-.63.77-3.61 5.39-8.47 6.85-14.77 5.46-10.25-2.28-20.63-3.94-30.87-6.22a13.68 13.68 0 0 1-7.18-3.91c-6.4-7.67-12.35-15.72-18.45-23.64-3.49-4.53-3.51-9.14-.3-13.86l9.14-13.73c1.92-2.83 1.56-5-1.67-6.37-6.89-3-13.73-6.07-20.74-8.7a5.91 5.91 0 0 0-5.14 1.39c-5.64 6-5.43 9.36.33 15.15l2.12 2.12c4.56 4.65 4.79 5.52-.55 9.19-8.9 6.13-16.24 13.11-18.57 24.25-.76 3.67-3.6 4.43-7 3l-19.48-7.82c-3.55-1.51-6.42-1.15-9 1.8-8.69 10.1-19.08 16-33.05 14.87-6.07-.48-6.78-.25-6.9-6.66v-8.92l-2.01-.28c-1.84 3.09-3.55 6.27-5.54 9.26-2.31 3.46-2.07 6.34 1.71 8.3 6.92 3.59 13.62 8.19 21 10.2 12.95 3.52 18.91 11.76 20.46 24.29a2 2 0 0 0 .13.48c1.56 4.34 0 6.93-4.29 8.44-3.8 1.35-7.45 3.13-11.17 4.72v1.66l12.61 5.24 12.45 5.06c-9.56 2.75-18.75 4.17-27.83 6-4.55.93-7-.51-8.21-4.83-1.33-4.64-2.88-9.22-4.3-13.84-1.05-3.44-3.14-4.38-6.5-3.11-4.52 1.72-9 3.47-13.67 4.82-5.27 1.54-7.87 4.52-8.36 10.24-.73 8.44-2 9.14-10.46 8.29-15.24-1.53-15.15-1.52-12.21-16.78.71-3.72 2.64-5.42 6.22-6 4.77-.76 9.48-2.43 14.25-2.55 10.2-.25 15.05-5.57 16.23-15.16a4.27 4.27 0 0 1 .13-.48c1.14-4.7.51-5.58-4.22-4.79-8.87 1.49-17.77 3-26.52 5-4.09 1-8.56 2.44-11.66 5.09a63 63 0 0 1-36.74 15.15 16.7 16.7 0 0 0-3.84 1.29v1.22l19.88 7.7a11.66 11.66 0 0 1-5.06 3.51c-3.75 1.4-7.61 2.52-11.28 4.07-4 1.69-4.16 3.17-1 6.08l7.52 6.8c-2.65.83-4 1.64-5.4 1.64-10.46 0-17.15 6.12-22.87 13.89a6.44 6.44 0 0 1-1.25 1.55c-5.4 3.82-10.41 9.07-16.43 10.8-3.58 1-8.76-3.51-13.22-5.56-.6-.28-1.14-.68-1.72-1-7.94-4.68-14.55-2.81-18.19 5.81-3.24 7.66-5.71 15.64-8.6 23.46-2.37 6.41-2.85 6.68-9.52 5.41-4-.76-7.5-.48-10.45 3.52l8.24 5.44c-4.28 0-7.41.2-10.5 0-10.37-.79-10.32-.46-7.23 9.81 2.21 7.33 4.78 15-1.53 22.23-2.66 3 .25 4 2.86 3.92 7.15-.32 14.3-.72 21.43-1.35 14.83-1.29 29.61-2 44 2.85a28.36 28.36 0 0 1 7.33 4c3.29 2.4 6.3 5.17 9.43 7.78l2-.58v-12.06c0-4.06 1.74-5.61 5.71-4 1.09.43 2.2.8 3.3 1.19 18.34 6.55 12.16 7.11 28-3.88 2.54-1.77 6.46-2.47 9.64-2.25 13.51 1 25.16 6.77 36.16 14.43 9.05 6.32 9.29 6.11 17.74-1 3-2.51 4.57-1.51 5.14 1.74a51.68 51.68 0 0 1 .9 10.34c-.21 6.23.19 6.87 6.46 7 9 .22 18 .2 27 .72 15.79.92 31.54 2.62 47.34 3.17 16.31.56 32.66 0 49 .22 3.56 0 7.11 1.27 10.67 1.95-.56.24-1.12.7-1.68.69-7.53 0-15.07-.28-22.59-.12l-47.23 1.34c-10.82.21-21.65.06-32.47 0-12.86 0-25.72-.17-38.58-.16-12.65 0-25.3-.09-37.94.24l-55.61 1.85c-17.27.33-34.55.09-51.83.08-7.34 0-14.69-.11-22-.08q-11.69 0-23.35.28c-3.43.07-6.85.36-10.26.61l-15.55 1.19H215c-2.09-1.4-5.61-2.48-6-4.26a74.89 74.89 0 0 1-1.86-17.58c.28-14.57 1.33-29.11 1.69-43.68l.62-50.64.54-32.44.07-20.2c.17-6.73.48-13.75 1-20.6.82-10.31 2.65-20.59 2.68-30.89 0-11.29-.3-22.46.92-33.8 1.49-13.93 1-28.09 1.12-42.16.07-11.11-.57-22.23-.41-33.34q.36-26.07 1.42-52.14c.41-10.5 1.4-21 2.13-31.47l1.21-16.91 1.59-26.42c.16-3.83-.46-7.69-.58-11.54-.34-10.79-.32-21.6-1-32.38-.74-13.29-2.14-26.53-3.14-39.86-.46-6.28-.57-12.57-.92-18.86l-1.82-31.31c-.09-1.59.18-3.2.36-6.06l-19.71 14.37c1-2.69 1.59-5.65 3.11-8 3.32-5.21 7.11-10.12 10.72-15.15l-1.14-1c-5.15 4.29-10.05 8.94-15.53 12.77-6.38 4.46-9.33 10-8.06 17.74-5-1-10.22-1.3-14.87-3.13-6-2.36-11.33-6.41-17.31-8.87-10.22-4.21-20.44-8.17-27.33-17.49-.17-.24-.6-.27-.84-.48-4.31-3.87-9.32-7.2-12.77-11.72-10.45-13.81-22.89-25.62-35.52-37.21-11.47-10.51-23.47-20.43-35.25-30.61l-15.95-13.78L0 276v-5c1.2-1.05 2.49-2 3.58-3.18 2.56-2.73 4.76-5.86 7.59-8.26 5.26-4.45 11.11-8.22 16.27-12.78 7.18-6.34 14-13.13 20.91-19.75.58-.56 1-1.31 1.61-1.83 7.32-6.26 14.95-12.2 21.94-18.81 8.28-7.83 16.13-16.14 24-24.43 6.62-7 13.1-14.2 19.35-21.56 3.43-4 6.29-8.55 9.34-12.9l8.74-12.73c2.73-3.88 5.11-8.16 8.46-11.41 7.24-7 14.82-13.68 22.61-20.06 5.42-4.43 11.41-8.16 17.21-12.13 2.68-1.84 5.7-3.23 8.22-5.26 8.65-6.92 16.63-14.82 25.85-20.83 7.49-4.89 16.33-7.78 24.7-11.24 5-2.05 10.8-2.54 15.15-5.39 8-5.23 17.58-4.09 25.82-8.26 7.64-3.87 16.19-5.89 24.26-9 5.22-2 10.26-4.41 15.41-6.59 4.73-2 9.88-3.32 14.16-6C346.35 11.6 357.26 4.12 370 0h2a22.52 22.52 0 0 0 3 3.9c1.29 1.08 3.06 1.57 4.51 2.51 8.89 5.74 17.28 12.53 26.77 17 8.75 4.14 18.68 5.78 28.06 8.6 2.63.79 5.1 2.26 7.76 2.73 6.09 1.08 12.3 1.48 18.37 2.64 7.84 1.51 15.55 3.75 23.4 5.17 4.57.83 9.39.22 13.95 1.06a116 116 0 0 0 42.52.24c8-1.49 16-2.78 24.1-3.72 8.93-1 17.93-1.53 26.88-2.41a37.27 37.27 0 0 0 7.91-1.61c6-1.95 11.82-4.15 17.71-6.24-3.66 3.86-7.14 7.93-11.1 11.46a10.14 10.14 0 0 1-6.31 2.08 97.66 97.66 0 0 1-13.43-1.09c-4.47-.62-8.07.71-11.51 3.52-2.4 1.95-5.18 4.37-8 4.69-10.4 1.18-21 2.7-31.32 2-28.43-1.84-56.76-5.11-84.28-13a49.54 49.54 0 0 0-25.1-.53c-5.52 1.24-11.25 1.59-16.68 3.09-1.94.53-3.27 3.27-4.88 5 1.71 1 3.33 2.54 5.16 2.85l32.6 5c6.36 1.12 12.19.78 17.73-2.76 3.9-2.5 7.86-2.1 11.8.19 5.33 3.1 11.11 5.56 16 9.19 7.07 5.23 13.73 5.35 21.28 1.28 2.71-1.45 6.3-1.66 9.5-1.71 3.72-.06 7.47 1.17 11.16 1 7.15-.38 14.27-1.28 21.38-2.12 29.31-3.49 58.44-7.85 86.57-17.27 1.44-.48 3-.72 4.45-1.08.19.48.39 1 .59 1.44-8.81 5.27-15.81 13.38-26.73 15.32-14.27 2.54-28.39 6.28-42.75 7.89-20.8 2.32-41.77 4.48-62.65 4.31a327.52 327.52 0 0 1-58.11-5.7c-20.05-3.79-39.59-10.38-59.23-16.15-1.79-.52-3.52-3.79-3.89-6-.88-5.23-.94-10.6-1.28-15.92-.21-3.27-1.67-4.58-4.92-3.33l-14.46 5.57c-3.53 1.33-4.8 3.94-4.23 7.52 3.14 19.54 5.66 39.22 9.7 58.58 2.94 14.14 5.78 29 12.46 41.49a424.82 424.82 0 0 0 37.34 57.14c11.56 15.15 25.69 28.34 38.82 42.27a36.51 36.51 0 0 0 8.45 6.9c8.87 4.94 18.09 9.26 27 14.22 4.52 2.53 7.94 2 11.64-1.43 20-18.28 41.91-34.52 58.55-56.34 7.35-9.65 16.86-18 22.79-28.36 12.51-22 23.36-44.88 34.75-67.48 3.41-6.77 6.35-13.77 9.51-20.66a4.07 4.07 0 0 1 .59 3.48 265.51 265.51 0 0 0-9.09 53.1 14.76 14.76 0 0 1-2.45 6.42c-15.26 24-29 49-47.21 71.13-3.08 3.74-5.45 8.07-8.15 12.13a4.25 4.25 0 0 0 3.59-1.24l35.66-35.74a27 27 0 0 0 4.44-6.58c15.55-30.44 29.79-61.44 41.38-93.65 1.26-3.5 4.29-6.44 6.79-9.4 3.75-4.47 10-7.18 10.07-14.19v-38c-.16-8.9-1.75-17.26-12-20.41 3.26-2.12 4.65 1.25 6.88 2.28l20 9.06c5.52 2.63 10.82 5.74 16.39 8.26 3.41 1.54 7.25 2.13 10.71 3.58 5.06 2.12 9.86 4.91 15 6.92 7.42 2.93 15 5.44 22.54 8.07 1.22.42 2.66 1 3.79.73 7.92-2.08 14.07 3.07 21 5a71 71 0 0 1 10.54 3.92c6.08 2.78 12 5.83 18 8.79a8.72 8.72 0 0 1 2.52 1.4l17.3 18.46c5 5.36 11.49 9.93 14.88 16.18 7.25 13.33 18.26 23.6 26.72 35.89 5.76 8.38 12.65 16 19 24l17 21.58 27.93 34.78c6 7.27 12.56 14.12 18.92 21.11l23.43 25.54c3.33 3.59 6.99 6.97 10.52 10.46zM644 130l.92 1.61 29.53-6.65c1.6-.41 3.12-2.47 4-4.13 3.31-6.15 6.27-12.47 9.52-18.66.89-1.7 2-3.89 3.51-4.6 12.23-5.54 24.35-11.49 37-15.94 16.84-5.92 14-1.39 19.16-20 .09-.32.16-.64.27-1 1.4-4-.2-6.33-4.12-7.5l-15.72-4.92L688 35.79c-5-1.52-6-.76-6 4.51.07 5.48.52 11 1 16.43a43.26 43.26 0 0 0 1.21 5.66 37.44 37.44 0 0 0 5.63-2.34c3.81-2.36 7.45-5 11.15-7.5l1 1.12-5.33 19.54c-2 7.79-2.21 8-8.85 3.63-3.42-2.23-5.65-2.27-7.2 2a109.23 109.23 0 0 1-31.4 45.49A67.4 67.4 0 0 0 644 130zm103.19-46.93l-1.82-.81A9.82 9.82 0 0 0 743 83.8c-8 9.73-16.49 19.19-23.89 29.4-4.74 6.53-8.34 14-11.58 21.46-.93 2.14.76 5.84 2.16 8.31.36.64 4.46-.18 6.38-1.21a36.43 36.43 0 0 0 17.43-19.64c2-5.1 5.41-9.66 7.14-14.81 2.68-7.92 4.43-16.14 6.55-24.24zM389.08 184.48c-29.2-47.36-42.73-99.31-46.84-154.22 1.22 24.87-1.94 50 6.79 74.22a211.42 211.42 0 0 1 7 25 59.42 59.42 0 0 0 10.58 22.93c3.1 4.12 5.89 8.48 8.85 12.71q6.79 9.71 13.62 19.36zm-154.39 5.12c-1 .7-1.43.81-1.53 1.05-.39.91-.7 1.86-1 2.81a150.7 150.7 0 0 0-7.16 41.66c-.4 10.7.28 11.34 10.69 8.44 5.56-1.55 6.61-3.09 6-9-.64-5.79-1.16-11.6-2.08-17.35-1.46-9.13-3.22-18.21-4.92-27.61z" fill="#999"/><path d="M782.84 953c.38 9.36 1 18.72 1.1 28.09.14 8.57-1.79 10-10.4 11.07-9.56 1.22-19 3.19-28.54 4.83h-43a36.35 36.35 0 0 0-5.12-1c-7.08-.35-14.19-.37-21.27-.87-6.81-.49-13.57-1.82-20.38-2.07l-68.11-2c-3.56-.68-7.11-1.91-10.67-1.95-16.33-.22-32.68.34-49-.22-15.8-.55-31.55-2.25-47.34-3.17-9-.52-18-.5-27-.72-6.27-.16-6.67-.8-6.46-7a51.68 51.68 0 0 0-.92-10.37c-.57-3.25-2.17-4.25-5.14-1.74-8.45 7.09-8.69 7.3-17.74 1-11-7.66-22.65-13.48-36.16-14.43-3.18-.22-7.1.48-9.64 2.25-15.86 11-9.68 10.43-28 3.88l-3.3-1.19c-4-1.56-5.68.1-5.71 4v12.06l-2 .58c-3.13-2.61-6.14-5.38-9.43-7.78a28.36 28.36 0 0 0-7.33-4c-14.39-4.87-29.17-4.14-44-2.85-7.13.63-14.28 1-21.43 1.35-2.61.12-5.52-.89-2.86-3.92 6.31-7.19 3.74-14.9 1.53-22.23-3.09-10.27-3.14-10.6 7.23-9.81 3.09.23 6.22 0 10.5 0l-8.24-5.44c2.95-4 6.47-4.28 10.45-3.52 6.67 1.27 7.15 1 9.52-5.41 2.89-7.82 5.36-15.8 8.6-23.46 3.64-8.62 10.25-10.49 18.19-5.81.58.34 1.12.74 1.72 1 4.46 2 9.64 6.58 13.22 5.56 6-1.73 11-7 16.43-10.8a6.44 6.44 0 0 0 1.25-1.55c5.72-7.77 12.41-13.86 22.87-13.89 1.38 0 2.75-.81 5.4-1.64l-7.52-6.8c-3.16-2.91-3-4.39 1-6.08 3.67-1.55 7.53-2.67 11.28-4.07a11.66 11.66 0 0 0 5.06-3.51l-19.88-7.7v-1.22a16.7 16.7 0 0 1 3.84-1.29 63 63 0 0 0 36.74-15.15c3.1-2.65 7.57-4.13 11.66-5.09 8.75-2 17.65-3.5 26.52-5 4.73-.79 5.36.09 4.22 4.79a4.27 4.27 0 0 0-.13.48c-1.18 9.59-6 14.91-16.23 15.16-4.77.12-9.48 1.79-14.25 2.55-3.58.58-5.51 2.28-6.22 6-2.94 15.26-3 15.25 12.21 16.78 8.43.85 9.73.15 10.46-8.29.49-5.72 3.09-8.7 8.36-10.24 4.63-1.35 9.15-3.1 13.67-4.82 3.36-1.27 5.45-.33 6.5 3.11l4.3 13.84c1.23 4.32 3.66 5.76 8.21 4.83 9.08-1.87 18.27-3.29 27.83-6l-12.45-5.06-12.61-5.24v-1.66c3.72-1.59 7.37-3.37 11.17-4.72 4.29-1.51 5.85-4.1 4.29-8.44a2 2 0 0 1-.13-.48c-1.55-12.53-7.51-20.77-20.46-24.29-7.39-2-14.09-6.61-21-10.2-3.78-2-4-4.84-1.71-8.3 2-3 3.7-6.17 5.54-9.26l2.06.32v8.92c.12 6.41.83 6.18 6.9 6.66 14 1.12 24.36-4.77 33.05-14.87 2.54-2.95 5.41-3.31 9-1.8 6.43 2.74 13 5.19 19.48 7.82 3.44 1.39 6.28.63 7-3 2.33-11.14 9.67-18.12 18.57-24.25 5.34-3.67 5.11-4.54.55-9.19l-2.09-2.07c-5.76-5.79-6-9.14-.33-15.15a5.91 5.91 0 0 1 5.14-1.39c7 2.63 13.85 5.73 20.74 8.7 3.23 1.39 3.59 3.54 1.67 6.37l-9.14 13.73c-3.21 4.72-3.19 9.33.3 13.86 6.1 7.92 12 16 18.45 23.64a13.68 13.68 0 0 0 7.18 3.91c10.24 2.28 20.62 3.94 30.87 6.22 6.3 1.39 11.16-.07 14.77-5.46.18-.27.42-.51.63-.77 6.69-8.29 7.66-8.23 14.49.18 2.36 2.91 2.12 4.9-1.21 6.76q-13.32 7.4-26.51 15.02c-6 3.48-6.85 8-2.6 13.52 1.31 1.7 3 3.11 4.46 4.71 2.54 2.78 5.37 3.11 8.49 1.1 9.09-5.86 18.39-11.43 27.17-17.72 6-4.31 11.75-8.76 19.16-10.33 1.06-.22 2-.92 3.16-2.7l-11.2-2.91c-8.83-2.19-13.26-8.59-15.14-16.77-1.41-6.15-1.81-12.53-2.68-18.8-1.21-8.73 4.34-14.7 8.83-21 .63-.88 3.34-1.2 4.38-.58.88.51 1.3 2.92 1 4.23-2.56 9.81-2.64 9.78 7.7 11.5a118.83 118.83 0 0 1 18.74 4.23l-7.34 2.57c10.27 9.55 23.09 11.91 35 17.1-12 3.1-12.93 14.54-18.1 22.59-2.66 4.14-1.67 5.64 3 6.47 10.66 1.9 21.28 4.22 32 5.38 6.69.71 13.59-.26 20.38-.73 5.78-.4 7 .38 7.1 6l1.93 86.39c.09 6.09-1.57 12.18-1.8 18.3-.13 3.62.18 7.65 1.67 10.86 2.65 5.71 6.25 11 9.66 16.34 1.08 1.78 2.88 3.11 4.37 4.63zM617 29.88c.34-.72.47-1.72 1-2.13l20.12-14.82a29.45 29.45 0 0 0 4.57-5.06c3.77-4.66 7.27-4.93 11.77-1a42.45 42.45 0 0 0 4.44 3c10.22 3.15 11.81 11.51 12 20.41.24 12.65.14 25.32 0 38 0 7-6.32 9.72-10.07 14.19-2.5 3-5.53 5.9-6.79 9.4-11.59 32.21-25.83 63.21-41.38 93.65a27 27 0 0 1-4.44 6.58l-35.66 35.74a4.25 4.25 0 0 1-3.59 1.24c2.7-4.06 5.07-8.39 8.15-12.13 18.18-22.1 32-47.11 47.21-71.13a14.76 14.76 0 0 0 2.45-6.42 265.51 265.51 0 0 1 9.09-53.1 4.07 4.07 0 0 0-.59-3.48c-3.16 6.89-6.1 13.89-9.51 20.66C614.39 126.12 603.54 149 591 171c-5.93 10.4-15.44 18.71-22.79 28.36-16.64 21.82-38.56 38.06-58.55 56.34-3.7 3.39-7.12 4-11.64 1.43-8.87-5-18.09-9.28-27-14.22a36.51 36.51 0 0 1-8.45-6.9c-13.13-13.93-27.26-27.12-38.82-42.27a424.82 424.82 0 0 1-37.34-57.14C379.8 124.1 377 109.25 374 95.11c-4-19.36-6.56-39-9.7-58.58-.57-3.58.7-6.19 4.23-7.52l14.46-5.57c3.25-1.25 4.71.06 4.92 3.33.34 5.32.4 10.69 1.28 15.92.37 2.23 2.1 5.5 3.89 6 19.64 5.77 39.18 12.36 59.23 16.15a327.52 327.52 0 0 0 58.11 5.7c20.88.17 41.85-2 62.65-4.31 14.36-1.61 28.48-5.35 42.75-7.89 10.92-1.94 17.92-10 26.73-15.32l-.59-1.44c-1.49.36-3 .6-4.45 1.08C609.4 52.1 580.27 56.46 551 60c-7.11.84-14.23 1.74-21.38 2.12-3.69.19-7.44-1-11.16-1-3.2 0-6.79.26-9.5 1.71-7.55 4.07-14.21 4-21.28-1.28-4.91-3.63-10.69-6.09-16-9.19-3.94-2.29-7.9-2.69-11.8-.19-5.54 3.54-11.37 3.88-17.73 2.76-10.83-1.91-21.76-3.2-32.6-5-1.83-.31-3.45-1.87-5.16-2.85 1.61-1.73 2.94-4.47 4.88-5 5.43-1.5 11.16-1.85 16.68-3.09a49.54 49.54 0 0 1 25.05.61c27.52 7.86 55.85 11.13 84.28 13 10.36.67 20.92-.85 31.32-2 2.82-.32 5.6-2.74 8-4.69 3.44-2.81 7-4.14 11.51-3.52a97.66 97.66 0 0 0 13.43 1.09 10.14 10.14 0 0 0 6.31-2.08c3.97-3.59 7.45-7.66 11.15-11.52zM810 424.1l-22.21-12.31c-1.87-1-4.47-.5-6.73-.69.27-31.35-2.46-62.48-6.06-93.6-1-8.72.47-17.86 1.72-26.68 1.51-10.71 4.33-21.23 5.9-31.93.86-5.83 1.27-12 .24-17.77a282.15 282.15 0 0 1-4-47.68l-1.82-94.84c-.24-11.07 7-18.89 10.91-28.19l1.82.07c.78 3.28 2 6.52 2.27 9.83.65 7.86 4.29 12.65 12.36 13.65a3.77 3.77 0 0 1 2.32.8c1.51 1.89 4.29 4.29 3.94 5.92-5 22.87 4.27 44.13 7.14 66.07 1.15 8.73 3 17.4 5 26 2.23 9.75 2.65 19.36.28 29.16-1.53 6.35-.85 7.42 5.37 9.65 4.54 1.63 5.59 4.13 4.48 8.8-2.28 9.66-4.1 19.44-5.78 29.23-.85 5 1.11 9.31 3.92 13.54 11.33 17.08 11.9 17.26 8.26 37.3-4.1 22.59-9.35 45-14.59 67.34-.93 4-3.73 7.86-6.47 11.1-6.27 7.39-9.62 15.5-8.27 25.23zM644 130a67.4 67.4 0 0 1 5.24-5.68 109.23 109.23 0 0 0 31.4-45.49c1.55-4.24 3.78-4.2 7.2-2 6.64 4.34 6.81 4.16 8.85-3.63l5.33-19.54-1-1.12c-3.7 2.51-7.34 5.14-11.15 7.5a37.44 37.44 0 0 1-5.63 2.34 43.26 43.26 0 0 1-1.24-5.65c-.44-5.47-.89-10.95-1-16.43-.07-5.27.93-6 6-4.51l40.06 12.41 15.72 4.92c3.92 1.17 5.52 3.48 4.12 7.5-.11.32-.18.64-.27 1-5.12 18.64-2.32 14.11-19.16 20-12.64 4.45-24.76 10.4-37 15.94-1.56.71-2.62 2.9-3.51 4.6l-9.52 18.66c-.9 1.66-2.42 3.72-4 4.13-9.79 2.45-19.68 4.48-29.53 6.65a17.87 17.87 0 0 0-.91-1.6zm103.19-46.93c-2.12 8.1-3.87 16.32-6.51 24.24-1.73 5.15-5.17 9.71-7.14 14.81a36.43 36.43 0 0 1-17.43 19.64c-1.92 1-6 1.85-6.38 1.21-1.4-2.47-3.09-6.17-2.16-8.31 3.24-7.44 6.84-14.93 11.58-21.46C726.55 103 735 93.53 743 83.8a9.82 9.82 0 0 1 2.33-1.54zM389.08 184.48q-6.82-9.66-13.63-19.33c-3-4.23-5.75-8.59-8.85-12.71a59.42 59.42 0 0 1-10.6-22.93 211.42 211.42 0 0 0-7-25c-8.73-24.18-5.57-49.35-6.79-74.22 4.14 54.88 17.67 106.83 46.87 154.19zm-154.39 5.12l4.93 27.58c.92 5.75 1.44 11.56 2.08 17.35.64 5.94-.41 7.48-6 9-10.41 2.9-11.09 2.26-10.69-8.44a150.7 150.7 0 0 1 7.11-41.66 30.86 30.86 0 0 1 1-2.81c.14-.21.53-.32 1.57-1.02zm-39.76 225.21c-1.73 1.66-3.25 3.65-5.24 4.87-1.59 1-3.76 1-5.66 1.43-1.27-7.72 1.68-13.28 8.06-17.74 5.48-3.83 10.38-8.48 15.53-12.77l1.14 1c-3.61 5-7.4 9.94-10.72 15.15-1.52 2.41-2.1 5.37-3.11 8.06zM863 397.07l-16 11.86c2.8-7.56 9.41-11.78 14.23-17.57l1.32.53.45 5.18z" fill="#888"/></svg>