<svg xmlns="http://www.w3.org/2000/svg" viewBox="0 0 982 370.24"><defs><style>.a{fill:#999;}.b{fill:#888;}</style></defs><title>tshirt_vneck_sleeves</title><path class="a" d="M220.52,11.6q-.78-2.73-1.52-5.46c-1.13.63-2.24,1.28-3.32,2-9.22,6-17.2,13.91-25.85,20.83-2.52,2-5.54,3.42-8.22,5.26-5.8,4-11.79,7.7-17.21,12.13C156.61,52.72,149,59.4,141.79,66.4c-3.35,3.25-5.73,7.53-8.46,11.41l-8.74,12.73c-3,4.35-5.91,8.9-9.34,12.9C109,110.8,102.52,118,95.9,125c-7.87,8.29-15.72,16.6-24,24.43C64.91,156,57.28,162,50,168.24c-.61.52-1,1.27-1.61,1.83-6.91,6.62-13.73,13.41-20.91,19.75-5.16,4.56-11,8.33-16.27,12.78-2.83,2.4-5,5.53-7.59,8.26A44.93,44.93,0,0,1,0,214v5l24.17,21.88L40.12,254.7c11.78,10.18,23.78,20.1,35.25,30.61,12.63,11.59,25.07,23.4,35.52,37.21,3.45,4.52,8.46,7.85,12.77,11.72.24.21.67.24.84.48,6.89,9.32,17.11,13.28,27.33,17.49,4.12,1.7,7.94,4.14,11.88,6.28,17.59-29.23,35.18-58.41,52.77-87.9-.82-27.41-5.09-54.48-6.48-81.55C206.2,129.23,211.42,71.23,220.52,11.6Z"/><path class="a" d="M229,48c-1.38-12.41-5.08-24.39-8.48-36.44C211.42,71.23,206.2,129.23,210,189c1.39,27.07,5.66,54.14,6.48,81.55L218,268c-1-58,5-116,10-174C229,79,230,63,229,48Z"/><path class="a" d="M775,260.54c-1-8.68.47-17.86,1.72-26.68,1.51-10.71,4.33-21.23,5.9-31.93a57,57,0,0,0,.24-17.77,282.13,282.13,0,0,1-4-47.68L777,41.64c-.25-11.07,7-18.89,10.91-28.19l1.82.07c.78,3.28,2,6.52,2.27,9.83.65,7.86,4.29,12.65,12.36,13.65a3.81,3.81,0,0,1,2.32.8c1.51,1.92,4.29,4.29,3.94,5.92-5,22.87,4.27,44.13,7.14,66.07,1.18,8.73,3,17.4,5,26A61.83,61.83,0,0,1,823,165c-1.53,6.35-.85,7.42,5.37,9.65,4.54,1.63,5.59,4.13,4.48,8.8-2.28,9.66-4.1,19.44-5.78,29.23-.85,5,1.11,9.31,3.92,13.54,11.33,17.08,11.9,17.3,8.26,37.3-4.1,22.59-9.35,45-14.59,67.34-.93,4-3.73,7.86-6.47,11.1-6.22,7.39-9.54,15.5-8.22,25.23,2.85,3.62,6.53,3.87,10.14,1.76,5.36-3.11,10.42-6.77,15.67-10.11L847.06,352c2.8-7.57,9.41-11.78,14.23-17.57l1.32.53.41,5.18c3.64-2.59,7.48-4.94,10.88-7.82,10.32-8.74,20.61-17.52,30.61-26.62,4-3.71,7.26-8.36,11-12.47,2.6-2.86,5.39-5.57,8.15-8.29,8.24-8.12,16.72-16,24.72-24.36L982,224v-5h0c-3.53-3.49-7.19-6.87-10.52-10.46L948.05,183c-6.36-7-12.92-13.84-18.92-21.11L901.2,127.15l-17-21.58c-6.35-8-13.24-15.62-19-24C856.74,69.28,845.73,59,838.48,45.68c-3.39-6.25-9.88-10.82-14.88-16.18L806.3,11a9,9,0,0,0-2.52-1.4c-6-3-11.92-6-18-8.79L783.85,0C760.43,93.36,762.75,191,770,287c1.54,21.57,3.62,46.82,11,68.86,0-.58,0-1.17.06-1.76C781.29,322.79,778.56,291.66,775,260.54Z"/><path class="a" d="M219,6.14q.74,2.73,1.52,5.46c.34-2.27.69-4.55,1-6.82C220.7,5.21,219.85,5.67,219,6.14Z"/><path class="a" d="M235.69,186.6c-10.41,2.9-11.09,2.26-10.69-8.44a150.88,150.88,0,0,1,7.16-41.66c.3-.95.61-1.9,1-2.81.1-.24.53-.35,1.53-1.05,1.7,9.4,3.46,18.48,4.92,27.61.92,5.75,1.44,11.56,2.08,17.35S241.25,185.05,235.69,186.6Z"/><path class="a" d="M216.48,270.59c-17.59,29.49-35.18,58.67-52.77,87.9a49,49,0,0,0,5.43,2.59c4.65,1.83,9.87,2.13,14.87,3.13-1.27-7.74,1.68-13.28,8.06-17.74,5.48-3.83,10.38-8.48,15.53-12.77l1.14,1c-3.61,5-7.4,9.94-10.72,15.15-1.52,2.35-2.11,5.31-3.11,8l17.72-12.92c.39-12.56.56-25.23,2.37-37.89A236,236,0,0,0,216.48,270.59Z"/><path class="b" d="M189.69,362.72c2-1.22,3.51-3.21,5.24-4.87,1-2.69,1.59-5.65,3.11-8.06,3.32-5.21,7.11-10.15,10.72-15.15l-1.14-1c-5.15,4.29-10.05,8.94-15.53,12.77-6.38,4.46-9.33,10-8.06,17.74C185.93,363.72,188.1,363.72,189.69,362.72Z"/><path class="b" d="M863,340.11l-.45-5.18-1.32-.53c-4.82,5.79-11.43,10-14.23,17.57l16-11.86Z"/><path class="b" d="M788,13.45C784,22.75,776.8,30.57,777,41.64l1.82,94.84a282.13,282.13,0,0,0,4,47.68c1,5.77.62,11.94-.24,17.77-1.57,10.7-4.39,21.22-5.9,31.93-1.25,8.82-2.72,18-1.72,26.68,3.6,31.12,6.33,62.25,6.06,93.6,2.26.19,4.86-.31,6.73.69L810,367.14c-1.35-9.73,2-17.84,8.27-25.23,2.74-3.24,5.54-7.1,6.47-11.1,5.24-22.34,10.49-44.75,14.59-67.34,3.64-20,3.07-20.22-8.26-37.3-2.81-4.23-4.77-8.54-3.92-13.54,1.68-9.79,3.5-19.57,5.78-29.23,1.11-4.67.06-7.17-4.48-8.8-6.22-2.23-6.9-3.3-5.37-9.65,2.37-9.8,1.95-19.41-.28-29.16-2-8.6-3.85-17.27-5-26-2.87-21.94-12.14-43.2-7.14-66.07.35-1.63-2.43-4-3.94-5.92a3.81,3.81,0,0,0-2.32-.8c-8.07-1-11.71-5.79-12.36-13.65-.27-3.31-1.49-6.55-2.27-9.83Z"/><polygon class="b" points="810 367.14 810 367.14 810 367.14 810 367.14"/><path class="b" d="M239.62,160.22l-4.93-27.58a12.27,12.27,0,0,0-1.57,1c-.38.92-.71,1.86-1,2.81A150.52,150.52,0,0,0,225,178.13c-.4,10.7.28,11.34,10.69,8.44,5.59-1.52,6.64-3.06,6-9C241.06,171.78,240.54,166,239.62,160.22Z"/></svg>