<svg xmlns="http://www.w3.org/2000/svg" viewBox="0 0 970.25 927.52"><defs><style>.a{fill:#999;}.b{fill:#888;}</style></defs><title>tshirt_sleeves</title><path class="a" d="M227.17,333.24c-1,17.25-.8,34.58-1.13,51.87L228,322C227.66,325.73,227.39,329.48,227.17,333.24Z" transform="translate(-13.55 -66.48)"/><path class="a" d="M236,307c-1.26-15.42-2.09-30.84-2.62-46.26-.42,4.64-.84,9.28-1.21,13.91-1.22,15.78-3,31.54-4.22,47.32L226,385.11c2.34,4,4.59,7.79,3.59,13a33.92,33.92,0,0,0-.23,8.26C237.52,374.21,238.79,340,236,307Z" transform="translate(-13.55 -66.48)"/><path class="a" d="M109,206c-6.73,5.21-14.2,9.74-19.73,16-3.52,3.95-4.26,10.49-5.82,16-.22.78,1.85,2.56,3.17,3.36,9.14,5.48,18.28,11,27.59,16.13,3.3,1.83,3.48,3.36,1.83,6.64C112,272.28,105,277.66,98.54,283.66a20.3,20.3,0,0,0-5.33,7.46c-4.08,11.62-7.41,23.51-11.64,35.07-1.84,5-.91,8.61,2.44,12.2l5.95,6.7c3.45,3.69,6.66,7.63,10.39,11,6.36,5.74,13.15,11,19.56,16.69L163.79,412l20.28,5.09,5.92-5.93,11.42-26c3.16-7,7-13.68,9.68-20.82,1.66-4.39,2-9.34,2.66-14.07,3.47-23.85,2.54-47.84.8-71.7-.7-9.94-4.29-19.86-7.7-29.39-6.34-17.76-7.95-36-6.85-54.56a12.27,12.27,0,0,0-4.34-10.57c-4.67-4.26-9.14-8.77-13.43-13.42a10.9,10.9,0,0,0-9.82-3.6c-15.29,1.43-25.48,9.13-31.61,23.43-7.05,16.47-15.19,32.49-23.48,50l-4.9-35.81A14.34,14.34,0,0,0,109,206Z" transform="translate(-13.55 -66.48)"/><path class="a" d="M235.67,67.06l-.76.35c-.17,19-.56,38.11-1,57.16Z" transform="translate(-13.55 -66.48)"/><path class="a" d="M783.12,398.07h0a43.4,43.4,0,0,1-6.39-23.33c.5-13.14.24-26.32.11-39.47-.25-25.14-1.15-50.28-.82-75.4.27-21.26,1.27-42.57,3.27-63.73,1-10.64,4.92-21,7.92-31.43l20.4-68.46a3.92,3.92,0,0,1,2-2.5l-1,8.86q-5.83,44.78-11.59,89.54a54.64,54.64,0,0,0-.15,6c-.34,25.13,0,50.3-1.27,75.38-.77,15.9-4.85,31.6-6,47.5-1.36,18.72-1.22,37.56-1.45,56.35,0,2.09,1.43,4.41,2.69,6.28l20.64,30.07a46,46,0,0,1,2.41,4.31c3.68,2.54,7.25,5.18,11,7.54a4.15,4.15,0,0,0,3.53.12,49.36,49.36,0,0,0,6.93-4.7c9.51-7.54,19.47-14.52,28-23.4,10.16-10.58,21-20.46,31.6-30.65l-12-14.6L880.78,358c-2.78-3.56-5.12-6.44-7.34-9.44-3.48-4.66-7.08-9.25-10.2-14.14-1.08-1.69-1.89-4.76-1.08-6.26l18.58-32.42c.2-.35.76-.48,2-1.24-.49,3.54-.78,6.39-1.29,9.19l-4,21.06c-.69,3.33.14,5.07,3.82,5.18,9.12.29,18.24.84,27.36,1,10.43.17,10.43,0,14.2,9.87,7.11-6.27,14.41-12.34,21.29-18.85L970,296.38a29.77,29.77,0,0,0,3-4.38l1.91-9.41a61.06,61.06,0,0,0-6.27,2.94L950.42,297c-2.78,1.8-4.87,2.13-7.21-.92-3.12-4.09-6.72-7.81-10.17-11.64-2.55-2.85-3.16-5.49-.61-8.85a125.6,125.6,0,0,0,9.12-13.72c2.55-4.5,5.75-5.3,10.39-3.73,6.31,2.12,12.75,3.85,19.13,5.75l-23.44-25.09-17.62-20c-1.33,3.69-3.23,7.24-3.88,11-1.14,6.71-1.6,13.53-2.19,20.32-.26,2.9-1.5,3.8-4.26,2.9l-9.09-2.72c-3-.87-3.63-2.44-1.82-5.13L919,229.58c-3.33-.53-6.6-1.44-9.88-1.44-2.13,0-4.92.52-6.31,1.92A153.68,153.68,0,0,0,890.69,244c-2.18,2.78-4.32,3.18-7.32,1.65-5.18-2.67-10.28-5.58-15.7-7.67a15.3,15.3,0,0,0-8.86-.41c-5.35,1.41-10.48,3.71-15.7,5.65l-.68-1.18,27.64-22.34-.5-1.22c-17.18,3.24-34.4,6.38-50.4,14.38L818,231.66c2.19-9,3.79-18.11,6.68-26.84l15.47-42.15c2.21-5.93,13.69-8.65,19.87-4.65l31.77,20.78a62.72,62.72,0,0,0,6.2,3.08l-23.25-27-30.35-36.56-7.16-8.69c-6.25-7.47-12-15.44-18.9-22.25-8-7.87-17.68-13.49-28.2-17.87-2.26-.94-4.48-2-6.69-3C776,129.9,775,191.5,774,255c-1,25-3,51-5,76-1.68,23.15.18,48.78,7.15,72C777.05,400.51,779,399.45,783.12,398.07Z" transform="translate(-13.55 -66.48)"/><path class="a" d="M233.93,124.57l-1.72,56.86c.19,1.46.38,2.92.56,4.38C233,165.4,233.49,145,233.93,124.57Z" transform="translate(-13.55 -66.48)"/><path class="a" d="M234.91,67.41c-7.34,3.32-14.64,6.78-21.65,10.72-6.86,3.81-12.91,9.16-19.33,13.81l13.48,20.93c4.33,6.9,8,14.33,12.88,20.78,7.52,9.83,8.81,21.28,10.09,32.83.55,5,1.19,10,1.83,15l1.72-56.86C234.35,105.52,234.74,86.46,234.91,67.41Z" transform="translate(-13.55 -66.48)"/><path class="b" d="M779.45,196.25c-2,21.16-3,42.47-3.27,63.73l.82,75.4c.13,13.15.39,26.33-.11,39.47-.32,8.57,2.05,16,6.23,23.22h0a30.19,30.19,0,0,1,3.93,1.89l27,18.19c-.8-1.44-1.48-3-2.41-4.31L791,383.77c-1.26-1.87-2.69-4.19-2.69-6.28.23-18.79.09-37.63,1.45-56.35,1.1-15.9,5.18-31.6,6-47.5,1.27-25.08.93-50.25,1.27-75.38a54.64,54.64,0,0,1,.15-6q5.82-44.76,11.59-89.54l1-8.86a3.92,3.92,0,0,0-2,2.5l-20.4,68.46C784.35,175.2,780.45,185.61,779.45,196.25Z" transform="translate(-13.55 -66.48)"/><path class="b" d="M235.65,219.4a307.38,307.38,0,0,0-2.88-33.48c-.29,24.92-.24,49.83.61,74.74C234.64,246.9,235.87,233.14,235.65,219.4Z" transform="translate(-13.55 -66.48)"/><path class="b" d="M232.77,185.92c-.82-6.5-1.69-13-2.41-19.52-1.28-11.55-2.57-23-10.09-32.83-4.88-6.45-8.47-13.75-12.88-20.78L193.91,91.86l-1,.94-20.26,38.41a9.55,9.55,0,0,1-5.33,4c-8,2.29-14.18,7.14-19.89,12.81-7.43,7.36-14.93,14.66-22.14,22.23-3.5,3.64-7.44,6.1-12.44,6.64L97.64,191.56,86.75,202l-13.27,12.9L54.9,232.86q3.38,13.66,6.77,27.33l-1.09.42q-4.81-11.36-9.65-22.72c-.62.21-1.42.24-1.84.66Q35,252.73,20.94,267L23,270a69.86,69.86,0,0,0,27.7,26.85c7,3.77,6.8,4,3.6,11.53a46,46,0,0,0-1.43,4.73L85.06,342a38.09,38.09,0,0,0,4.9,3.14C88,342.88,86,340.6,84,338.42c-3.35-3.59-4.28-7.2-2.44-12.2,4.23-11.56,7.56-23.45,11.64-35.07a20.3,20.3,0,0,1,5.33-7.46c6.46-6,13.46-11.38,17.5-19.56,1.65-3.28,1.47-4.81-1.83-6.64L86.62,241.36c-1.32-.8-3.39-2.58-3.17-3.36,1.56-5.47,2.3-12,5.82-16,5.53-6.29,13-10.82,19.73-16a14.11,14.11,0,0,1,3.42-1.33l4.9,35.81c8.29-17.5,16.43-33.52,23.48-50,6.13-14.3,16.32-22,31.61-23.43a10.9,10.9,0,0,1,9.82,3.6c4.29,4.65,8.76,9.16,13.43,13.42A12.29,12.29,0,0,1,200,194.63c-1.15,18.56.51,36.8,6.85,54.56,3.41,9.53,7,19.45,7.7,29.39,1.74,23.86,2.67,47.85-.8,71.7-.66,4.73-1,9.68-2.66,14.07-2.68,7.14-6.52,13.82-9.68,20.82l-11.42,26a29.64,29.64,0,0,0,3.76-2.51l18.49-17.14C216.15,388,220,384,226,385c.33-17.29.13-34.62,1.13-51.87,1.09-19.59,3.45-39.05,5-58.59.38-4.64.81-9.27,1.23-13.91C232.53,235.75,232.48,210.84,232.77,185.92Z" transform="translate(-13.55 -66.48)"/><path class="b" d="M869.67,218.57l.5,1.22-27.64,22.34.68,1.18c5.22-1.94,10.35-4.24,15.7-5.65a15.3,15.3,0,0,1,8.86.41c5.42,2.09,10.52,5,15.7,7.67,3,1.53,5.14,1.13,7.32-1.65a153.68,153.68,0,0,1,12.07-13.93c1.39-1.4,4.18-1.92,6.31-1.92,3.28,0,6.55.91,9.88,1.44l-10.18,15.56c-1.81,2.69-1.27,4.26,1.82,5.13s6.09,1.72,9.09,2.72c2.76.9,4,0,4.26-2.9.59-6.79,1.05-13.61,2.19-20.32.65-3.8,2.55-7.35,3.88-11h0L920.92,208Q909.54,195,898.13,182a62.72,62.72,0,0,1-6.2-3.08l-31.77-20.78c-6.18-4-17.66-1.28-19.87,4.65-5.22,14-10.75,27.95-15.47,42.15-2.89,8.73-4.49,17.84-6.68,26.84l1.13,1.19C835.29,225,852.49,221.81,869.67,218.57Z" transform="translate(-13.55 -66.48)"/><path class="b" d="M881.61,303.75c.51-2.8.8-5.65,1.29-9.19-1.29.76-1.85.89-2,1.24-6.27,10.76-12.64,21.42-18.58,32.42-.81,1.5,0,4.57,1.08,6.26,3.12,4.89,6.72,9.48,10.2,14.14l7.34,9.44,2.17-5.61,12,14.6L923,340.86c-3.77-9.87-3.77-9.7-14.2-9.87l-27.36-1c-3.68-.11-4.51-1.85-3.82-5.18Z" transform="translate(-13.55 -66.48)"/><path class="b" d="M982.06,284.47c2.24-1.86,2.22-3.84.53-6l-11.42-14.55c-6.38-1.9-12.82-3.63-19.13-5.75-4.64-1.57-7.84-.77-10.39,3.73a125.6,125.6,0,0,1-9.12,13.72c-2.55,3.36-1.94,6,.61,8.85,3.45,3.83,7.05,7.55,10.17,11.64,2.34,3.05,4.43,2.72,7.21.92l18.18-11.44,6.27-2.94-1.91,9.41Z" transform="translate(-13.55 -66.48)"/><polygon class="b" points="959.51 225.58 959.51 225.58 959.51 225.58 959.51 225.58"/><path class="a" d="M23,270c.2,1.35.07,3,.76,4.07l13.73,21.26a48.54,48.54,0,0,1,2.44,4.83l12.94,12.95a46,46,0,0,1,1.43-4.73c3.2-7.53,3.4-7.76-3.6-11.53A69.86,69.86,0,0,1,23,270Z" transform="translate(-13.55 -66.48)"/><path class="a" d="M125.29,170.28l22.14-22.23c5.71-5.67,11.89-10.52,19.89-12.81a9.55,9.55,0,0,0,5.33-4l20.26-38.41h0a25.13,25.13,0,0,0-4,2.79c-2.59,2.65-4.87,5.6-7.45,8.26-7.42,7.71-15.09,15.16-22.35,23l-32.76,36.19c-4.35,4.75-9,9.24-13.5,13.85C117.89,176.38,121.79,174,125.29,170.28Z" transform="translate(-13.55 -66.48)"/><path class="b" d="M60.58,260.61l1.09-.42q-3.37-13.66-6.77-27.33l-4,5Q55.77,249.25,60.58,260.61Z" transform="translate(-13.55 -66.48)"/><polygon class="b" points="150.24 345.52 150.24 345.52 150.24 345.52 150.24 345.52"/><path class="b" d="M184.08,417.08,163.79,412c1.81,1.64,3.69,3.19,5.41,4.88C176.19,423.81,176.44,423.83,184.08,417.08Z" transform="translate(-13.55 -66.48)"/><path class="b" d="M301.09,986a7,7,0,0,0-4.33.21l-16.66,6.65h40.76C314.27,990.58,307.72,988.19,301.09,986Z" transform="translate(-13.55 -66.48)"/><path class="b" d="M218.09,993.89c8.66,0,17.31.17,26,.07,4-.05,8-.57,12-.88C243.34,990.27,230.61,987.09,218.09,993.89Z" transform="translate(-13.55 -66.48)"/><path class="b" d="M23,270c-.72-1-1.41-2-2.06-3l-7.39,5c7.31,11.2,17.42,19.2,26.42,28.2a48.54,48.54,0,0,0-2.44-4.83L23.8,274.1C23.11,273,23.24,271.38,23,270Z" transform="translate(-13.55 -66.48)"/></svg>