<svg xmlns="http://www.w3.org/2000/svg" viewBox="0 0 575.26 985.82"><defs><style>.a{fill:#999;}.b{fill:#888;}</style></defs><title>tshirt</title><path class="a" d="M769,331c2-25,4-51,5-76,1-63.5,2-125.1,9.48-188.52-9.61-4.64-18.9-10.12-29-13.22-11.44-3.51-22.1-8.38-33.1-12.89-5.38-2.23-10.59-5-16-7.3-6.94-2.95-14.14-5.38-21-8.55-7.63-3.52-15-7.61-22.46-11.45.72,7.28.85,14.69,2.34,21.81,1.64,7.84-.19,14.17-4.62,20.62s-4.12,6.55,1.67,11.45c3.31,2.78,6.52,5.68,9.69,8.62,1,.89,2.32,2.06,2.32,3.13L673.47,99c-6.25-3.85-11.65-7-16.88-10.43-3.76-2.47-7.31-4.62-11.92-1.75-.83.52-3,0-3.83-.79-3.72-3.78-4.29-10.7-1.72-15.29L647.81,55c1.08-1.93,3.05-4.21,0-6-2.57-1.51-5.48-3-8.19-.14s-5.1,6.16-8,8.88Q602.54,85.1,573.2,112.1a16.3,16.3,0,0,1-6.1,3.22q-27.39,8.72-54.9,17a12.86,12.86,0,0,1-7.22.33l-54-18.24a28.36,28.36,0,0,1-3-1.55c3.32-1.38,5.68-3,8.2-3.31,18.48-2.3,36.93-5.15,55.48-6.3,12-.75,24.23,1,36.34,1.75a19.59,19.59,0,0,0,13.51-4c6.37-4.69,13-9.07,19-14.69l-28.89,4c-10.55,1.48-21.06,3.33-31.65,4.33-5.57.52-11.28-.38-16.91-.79q-19.14-1.41-38.28-3c-2.11-.18-4.19-.76-7.19-1.32,4.87-3.86,9-6.81,14.74-6.6,11,.41,21.92.4,32.92,1.08,21.52,1.33,42.43-2.65,63.43-6.47,7-1.29,14.1-2.56,21.19-3.51,4.12-.59,6.43-2,6.25-6.59-.11-2.63.67-5.28.83-7.93.24-3.76-1.33-4.9-4.84-3.12-7.43,3.77-15.06,7.18-22.31,11.27A47.27,47.27,0,0,1,549,73.8c-12.11.73-24.32.75-36.32,2.33C496,78.31,480.22,74,464.41,70.39c-10.9-2.48-21.53-3.85-32.53-1.39-10.82,2.39-21.88,3.81-32.49,7.06-7.51,2.3-8,12-1.27,16.57q24,16.25,48.35,31.91l50.69,32a13.66,13.66,0,0,0,11.63,2.1c27.91-6.74,55.31-14.92,81.38-27.12,2.22-1,4.6-1.74,6.9-2.59l1.28,1.4c-2.28,2.46-4.1,5.8-6.9,7.23-17.66,9-35.44,17.92-53.44,26.09-4.22,1.91-9.73,1.13-14.73,1.13-5.31,0-10.62-.59-15.93-.79-10.64-.4-21.29-.56-31.92-1.16a18,18,0,0,1-7.47-2.47c-16.55-9.3-33.1-18.61-49.42-28.3-3.77-2.24-6.83-5.81-9.9-9.06-7.64-8.11-14.56-17-22.84-24.42C376.44,90.2,366,83,355.8,75.51c-7-5.12-14.32-9.74-21.19-15A9.58,9.58,0,0,1,331.2,54c-.12-7.14.52-14.28.88-21.42.17-3.29,2.17-3.83,4.85-3.11l13.48,3.75,9.27,2.21c-2-4.25-4.79-7.58-4.83-11.08s2.65-7,4.15-10.55L329.38,26.25,282.31,47.17c-13.31,5.83-26.8,11.07-40.05,17l-6.59,2.93-1.74,57.51c-.44,20.41-.92,40.83-1.16,61.24a303.28,303.28,0,0,1,2.9,33.67c.22,13.74-1,27.5-2.29,41.26.53,15.42,1.36,30.84,2.62,46.26,2.79,33,1.52,67.21-6.6,99.37.09,1.52.19,3.05.23,4.56.47,19.07,1.59,38.07,1.3,57.07l-2.84,72.64c-.7,15.72-1.6,31.43-2,47.15L225,652.66q-.34,19.37-1,38.72-.9,26.32-2,52.64l-2,42.1-2,45.64-1,30.3c-.16,7.27.18,14.55-.1,21.81-.46,11.94-1.43,23.87-1.83,35.81-.37,11.09,0,22.22-.48,33.3-.57,11.86-2,23.68-2.78,35.54-.38,5.55.74,6.3,6.32,5.4,12.55-6.81,25.28-3.62,38-.81l24-.19c5.54-2.24,11.06-4.56,16.66-6.65a7,7,0,0,1,4.33-.21l19.77,6.86c9.26-.28,18.51-.79,27.78-.79,18.29,0,36.58.36,54.87.25l100.29-.94c17.67-.14,35.33-.08,53-.08l45.31-.21q26.18.06,52.36.33c11.49.11,23,.56,34.44.56q32.71.11,65.43-.11l27.91-.75c3.62-.08,5-1.61,4.68-5.31-.37-4.77-.23-9.58-.37-14.37q-.55-19.92-1.16-39.92l-1.07-33.17L784,866.34l-.82-31-.71-35.3-1.15-32.75-1.27-41.22c-.46-10.77-1.62-21.51-1.91-32.28l-.76-54.1L776.07,571l-1-68.32.33-92.46c0-3.32.17-5.54.75-7.17C769.18,379.78,767.32,354.15,769,331Z" transform="translate(-211.75 -8.42)"/><path class="b" d="M671.07,75.62c-3.17-2.94-6.38-5.84-9.69-8.62-5.79-4.9-6.06-5.08-1.66-11.45s6.26-12.78,4.62-20.62c-1.49-7.12-1.62-14.53-2.34-21.81l-9.09-3c-9.78,10.92-21.25,19.7-34.71,24.92A239.9,239.9,0,0,1,579,46.66c-11.77,2.36-24,2.58-36,3.28-11.28.67-22.62,1.42-33.87.93-30-1.29-59-8.25-87.74-16.63-16.27-4.75-29.93-14.37-43.81-23.55-4.46-2.95-9.19-3.07-13.61-.07l-5,3.18c-1.5,3.55-4.19,7.12-4.15,10.55s2.83,6.83,4.83,11.08c-3.55-.84-6.43-1.45-9.27-2.21L336.9,29.47c-2.68-.72-4.68-.18-4.85,3.11-.36,7.14-1,14.28-.88,21.42a9.59,9.59,0,0,0,3.44,6.53c6.87,5.24,14.19,9.86,21.19,15,10.13,7.5,20.61,14.69,30,23.07C394.08,106,401,114.89,408.64,123c3.07,3.25,6.13,6.82,9.9,9.06L468,160.35a18,18,0,0,0,7.47,2.47L507.35,164c5.31.2,10.62.79,15.93.79,5,0,10.51.78,14.73-1.13,18-8.17,35.78-17.09,53.44-26.09,2.8-1.43,4.62-4.77,6.9-7.23l-1.28-1.4c-2.3.85-4.68,1.59-6.9,2.59-26.07,12.2-53.47,20.38-81.38,27.12a13.66,13.66,0,0,1-11.63-2.1l-50.69-32q-24.35-15.7-48.35-31.91c-6.73-4.57-6.24-14.27,1.27-16.57C410,72.81,421.06,71.39,431.88,69c11-2.46,21.63-1.09,32.53,1.39C480.22,74,496,78.31,512.68,76.13c12-1.58,24.21-1.6,36.32-2.33a47.17,47.17,0,0,0,20.84-6.09c7.25-4.09,14.88-7.5,22.31-11.27,3.51-1.78,5.08-.64,4.84,3.12-.16,2.65-.94,5.3-.83,7.93.18,4.59-2.13,6-6.25,6.59-7.09,1-14.19,2.22-21.19,3.51-21,3.82-41.91,7.8-63.43,6.47-10.92-.68-21.92-.67-32.92-1.08-5.74-.21-9.87,2.74-14.74,6.6,3,.56,5.08,1.14,7.19,1.32q19.14,1.57,38.28,3c5.63.41,11.34,1.31,16.91.79,10.59-1,21.1-2.85,31.65-4.33l28.89-4c-6.06,5.62-12.67,10-19,14.69a19.56,19.56,0,0,1-13.52,4c-12.11-.75-24.34-2.5-36.34-1.75-18.55,1.15-37,4-55.48,6.3-2.52.31-4.88,1.93-8.2,3.31a28.36,28.36,0,0,0,3,1.55l54,18.24a12.86,12.86,0,0,0,7.22-.33q27.49-8.36,54.9-17a16.3,16.3,0,0,0,6.1-3.22q29.32-27,58.42-54.32c2.88-2.72,5.29-6,8-8.88s5.62-1.37,8.19.14c3,1.77,1,4,0,6l-8.69,15.74c-2.57,4.59-2,11.51,1.72,15.29.78.79,3,1.31,3.83.79,4.61-2.87,8.16-.72,11.92,1.75L673.5,99.09c0-7.6.11-14-.11-20.34C673.36,77.68,672.07,76.51,671.07,75.62Z" transform="translate(-211.75 -8.42)"/></svg>