<svg xmlns="http://www.w3.org/2000/svg" viewBox="0 0 576.81 996.99"><defs><style>.a{fill:#999;}.b{fill:#888;}</style></defs><title>tshirt_vneck2_1</title><path class="a" d="M572.58,871.19c-.5-13.29-1.41-26.57-1.56-39.87l.35-48c0-10.59-.47-21.18-.39-31.77.07-9.91.77-19.82.87-29.73V675.61c0-12.16.13-24.33-.1-36.49L570.37,590q-.75-25.9-1.53-51.8c-.28-9.29-1-18.59-.83-27.88.19-8.54,1.44-17.05,2-25.59.45-6.9.78-13.82.78-20.72,0-5.75-1.16-11.54-.75-17.24.57-8,2.23-15.83,3.23-23.83.41-3.31.44-6.71.55-10.12-7.33-22.05-9.41-47.29-11-68.86-7.25-96-9.57-193.69,13.84-287a69.29,69.29,0,0,0-8.6-3.07c-6.93-1.93-13.08-7.08-21-5-1.13.27-2.57-.31-3.79-.73-7.54-2.63-15.12-5.14-22.54-8.07-5.14-2-9.94-4.8-15-6.92-3.46-1.45-7.3-2-10.71-3.58-5.57-2.52-10.87-5.63-16.39-8.26l-20-9.06c-2.23-1-3.62-4.4-6.88-2.28,10.25,3.15,11.84,11.51,12,20.41v38c-.07,7-6.32,9.72-10.07,14.19-2.5,3-5.53,5.9-6.79,9.4-11.59,32.21-25.83,63.21-41.38,93.65a27.19,27.19,0,0,1-4.44,6.58L365.46,228a4.29,4.29,0,0,1-3.59,1.24c2.7-4.06,5.07-8.39,8.15-12.13,18.21-22.13,32-47.13,47.21-71.13a14.79,14.79,0,0,0,2.45-6.42,264.92,264.92,0,0,1,9.09-53.1,4.1,4.1,0,0,0-.59-3.48c-3.16,6.89-6.1,13.89-9.51,20.66-11.39,22.6-22.24,45.48-34.75,67.48-5.93,10.36-15.44,18.71-22.79,28.36-16.64,21.82-38.55,38.06-58.55,56.34-3.7,3.43-7.12,4-11.64,1.43-8.91-5-18.13-9.28-27-14.22a36.23,36.23,0,0,1-8.45-6.9c-13.13-13.93-27.26-27.12-38.82-42.27a423.93,423.93,0,0,1-37.34-57.14c-6.68-12.49-9.52-27.35-12.46-41.49-4-19.36-6.56-39-9.7-58.58-.57-3.58.7-6.19,4.23-7.52l14.46-5.57c3.25-1.25,4.71.06,4.92,3.33.34,5.32.4,10.69,1.28,15.92.37,2.21,2.1,5.48,3.89,6,19.64,5.77,39.18,12.36,59.23,16.15a327.52,327.52,0,0,0,58.11,5.7c20.88.17,41.85-2,62.65-4.31,14.36-1.61,28.48-5.35,42.75-7.89,10.92-1.94,17.92-10.05,26.73-15.32-.2-.44-.4-1-.59-1.44-1.45.36-3,.6-4.45,1.08C402.25,52.16,373.12,56.52,343.81,60c-7.11.84-14.23,1.74-21.38,2.12-3.69.17-7.44-1.06-11.16-1-3.2,0-6.79.26-9.5,1.71-7.55,4.07-14.21,4-21.28-1.28-4.89-3.63-10.67-6.09-16-9.19-3.94-2.29-7.9-2.69-11.8-.19-5.54,3.54-11.37,3.88-17.73,2.76l-32.6-5c-1.83-.31-3.45-1.85-5.16-2.85,1.61-1.73,2.94-4.47,4.88-5,5.43-1.5,11.16-1.85,16.68-3.09a49.55,49.55,0,0,1,25.1.53c27.52,7.89,55.85,11.16,84.28,13,10.32.7,20.92-.82,31.32-2,2.82-.32,5.6-2.74,8-4.69,3.44-2.81,7-4.14,11.51-3.52a97.28,97.28,0,0,0,13.43,1.09,10.2,10.2,0,0,0,6.31-2.08c4-3.53,7.44-7.6,11.1-11.46-5.89,2.09-11.71,4.29-17.71,6.24a37.53,37.53,0,0,1-7.91,1.61c-8.95.88-17.95,1.41-26.88,2.41-8.1.94-16.1,2.23-24.1,3.72a116,116,0,0,1-42.52-.24c-4.56-.84-9.38-.23-13.95-1.06-7.85-1.42-15.56-3.66-23.4-5.17-6.07-1.16-12.28-1.56-18.37-2.64-2.66-.47-5.13-1.94-7.76-2.73-9.38-2.82-19.31-4.46-28.06-8.6-9.49-4.47-17.88-11.26-26.77-17-1.45-.94-3.22-1.43-4.51-2.51a22.24,22.24,0,0,1-3-3.9h-2c-12.74,4.12-23.65,11.6-34.82,18.6-4.28,2.68-9.43,4-14.16,6-5.15,2.18-10.19,4.59-15.41,6.59-8.07,3.11-16.62,5.13-24.26,9-8.24,4.17-17.82,3-25.82,8.26-4.35,2.85-10.15,3.34-15.15,5.39-6.27,2.59-12.79,4.87-18.81,7.9q-.54,3.41-1.06,6.81c3.41,12,7.11,24,8.49,36.45,1,15,0,31-1,46-5,58-11,116-10,174-.51.85-1,1.69-1.52,2.54A236.19,236.19,0,0,1,7.87,364c-1.81,12.66-2,25.32-2.37,37.89l2-1.45c-.18,2.86-.45,4.47-.36,6.06L9,437.81c.35,6.29.46,12.58.92,18.86,1,13.33,2.4,26.57,3.14,39.86.68,10.78.66,21.59,1,32.38.12,3.85.74,7.71.58,11.54L13,566.87l-1.21,16.91c-.73,10.47-1.72,21-2.13,31.47q-1.07,26.07-1.42,52.14c-.16,11.11.48,22.23.41,33.34C8.53,714.8,9,729,7.53,742.89c-1.22,11.34-.92,22.51-.92,33.8,0,10.3-1.86,20.58-2.68,30.89-.52,6.85-.83,13.87-1,20.6l-.07,20.2-.54,32.44L1.7,931.46C1.34,946,.29,960.57,0,975.14a74.3,74.3,0,0,0,1.86,17.58c.39,1.78,3.91,2.86,6,4.26H21l15.55-1.19c3.41-.25,6.83-.54,10.26-.61q11.66-.28,23.35-.28c7.31,0,14.66.08,22,.08,17.28,0,34.56.25,51.83-.08l55.61-1.85c12.64-.33,25.29-.24,37.94-.24,12.86,0,25.72.16,38.58.16,10.82.06,21.65.21,32.47,0l47.23-1.34c7.52-.16,15.06.12,22.59.12.56,0,1.12-.45,1.68-.69-3.56-.68-7.11-1.95-10.67-1.95-16.34-.22-32.69.34-49-.22-15.8-.55-31.55-2.25-47.34-3.17-9-.52-18-.5-27-.72-6.27-.13-6.67-.77-6.46-7a52.73,52.73,0,0,0-.9-10.34c-.57-3.25-2.14-4.25-5.14-1.74-8.45,7.11-8.69,7.32-17.74,1-11-7.66-22.65-13.43-36.16-14.43-3.18-.22-7.1.48-9.64,2.25-15.84,11-9.66,10.43-28,3.88-1.1-.39-2.21-.76-3.3-1.19-4-1.61-5.71-.06-5.71,4v12.06l-2,.58c-3.13-2.61-6.14-5.38-9.43-7.78a28.4,28.4,0,0,0-7.33-4c-14.39-4.85-29.17-4.14-44-2.85-7.13.63-14.28,1-21.43,1.35-2.61.08-5.52-.92-2.86-3.92,6.31-7.23,3.74-14.9,1.53-22.23-3.09-10.27-3.14-10.6,7.23-9.81,3.09.2,6.22,0,10.5,0L57,919.39c2.95-4,6.45-4.28,10.45-3.52,6.67,1.27,7.15,1,9.52-5.41,2.89-7.82,5.36-15.8,8.6-23.46,3.64-8.62,10.25-10.49,18.19-5.81.58.32,1.12.72,1.72,1,4.46,2,9.64,6.56,13.22,5.56,6-1.73,11-7,16.43-10.8a6.7,6.7,0,0,0,1.25-1.55c5.72-7.77,12.41-13.89,22.87-13.89,1.4,0,2.75-.81,5.4-1.64l-7.52-6.8c-3.16-2.91-3-4.39,1-6.08,3.67-1.55,7.53-2.67,11.28-4.07a11.77,11.77,0,0,0,5.06-3.51l-19.88-7.7v-1.22a16.69,16.69,0,0,1,3.84-1.29,63,63,0,0,0,36.74-15.15c3.1-2.65,7.57-4.09,11.66-5.09,8.75-2,17.65-3.51,26.52-5,4.73-.79,5.36.09,4.22,4.79a2.85,2.85,0,0,0-.13.48c-1.18,9.59-6,14.91-16.23,15.16-4.77.12-9.48,1.79-14.25,2.55-3.58.58-5.51,2.28-6.22,6-2.94,15.26-3,15.25,12.21,16.78,8.46.85,9.73.15,10.46-8.29.49-5.72,3.09-8.7,8.36-10.24,4.67-1.35,9.15-3.1,13.67-4.82,3.36-1.27,5.45-.33,6.5,3.11,1.42,4.62,3,9.2,4.3,13.84,1.21,4.32,3.66,5.76,8.21,4.83,9.08-1.83,18.27-3.25,27.83-6l-12.45-5.06-12.61-5.24v-1.66c3.72-1.59,7.37-3.37,11.17-4.72,4.29-1.51,5.85-4.1,4.29-8.44a1.63,1.63,0,0,1-.13-.48C281,804,275,795.78,262,792.26c-7.38-2-14.08-6.61-21-10.2-3.78-2-4-4.84-1.71-8.3,2-3,3.7-6.17,5.54-9.26l2,.28v8.92c.12,6.41.83,6.18,6.9,6.66,14,1.13,24.36-4.77,33-14.87,2.58-3,5.45-3.31,9-1.8l19.48,7.82c3.4,1.43,6.24.67,7-3,2.33-11.14,9.67-18.12,18.57-24.25,5.34-3.67,5.11-4.54.55-9.19L339.31,733c-5.76-5.79-6-9.15-.33-15.15a5.91,5.91,0,0,1,5.14-1.39c7,2.63,13.85,5.7,20.74,8.7,3.23,1.37,3.59,3.54,1.67,6.37l-9.14,13.73c-3.21,4.72-3.19,9.33.3,13.86,6.1,7.92,12.05,16,18.45,23.64a13.7,13.7,0,0,0,7.18,3.91c10.24,2.28,20.62,3.94,30.87,6.22,6.3,1.39,11.16-.07,14.77-5.46.18-.27.42-.51.63-.77,6.69-8.29,7.66-8.23,14.49.18,2.36,2.91,2.12,4.9-1.21,6.76q-13.31,7.46-26.52,15.07-9,5.28-2.6,13.52c1.31,1.71,3,3.11,4.46,4.71,2.49,2.78,5.37,3.1,8.49,1.1,9.09-5.86,18.39-11.43,27.17-17.72,6-4.33,11.75-8.76,19.16-10.33,1.06-.22,2-.92,3.16-2.7L465,794.29c-8.83-2.19-13.26-8.59-15.14-16.77-1.41-6.15-1.81-12.53-2.68-18.8-1.17-8.73,4.34-14.7,8.83-21,.63-.88,3.38-1.2,4.38-.58s1.35,2.92,1,4.23c-2.56,9.81-2.64,9.78,7.7,11.5a119.22,119.22,0,0,1,18.74,4.23l-7.34,2.57c10.28,9.55,23.1,11.91,35,17.1-12,3.1-12.93,14.54-18.1,22.59-2.64,4.14-1.65,5.64,3,6.47,10.63,1.9,21.25,4.22,32,5.38,6.69.71,13.59-.26,20.38-.73,5.78-.43,7,.35,7.1,6l1.93,86.39c.09,6.09-1.57,12.18-1.8,18.3-.13,3.62.18,7.65,1.67,10.86,2.66,5.71,6.25,11,9.66,16.34,1.13,1.75,2.93,3.08,4.42,4.61l-.76-15.7ZM168.33,165.12c-3-4.23-5.75-8.59-8.85-12.71a59.4,59.4,0,0,1-10.58-22.93,212.07,212.07,0,0,0-7-25c-8.73-24.22-5.57-49.35-6.79-74.22,4.11,54.91,17.64,106.86,46.84,154.22Q175.11,174.84,168.33,165.12ZM540.06,83.07c-2.12,8.1-3.87,16.32-6.55,24.24-1.73,5.15-5.14,9.71-7.14,14.81a36.42,36.42,0,0,1-17.43,19.64c-1.92,1-6,1.85-6.38,1.21-1.4-2.47-3.09-6.17-2.16-8.31,3.24-7.46,6.84-14.93,11.58-21.46,7.4-10.21,15.89-19.67,23.89-29.4a10.05,10.05,0,0,1,2.37-1.54l1.82.81Zm.72-22.44c-.11.36-.18.68-.27,1-5.16,18.61-2.32,14.08-19.16,20-12.65,4.45-24.77,10.4-37,15.94-1.51.71-2.62,2.9-3.51,4.6-3.25,6.19-6.21,12.51-9.52,18.66-.88,1.66-2.4,3.72-4,4.13l-29.53,6.65-.92-1.61a64.93,64.93,0,0,1,5.21-5.67,109.35,109.35,0,0,0,31.4-45.49c1.55-4.27,3.78-4.23,7.2-2,6.64,4.37,6.85,4.16,8.85-3.63l5.33-19.54-1-1.12c-3.7,2.5-7.34,5.14-11.15,7.5a38.41,38.41,0,0,1-5.63,2.34,42.23,42.23,0,0,1-1.21-5.66c-.48-5.43-.93-10.95-1-16.43,0-5.27,1-6,6-4.51l40.07,12.42,15.72,4.92C540.58,54.3,542.18,56.63,540.78,60.63Z"/><polygon class="b" points="181.95 184.48 181.95 184.48 181.95 184.48 181.95 184.48"/><path class="b" d="M148.87,129.51a59.44,59.44,0,0,0,10.6,22.93c3.1,4.12,5.85,8.48,8.85,12.71q6.81,9.67,13.63,19.33c-29.2-47.36-42.73-99.31-46.87-154.19,1.22,24.87-1.94,50,6.79,74.22A212.07,212.07,0,0,1,148.87,129.51Z"/><path class="b" d="M480.71,76.83c-3.42-2.2-5.65-2.24-7.2,2a109.35,109.35,0,0,1-31.4,45.49,65.4,65.4,0,0,0-5.24,5.68h0c.33.52.63,1.05.91,1.6,9.85-2.17,19.74-4.2,29.53-6.65,1.58-.41,3.1-2.47,4-4.13l9.52-18.66c.89-1.7,1.95-3.89,3.51-4.6,12.24-5.54,24.36-11.49,37-15.94,16.84-5.89,14-1.36,19.16-20,.09-.36.16-.68.27-1,1.4-4-.2-6.33-4.12-7.5L520.93,48.2,480.87,35.79c-5.07-1.49-6.07-.76-6,4.51.11,5.48.56,11,1,16.43a41.85,41.85,0,0,0,1.24,5.65A38.41,38.41,0,0,0,482.74,60c3.81-2.36,7.45-5,11.15-7.5l1,1.12L489.56,73.2C487.52,81,487.35,81.17,480.71,76.83Z"/><path class="b" d="M512,113.2c-4.74,6.53-8.34,14-11.58,21.46-.93,2.14.76,5.84,2.16,8.31.38.64,4.46-.21,6.38-1.21a36.42,36.42,0,0,0,17.43-19.64c2-5.1,5.41-9.66,7.14-14.81,2.64-7.92,4.39-16.14,6.51-24.24l-1.86-.81a9.82,9.82,0,0,0-2.33,1.54C527.87,93.53,519.42,103,512,113.2Z"/><path class="b" d="M166.87,95.11c3,14.14,5.8,29,12.41,41.49a423.93,423.93,0,0,0,37.34,57.14c11.56,15.15,25.69,28.34,38.82,42.27a36.23,36.23,0,0,0,8.45,6.9c8.91,4.94,18.13,9.22,27,14.22,4.52,2.57,7.94,2,11.64-1.43,20-18.28,41.91-34.52,58.55-56.34,7.35-9.65,16.86-18,22.79-28.36,12.54-22,23.39-44.88,34.77-67.52,3.41-6.77,6.35-13.77,9.51-20.66a4.1,4.1,0,0,1,.59,3.48,264.92,264.92,0,0,0-9.09,53.1,14.79,14.79,0,0,1-2.45,6.42c-15.21,24-29,49-47.21,71.13-3.08,3.74-5.45,8.07-8.15,12.13a4.29,4.29,0,0,0,3.59-1.24l35.66-35.74a27.19,27.19,0,0,0,4.44-6.58c15.55-30.44,29.79-61.44,41.38-93.65,1.26-3.5,4.29-6.4,6.79-9.4,3.75-4.47,10.07-7.19,10.07-14.19.14-12.68.24-25.35,0-38-.19-8.9-1.78-17.26-12-20.41a42.11,42.11,0,0,1-4.44-3c-4.5-3.93-8-3.66-11.77,1A29.71,29.71,0,0,1,431,12.93L410.87,27.75c-.53.41-.66,1.41-1,2.13h0c-3.7,3.86-7.18,7.93-11.15,11.52a10.2,10.2,0,0,1-6.31,2.08A97.28,97.28,0,0,1,379,42.39c-4.51-.62-8.07.71-11.51,3.52-2.4,2-5.18,4.37-8,4.69-10.4,1.15-21,2.67-31.32,2-28.43-1.87-56.76-5.14-84.28-13A49.47,49.47,0,0,0,218.82,39c-5.52,1.24-11.25,1.59-16.68,3.09-1.94.53-3.27,3.27-4.88,5,1.71,1,3.33,2.54,5.16,2.85,10.84,1.8,21.77,3.09,32.6,5,6.36,1.12,12.19.78,17.73-2.76,3.9-2.5,7.86-2.1,11.8.19,5.31,3.1,11.09,5.56,16,9.19,7.07,5.28,13.73,5.35,21.28,1.28,2.71-1.45,6.3-1.71,9.5-1.71,3.72,0,7.47,1.19,11.16,1,7.15-.38,14.27-1.28,21.38-2.12,29.27-3.54,58.4-7.9,86.51-17.34,1.45-.48,3-.72,4.45-1.08l.59,1.44c-8.81,5.32-15.81,13.38-26.73,15.32-14.27,2.54-28.39,6.28-42.75,7.89-20.8,2.31-41.77,4.48-62.65,4.31a327.52,327.52,0,0,1-58.11-5.7C225.13,61.05,205.59,54.46,186,48.69c-1.79-.5-3.52-3.77-3.89-6-.88-5.23-.94-10.6-1.28-15.92-.21-3.27-1.67-4.58-4.92-3.33L161.4,29c-3.53,1.33-4.8,3.94-4.23,7.52C160.31,56.11,162.87,75.75,166.87,95.11Z"/><path class="b" d="M575.71,953h0c-1.49-1.52-3.29-2.85-4.37-4.63-3.41-5.34-7-10.63-9.66-16.34-1.49-3.21-1.8-7.24-1.67-10.86.23-6.12,1.89-12.21,1.8-18.3l-1.93-86.39c-.1-5.62-1.32-6.4-7.1-6-6.79.47-13.69,1.44-20.38.73-10.72-1.16-21.34-3.48-32-5.38-4.67-.83-5.66-2.33-3-6.47,5.17-8.05,6.1-19.49,18.1-22.59-11.91-5.19-24.73-7.55-35-17.1l7.34-2.57a119.22,119.22,0,0,0-18.74-4.23c-10.34-1.72-10.26-1.69-7.7-11.5.3-1.31-.12-3.72-1-4.23-1-.62-3.75-.3-4.38.58-4.49,6.3-10,12.27-8.83,21,.87,6.27,1.27,12.65,2.68,18.8,1.88,8.18,6.31,14.58,15.14,16.77l11.2,2.91c-1.16,1.78-2.1,2.48-3.16,2.7-7.41,1.57-13.16,6-19.16,10.33-8.78,6.29-18.08,11.86-27.17,17.72-3.12,2-6,1.68-8.49-1.1-1.46-1.6-3.15-3-4.46-4.71-4.25-5.52-3.4-10,2.6-13.52q13.19-7.62,26.51-15c3.33-1.86,3.57-3.85,1.21-6.76-6.83-8.41-7.8-8.47-14.49-.18-.21.26-.45.5-.63.77-3.61,5.39-8.47,6.85-14.77,5.46-10.25-2.28-20.63-3.94-30.87-6.22a13.66,13.66,0,0,1-7.18-3.91c-6.45-7.64-12.35-15.72-18.45-23.64-3.49-4.53-3.51-9.14-.3-13.86l9.14-13.73c1.92-2.83,1.56-5-1.67-6.37-6.89-3-13.74-6.07-20.74-8.7a5.91,5.91,0,0,0-5.14,1.39c-5.67,6-5.43,9.36.33,15.15l2.09,2.07c4.56,4.65,4.79,5.52-.55,9.19-8.9,6.13-16.24,13.11-18.57,24.25-.72,3.63-3.56,4.39-7,3-6.48-2.63-13.05-5.08-19.48-7.82-3.59-1.51-6.46-1.15-9,1.8-8.69,10.1-19.05,16-33.05,14.87-6.07-.48-6.78-.25-6.9-6.66v-8.92l-2.06-.32c-1.84,3.09-3.54,6.26-5.54,9.26-2.29,3.46-2.07,6.3,1.71,8.3,6.91,3.59,13.61,8.2,21,10.2,12.95,3.52,18.91,11.76,20.46,24.29a1.63,1.63,0,0,0,.13.48c1.56,4.34,0,6.93-4.29,8.44-3.8,1.35-7.45,3.13-11.17,4.72v1.66l12.61,5.24,12.45,5.06c-9.56,2.71-18.75,4.13-27.83,6-4.55.93-7-.51-8.21-4.83l-4.3-13.84c-1-3.44-3.14-4.38-6.5-3.11-4.52,1.72-9,3.47-13.67,4.82-5.27,1.54-7.87,4.52-8.36,10.24-.73,8.44-2,9.14-10.46,8.29-15.21-1.53-15.15-1.52-12.21-16.78.71-3.72,2.64-5.42,6.22-6,4.77-.76,9.48-2.43,14.25-2.55,10.23-.25,15-5.57,16.23-15.16a2.85,2.85,0,0,1,.13-.48c1.14-4.7.51-5.58-4.22-4.79-8.87,1.5-17.77,3-26.52,5-4.09,1-8.56,2.44-11.66,5.09a63,63,0,0,1-36.74,15.15,16.69,16.69,0,0,0-3.84,1.29v1.22l19.88,7.7a11.77,11.77,0,0,1-5.06,3.51c-3.75,1.4-7.61,2.52-11.28,4.07-4,1.69-4.16,3.17-1,6.08l7.52,6.8c-2.65.83-4,1.64-5.4,1.64-10.46,0-17.15,6.12-22.87,13.89a6.7,6.7,0,0,1-1.25,1.55c-5.43,3.8-10.43,9.07-16.43,10.8-3.58,1-8.76-3.56-13.22-5.56a16.67,16.67,0,0,1-1.72-1c-7.94-4.68-14.55-2.81-18.19,5.81-3.24,7.66-5.71,15.64-8.6,23.46-2.37,6.41-2.85,6.68-9.52,5.41-4-.76-7.5-.48-10.45,3.52l8.24,5.44c-4.28,0-7.41.23-10.5,0-10.37-.79-10.32-.46-7.23,9.81,2.21,7.33,4.78,15-1.53,22.23-2.66,3,.25,4,2.86,3.92,7.15-.35,14.3-.72,21.43-1.35,14.83-1.29,29.61-2,44,2.85a28.4,28.4,0,0,1,7.33,4c3.29,2.4,6.3,5.17,9.43,7.78l2-.58V961.39c0-3.9,1.71-5.56,5.71-4l3.3,1.19c18.32,6.55,12.14,7.12,28-3.88,2.54-1.77,6.46-2.47,9.64-2.25,13.51.95,25.16,6.77,36.16,14.43,9.05,6.3,9.29,6.09,17.74-1,3-2.51,4.57-1.51,5.14,1.74a52.29,52.29,0,0,1,.92,10.37c-.21,6.2.19,6.84,6.46,7,9,.22,18,.2,27,.72,15.79.92,31.54,2.62,47.34,3.17,16.32.56,32.67,0,49,.22,3.56,0,7.11,1.27,10.67,1.95l68.11,2c6.81.25,13.57,1.58,20.38,2.07,7.08.5,14.19.52,21.27.87a35.9,35.9,0,0,1,5.12,1h43c9.54-1.64,19-3.61,28.54-4.83,8.61-1.07,10.54-2.5,10.4-11.07C576.71,971.72,576.09,962.36,575.71,953Z"/></svg>