<svg xmlns="http://www.w3.org/2000/svg" viewBox="0 0 577 997">
    <defs>
        <style>.a{fill:#999;}.b{fill:#888;}.d{fill:#888;}.e{fill:#888;}.f{fill:#888;}.g{fill:#888;}.h{fill:#888;}</style>
    </defs>
    <title>tshirt_vneck_under</title>
    <path class="a" d="M21,997H8c-4.55-1-6.64-3.78-6.78-8.43A40.78,40.78,0,0,0,0,982V938c.63-2.16,1.76-4.31,1.81-6.49.32-16.88.42-33.76.64-50.64.14-10.81.4-21.62.53-32.44.09-6.73-.1-13.47.07-20.19s.44-13.42,1-20.11c.84-10.47,2.65-20.92,2.74-31.38.11-11.28-.34-22.46.9-33.8C9.2,729,8.72,714.86,8.81,700.8c.07-11.12-.59-22.24-.44-33.35q.38-26.07,1.45-52.14c.43-10.66,1.41-21.31,2.17-32,.3-4.14.77-8.28,1-12.42.2-3.73.09-7.48.24-11.22.46-11.51,1.3-23,1.37-34.54,0-8.09-1-16.18-1.42-24.27-.46-7.82-.7-15.66-1.27-23.47-.83-11.29-2.28-22.54-2.69-33.84-.33-9.13.75-18.3.75-27.45Q10,243.9,10,71.65c0-1.66-.3-3.41.12-5,.37-1.4,1.24-3.22,2.41-3.77,6.68-3.18,13.45-6.22,20.34-9C38,51.91,44,51.36,48.5,48.44c8-5.18,17.57-4.08,25.81-8.25,7.64-3.87,16.2-5.89,24.26-9,5.22-2,10.27-4.41,15.42-6.59,4.73-2,9.87-3.32,14.16-6C139.35,11.6,150.26,4.12,163,0h2a22.52,22.52,0,0,0,3,3.9c1.29,1.08,3.06,1.57,4.51,2.51,8.89,5.74,17.28,12.53,26.77,17,8.75,4.14,18.67,5.78,28.06,8.6,2.62.79,5.09,2.26,7.76,2.73,6.09,1.08,12.3,1.48,18.37,2.64,7.84,1.51,15.55,3.75,23.4,5.18,4.57.82,9.39.21,13.95,1a115.73,115.73,0,0,0,42.51.24c8-1.48,16-2.78,24.11-3.72,8.93-1,17.93-1.53,26.88-2.4a38.14,38.14,0,0,0,7.92-1.62c5.94-1.94,11.81-4.14,17.7-6.24-3.66,3.86-7.14,7.93-11.1,11.46a10.14,10.14,0,0,1-6.31,2.08,97.66,97.66,0,0,1-13.43-1.09c-4.47-.62-8.07.71-11.51,3.52-2.4,1.95-5.18,4.37-8,4.69-10.4,1.18-21,2.7-31.32,2-28.44-1.84-56.76-5.11-84.28-13A49.54,49.54,0,0,0,218.89,39c-5.52,1.24-11.25,1.59-16.68,3.09-1.94.53-3.27,3.27-4.88,5,1.71,1,3.33,2.54,5.16,2.85,10.84,1.8,21.78,3.09,32.6,5,6.36,1.12,12.19.78,17.73-2.77,3.9-2.49,7.86-2.09,11.8.2,5.33,3.1,11.11,5.56,16,9.19,7.06,5.23,13.72,5.35,21.27,1.28,2.71-1.46,6.3-1.66,9.5-1.71,3.72-.06,7.47,1.17,11.16,1,7.15-.38,14.27-1.28,21.38-2.12,29.31-3.49,58.44-7.85,86.57-17.27,1.44-.48,3-.72,4.45-1.08l.66,1.56c-9,5-15.83,13.3-26.8,15.22-14.28,2.48-28.39,6.26-42.75,7.87-20.8,2.32-41.77,4.48-62.65,4.31a327.61,327.61,0,0,1-58.11-5.7c-20.05-3.79-39.59-10.38-59.23-16.15-1.78-.52-3.52-3.79-3.89-6-.88-5.23-.94-10.6-1.28-15.92-.21-3.27-1.67-4.58-4.91-3.33-4.82,1.86-9.64,3.74-14.47,5.57-3.53,1.33-4.8,3.94-4.23,7.52,3.14,19.54,5.66,39.22,9.7,58.58,2.94,14.14,5.78,29,12.46,41.49a424.82,424.82,0,0,0,37.34,57.14c11.56,15.15,25.69,28.34,38.82,42.27a36.51,36.51,0,0,0,8.45,6.9c8.87,4.94,18.09,9.26,27,14.22,4.52,2.53,7.94,2,11.64-1.43,20-18.28,41.91-34.52,58.54-56.34,7.36-9.65,16.87-18,22.8-28.36,12.51-22,23.36-44.88,34.75-67.48,3.41-6.77,6.35-13.77,9.51-20.66a4.16,4.16,0,0,1,.59,3.48,265.42,265.42,0,0,0-9.09,53.09,14.76,14.76,0,0,1-2.45,6.43c-15.26,24-29,49-47.21,71.13-3.08,3.74-5.45,8.07-8.15,12.13a4.25,4.25,0,0,0,3.59-1.24c11.92-11.88,23.86-23.74,35.66-35.74a26.8,26.8,0,0,0,4.44-6.58c15.55-30.44,29.79-61.44,41.38-93.64,1.26-3.51,4.29-6.45,6.79-9.41,3.75-4.47,10-7.18,10.07-14.19.09-12.66.19-25.32-.05-38-.16-8.9-1.75-17.26-12-20.41,3.26-2.12,4.65,1.25,6.88,2.28,6.64,3.08,13.4,5.93,20,9.06,5.38,2.54,10.55,5.54,16,8,3.57,1.6,7.52,2.33,11.13,3.86,5.06,2.13,9.85,4.91,15,6.92,7.43,2.93,15,5.43,22.55,8.07,1.06.37,2.32.94,3.29.67,7.52-2.08,13.59,2.49,20.13,4.51,2.63.81,6.5,1.42,6.28,6.29-.41,9.15-.21,18.32-.26,27.48-.94,3.8-2.7,7.59-2.69,11.38.07,24.42.48,48.84.88,73.27.24,14.44.65,28.89,1.05,43.34a39.24,39.24,0,0,0,.76,4.9v56.12c-1.94,11.12-5.63,22.27-5.4,33.35.35,16.54,3.46,33,5.4,49.53q.07,31.23.14,62.45a30.58,30.58,0,0,1-.56,3.36c-.8,7.37-1.94,14.73-2.26,22.12-.25,5.73.78,11.49.78,17.24,0,6.91-.34,13.82-.79,20.72-.56,8.54-1.8,17.05-2,25.59-.18,9.11.55,18.24.83,27.37q.81,26.15,1.53,52.29c.38,14.1.6,28.2,1,42.31.23,8.77,1,17.54.86,26.31-.31,30.78-1,61.56-1.27,92.35-.1,10.1.71,20.22.81,30.33.13,12.66-.13,25.32-.08,38,.06,15.7,0,31.41.46,47.1.71,23.61,1.83,47.21,2.79,70.82.22,5.24.51,10.48.77,15.72-1.49-1.52-3.29-2.85-4.42-4.61-3.41-5.33-7-10.63-9.66-16.34-1.49-3.21-1.8-7.24-1.67-10.86.23-6.12,1.89-12.21,1.8-18.3-.43-28.8-1.22-57.6-1.93-86.39-.14-5.65-1.32-6.43-7.1-6-6.79.47-13.69,1.44-20.38.73-10.75-1.16-21.37-3.48-32-5.38-4.65-.83-5.64-2.33-3-6.47,5.17-8.05,6.13-19.49,19.5-22.39-13.21-5.57-26.19-7.59-36.3-17.33l7.25-2.54a118.83,118.83,0,0,0-18.74-4.23c-10.34-1.72-10.26-1.69-7.7-11.5.35-1.31-.07-3.71-1-4.23-1-.62-3.75-.3-4.38.58-4.49,6.3-10,12.27-8.83,21,.87,6.27,1.27,12.65,2.68,18.79,1.88,8.19,6.31,14.59,15.14,16.78,3.74.92,7.46,1.94,11.56,3-.83,1.17-1,1.55-1.21,1.68a9.49,9.49,0,0,1-2.3.93c-7.43,1.54-13.16,6-19.17,10.32-8.78,6.29-18.08,11.86-27.17,17.72-3.12,2-6,1.68-8.49-1.1-1.45-1.6-3.15-3-4.46-4.71-4.25-5.48-3.38-10,2.6-13.51Q429.7,801,443,793.55c3.32-1.86,3.57-3.85,1.21-6.76-6.83-8.41-7.8-8.47-14.49-.18-.21.26-.45.5-.63.77-3.61,5.38-8.47,6.85-14.77,5.46-10.25-2.28-20.63-3.94-30.87-6.22a13.68,13.68,0,0,1-7.18-3.91c-6.4-7.67-12.35-15.72-18.45-23.64-3.49-4.53-3.51-9.13-.31-13.85,3.09-4.55,6.06-9.19,9.15-13.74,1.92-2.83,1.56-5-1.67-6.37-6.89-3-13.73-6.07-20.74-8.7a5.91,5.91,0,0,0-5.14,1.39c-5.64,6-5.43,9.36.33,15.15.71.71,1.42,1.41,2.12,2.12,4.56,4.65,4.79,5.52-.55,9.19-8.9,6.13-16.24,13.11-18.57,24.25-.76,3.67-3.6,4.43-7,3-6.48-2.63-13.05-5.08-19.48-7.82-3.55-1.51-6.42-1.15-9,1.8-8.69,10.1-19.08,16-33,14.87-6.08-.48-6.79-.25-6.91-6.66-.05-3,0-5.94,0-8.92l-2.06-.31c-1.84,3.09-3.55,6.26-5.54,9.25-2.31,3.46-2.07,6.34,1.71,8.3,6.92,3.59,13.62,8.19,21,10.2,12.95,3.52,18.91,11.76,20.46,24.29a2,2,0,0,0,.13.48c1.56,4.34,0,6.93-4.29,8.44-3.8,1.35-7.45,3.13-11.17,4.72v1.66c4.2,1.75,8.4,3.51,12.61,5.24s8.3,3.38,12.45,5.06c-9.56,2.75-18.74,4.17-27.83,6-4.55.93-7-.51-8.21-4.83-1.33-4.64-2.88-9.22-4.3-13.84-1-3.44-3.13-4.38-6.5-3.11-4.51,1.72-9,3.47-13.67,4.82-5.27,1.54-7.87,4.51-8.36,10.24-.73,8.44-2,9.14-10.46,8.29-15.24-1.53-15.15-1.52-12.21-16.78.71-3.72,2.64-5.42,6.22-6,4.77-.76,9.48-2.43,14.24-2.55,10.21-.25,15.06-5.57,16.24-15.15a4.43,4.43,0,0,1,.13-.49c1.14-4.7.51-5.58-4.22-4.79-8.87,1.49-17.77,3-26.52,5-4.09,1-8.56,2.44-11.66,5.09a63,63,0,0,1-36.74,15.15,17.15,17.15,0,0,0-3.84,1.28l0,1.23,19.88,7.7a11.61,11.61,0,0,1-5.06,3.51c-3.75,1.4-7.61,2.52-11.28,4.07-4,1.69-4.16,3.17-1,6.08,2.23,2.06,4.5,4.07,7.52,6.8-2.65.83-4,1.64-5.4,1.64-10.46,0-17.15,6.12-22.87,13.89a6.44,6.44,0,0,1-1.25,1.55c-5.4,3.81-10.41,9.07-16.43,10.8-3.58,1-8.76-3.51-13.22-5.56-.6-.28-1.14-.68-1.72-1-7.94-4.68-14.55-2.81-18.19,5.81-3.24,7.66-5.71,15.64-8.6,23.46-2.37,6.41-2.85,6.68-9.52,5.41-4-.76-7.5-.48-10.45,3.52l8.24,5.44c-4.28,0-7.41.2-10.49,0-10.38-.79-10.33-.46-7.24,9.81,2.21,7.33,4.78,15-1.53,22.22-2.66,3,.25,4,2.86,3.93,7.15-.32,14.3-.72,21.43-1.35,14.82-1.29,29.61-2,44,2.85a28.06,28.06,0,0,1,7.33,4c3.29,2.4,6.3,5.17,9.5,7.85.79-1,1.33-1.37,1.35-1.77q.36-5.46.54-11c.12-3.94,1.76-5.6,5.73-4,1.09.43,2.2.8,3.3,1.19,18.34,6.55,12.16,7.11,28-3.88,2.54-1.77,6.46-2.47,9.64-2.25,13.51,1,25.16,6.77,36.15,14.43,9.07,6.32,9.3,6.11,17.75-1,3-2.51,4.57-1.51,5.14,1.74A51.68,51.68,0,0,1,239.7,978c-.21,6.23.19,6.87,6.46,7,9,.22,18,.2,27,.72,15.79.92,31.54,2.62,47.34,3.17,16.31.56,32.66,0,49,.22,3.56,0,7.11,1.27,10.67,1.95-.56.24-1.12.7-1.68.69-7.53,0-15.07-.29-22.59-.12-15.74.34-31.48,1-47.23,1.33-10.82.22-21.65.07-32.47,0-12.86,0-25.72-.17-38.58-.16-12.65,0-25.3-.09-37.94.23-18.54.47-37.07,1.51-55.61,1.86-17.27.33-34.55.08-51.83.07-7.35,0-14.69-.1-22-.07q-11.69,0-23.36.28c-3.42.07-6.84.36-10.25.61C31.36,996.18,26.18,996.6,21,997ZM436.58,130.58c1.52.28,2.17.6,2.73.48,9.13-1.85,18.3-3.57,27.34-5.82,1.91-.47,3.83-2.67,4.87-4.55,3.38-6.1,6.29-12.47,9.54-18.65.89-1.7,2-3.84,3.56-4.55,12.08-5.49,24-11.4,36.53-15.78,17.47-6.12,14.2-1.24,19.74-20.71,1.33-4.64-.36-6.86-4.66-8.09C531,51.4,525.75,49.64,520.51,48c-12.71-4-25.4-8-38.14-11.87-6.73-2-7.47-1.43-7.32,5.78.08,3.82.49,7.64.91,11.44.34,3,.92,6.06,1.39,9.09,2.85-1.47,5.75-2.84,8.52-4.44s5.54-3.52,8.3-5.3c-.84,7.23-2.62,13.42-4.24,19.65-2.23,8.56-2.24,8.68-9.6,4.15-3.18-2-5.21-1.66-6.5,2-6.71,18.79-18.2,34.23-33.07,47.32A50.84,50.84,0,0,0,436.58,130.58ZM539.41,81.7c-1.75,1-2.75,1.36-3.3,2-8.15,9.86-16.66,19.47-24.2,29.79-4.57,6.25-7.66,13.59-11.34,20.48-1.85,3.46-1.07,7,1.95,8.81,1.54.92,4.86-.21,6.92-1.3,8.24-4.33,13.38-11.24,17.38-19.71,5.14-10.87,10.4-21.55,12-33.62C539.09,86.34,539.17,84.47,539.41,81.7ZM135.71,28.79a17.37,17.37,0,0,0-.64,2.66c.36,16.64.69,33.29,1.17,49.93a30.38,30.38,0,0,0,1.41,6.84c2.47,9.17,4.74,18.4,7.62,27.45,3.75,11.81,5,24.47,12.95,34.88,7.08,9.25,13.35,19.12,20,28.69,1.24,1.79,2.63,3.48,4,5.22C152.8,137,139.34,85.05,135.71,28.79ZM27.76,190l-1.35.05c-.41,1.06-.85,2.1-1.21,3.18a152.62,152.62,0,0,0-7.15,41.65c-.45,10.94.23,11.48,11,8.64,4.59-1.21,6.34-3.74,5.75-8.31-.85-6.6-1.41-13.25-2.45-19.82C31,206.93,29.3,198.49,27.76,190ZM486.61,360.57l.1-1.84c-8.07-.25-16.18-.08-24.2-.85-10.81-1-22.21-1.08-29.27-11.83-.75-1.13-3.24-2.36-4.17-1.93-6.46,3-12.72,6.49-19.05,9.81.16.59.31,1.18.47,1.76a17.8,17.8,0,0,0,4,1.2C438.5,358.46,462.26,366,486.61,360.57Z"/>
    <path class="b" d="M380.12,991.05c-3.56-.68-7.11-1.91-10.67-1.95-16.33-.22-32.68.34-49-.22-15.8-.55-31.55-2.25-47.34-3.17-9-.52-18-.5-27-.72-6.27-.16-6.67-.8-6.46-7a51.68,51.68,0,0,0-.92-10.37c-.57-3.25-2.17-4.25-5.14-1.74-8.45,7.09-8.68,7.3-17.75,1-11-7.66-22.64-13.48-36.15-14.43-3.18-.22-7.1.48-9.64,2.25-15.86,11-9.68,10.43-28,3.88-1.1-.39-2.21-.76-3.3-1.19-4-1.56-5.61.1-5.73,4q-.18,5.49-.54,11c0,.4-.56.76-1.35,1.77-3.2-2.68-6.21-5.45-9.5-7.85a28.06,28.06,0,0,0-7.33-4c-14.39-4.88-29.18-4.14-44-2.85-7.13.63-14.28,1-21.43,1.35-2.61.12-5.52-.89-2.86-3.93,6.31-7.18,3.74-14.89,1.53-22.22-3.09-10.27-3.14-10.6,7.24-9.81,3.08.23,6.21,0,10.49,0l-8.24-5.44c2.95-4,6.48-4.28,10.45-3.52,6.67,1.27,7.15,1,9.52-5.41,2.89-7.82,5.36-15.8,8.6-23.46,3.64-8.62,10.25-10.49,18.19-5.81.58.34,1.12.74,1.72,1,4.46,2,9.64,6.58,13.22,5.56,6-1.73,11-7,16.43-10.8a6.44,6.44,0,0,0,1.25-1.55c5.72-7.77,12.41-13.86,22.87-13.89,1.38,0,2.75-.81,5.4-1.64-3-2.73-5.29-4.74-7.52-6.8-3.16-2.91-3-4.39,1-6.08,3.67-1.55,7.53-2.67,11.28-4.07a11.61,11.61,0,0,0,5.06-3.51l-19.88-7.7,0-1.23a17.15,17.15,0,0,1,3.84-1.28,63,63,0,0,0,36.74-15.15c3.1-2.65,7.57-4.13,11.66-5.09,8.75-2,17.65-3.5,26.52-5,4.73-.79,5.36.09,4.22,4.79a4.43,4.43,0,0,0-.13.49c-1.18,9.58-6,14.9-16.24,15.15-4.76.12-9.47,1.79-14.24,2.55-3.58.58-5.51,2.28-6.22,6-2.94,15.26-3,15.25,12.21,16.78,8.43.85,9.73.15,10.46-8.29.49-5.73,3.09-8.7,8.36-10.24,4.63-1.35,9.16-3.1,13.67-4.82,3.37-1.27,5.45-.33,6.5,3.11,1.42,4.62,3,9.2,4.3,13.84,1.23,4.32,3.66,5.76,8.21,4.83,9.09-1.87,18.27-3.29,27.83-6q-6.22-2.52-12.45-5.06c-4.21-1.73-8.41-3.49-12.61-5.24v-1.66c3.72-1.59,7.37-3.37,11.17-4.72,4.29-1.51,5.85-4.1,4.29-8.44a2,2,0,0,1-.13-.48c-1.55-12.53-7.51-20.77-20.46-24.29-7.39-2-14.09-6.61-21-10.2-3.78-2-4-4.84-1.71-8.3,2-3,3.7-6.16,5.54-9.25l2.06.31c0,3,0,5.95,0,8.92.12,6.41.83,6.18,6.91,6.66,14,1.12,24.35-4.77,33-14.87,2.54-2.95,5.41-3.31,9-1.8,6.43,2.74,13,5.19,19.48,7.82,3.44,1.39,6.28.63,7-3,2.33-11.14,9.67-18.12,18.57-24.25,5.34-3.67,5.11-4.54.55-9.19-.7-.71-1.41-1.41-2.12-2.12-5.76-5.79-6-9.14-.33-15.15a5.91,5.91,0,0,1,5.14-1.39c7,2.63,13.85,5.73,20.74,8.7,3.23,1.39,3.59,3.54,1.67,6.37-3.09,4.55-6.06,9.19-9.15,13.74-3.2,4.72-3.18,9.32.31,13.85,6.1,7.92,12.05,16,18.45,23.64a13.68,13.68,0,0,0,7.18,3.91c10.24,2.28,20.62,3.94,30.87,6.22,6.3,1.39,11.16-.08,14.77-5.46.18-.27.42-.51.63-.77,6.69-8.29,7.66-8.23,14.49.18,2.36,2.91,2.11,4.9-1.21,6.76Q429.69,801,416.5,808.63c-6,3.47-6.85,8-2.6,13.51,1.31,1.7,3,3.11,4.46,4.71,2.54,2.78,5.37,3.11,8.49,1.1,9.09-5.86,18.39-11.43,27.17-17.72,6-4.31,11.74-8.78,19.17-10.32a9.49,9.49,0,0,0,2.3-.93c.25-.13.38-.51,1.21-1.68-4.1-1.07-7.82-2.09-11.56-3-8.83-2.19-13.26-8.59-15.14-16.78-1.41-6.14-1.81-12.52-2.68-18.79-1.21-8.73,4.34-14.7,8.83-21,.63-.88,3.34-1.2,4.38-.58.88.52,1.3,2.92,1,4.23-2.56,9.81-2.64,9.78,7.7,11.5a118.83,118.83,0,0,1,18.74,4.23l-7.25,2.54c10.11,9.74,23.09,11.76,36.3,17.33-13.37,2.9-14.33,14.34-19.5,22.39-2.66,4.14-1.67,5.64,3,6.47,10.66,1.9,21.28,4.22,32,5.38,6.69.71,13.59-.26,20.38-.73,5.78-.4,7,.38,7.1,6,.71,28.79,1.5,57.59,1.93,86.39.09,6.09-1.57,12.18-1.8,18.3-.13,3.62.18,7.65,1.67,10.86,2.65,5.71,6.25,11,9.66,16.34,1.13,1.76,2.93,3.09,4.42,4.61,0,2,0,3.9.17,5.85.29,4.38.65,8.76,1,13.14v15l-1.16,1c-17.36,1.67-34.71,3.38-52.07,5-10.91,1-21.83,1.9-32.74,2.84-7.44-.19-14.88-.16-22.3-.64-6.82-.44-13.59-1.85-20.41-2.1C425.6,992.23,402.85,991.71,380.12,991.05Z"/>
    <path class="a" d="M495,997l-4-1.17c10.91-.94,21.83-1.82,32.74-2.84,17.36-1.62,34.71-3.33,52.07-5-1.22,1.28-2.25,3.36-3.69,3.69-5.62,1.3-11.36,2.12-17.08,3S543.69,996.23,538,997Z"/>
    <path class="d" d="M410,29.88c.34-.72.47-1.71,1-2.13,6.69-5,13.49-9.78,20.12-14.82a29.45,29.45,0,0,0,4.57-5.06c3.77-4.66,7.27-4.93,11.77-1a42.45,42.45,0,0,0,4.44,3c10.22,3.15,11.81,11.51,12,20.41.24,12.66.14,25.32.05,38,0,7-6.32,9.72-10.07,14.19-2.5,3-5.53,5.9-6.79,9.41-11.59,32.2-25.83,63.2-41.38,93.64a26.8,26.8,0,0,1-4.44,6.58c-11.8,12-23.74,23.86-35.66,35.74a4.25,4.25,0,0,1-3.59,1.24c2.7-4.06,5.07-8.39,8.15-12.13,18.18-22.1,31.95-47.11,47.21-71.13a14.76,14.76,0,0,0,2.45-6.43,265.42,265.42,0,0,1,9.09-53.09,4.16,4.16,0,0,0-.59-3.48c-3.16,6.89-6.1,13.89-9.51,20.66C407.39,126.12,396.54,149,384,171c-5.93,10.4-15.44,18.71-22.8,28.36-16.63,21.82-38.55,38.06-58.54,56.34-3.7,3.39-7.12,4-11.64,1.43-8.87-5-18.09-9.28-27-14.22a36.51,36.51,0,0,1-8.45-6.9c-13.13-13.93-27.26-27.12-38.82-42.27a424.82,424.82,0,0,1-37.34-57.14C172.8,124.1,170,109.25,167,95.11c-4-19.36-6.56-39-9.7-58.58-.57-3.58.7-6.19,4.23-7.52,4.83-1.83,9.65-3.71,14.47-5.57,3.24-1.25,4.7.06,4.91,3.33.34,5.32.4,10.69,1.28,15.92.37,2.23,2.11,5.5,3.89,6,19.64,5.77,39.18,12.36,59.23,16.15a327.61,327.61,0,0,0,58.11,5.7c20.88.17,41.85-2,62.65-4.31,14.36-1.61,28.47-5.39,42.75-7.87,11-1.92,17.82-10.24,26.8-15.22L435,41.6c-1.49.36-3,.6-4.45,1.08C402.4,52.1,373.27,56.46,344,60c-7.11.84-14.23,1.74-21.38,2.12-3.69.19-7.44-1-11.16-1-3.2,0-6.79.25-9.5,1.71-7.55,4.07-14.21,4-21.27-1.28-4.92-3.63-10.7-6.09-16-9.19-3.94-2.29-7.9-2.69-11.8-.2-5.54,3.55-11.37,3.89-17.73,2.77-10.82-1.91-21.76-3.2-32.6-5-1.83-.31-3.45-1.87-5.16-2.85,1.61-1.73,2.94-4.47,4.88-5,5.43-1.5,11.16-1.85,16.68-3.09A49.54,49.54,0,0,1,244,39.6c27.52,7.86,55.84,11.13,84.28,13,10.36.67,20.92-.85,31.32-2,2.82-.32,5.6-2.74,8-4.69,3.44-2.81,7-4.14,11.51-3.52a97.66,97.66,0,0,0,13.43,1.09,10.14,10.14,0,0,0,6.31-2.08C402.82,37.81,406.3,33.74,410,29.88Z"/>
    <path class="b" d="M436.58,130.58a50.84,50.84,0,0,1,4.18-4.79c14.87-13.09,26.36-28.53,33.07-47.32,1.29-3.62,3.32-3.92,6.5-2,7.36,4.53,7.37,4.41,9.6-4.15,1.62-6.23,3.4-12.42,4.24-19.65-2.76,1.78-5.46,3.66-8.3,5.3s-5.67,3-8.52,4.44c-.47-3-1.05-6.05-1.39-9.09-.42-3.8-.83-7.62-.91-11.44-.15-7.21.59-7.82,7.32-5.78C495.11,40,507.8,44,520.51,48c5.24,1.63,10.45,3.39,15.72,4.9,4.3,1.23,6,3.45,4.66,8.09-5.54,19.47-2.27,14.59-19.74,20.71C508.66,86.09,496.7,92,484.62,97.49c-1.56.71-2.67,2.85-3.56,4.55-3.25,6.18-6.16,12.55-9.54,18.65-1,1.88-3,4.08-4.87,4.55-9,2.25-18.21,4-27.34,5.82C438.75,131.18,438.1,130.86,436.58,130.58Z"/>
    <path class="b" d="M539.41,81.7c-.24,2.77-.32,4.64-.57,6.49-1.62,12.07-6.88,22.75-12,33.62-4,8.47-9.14,15.38-17.38,19.71-2.06,1.09-5.38,2.22-6.92,1.3-3-1.8-3.8-5.35-1.95-8.81,3.68-6.89,6.77-14.23,11.34-20.48,7.54-10.32,16.05-19.93,24.2-29.79C536.66,83.06,537.66,82.75,539.41,81.7Z"/>
    <path class="e" d="M135.71,28.79C139.34,85.05,152.8,137,182.19,184.46c-1.33-1.74-2.72-3.43-4-5.22-6.66-9.57-12.93-19.44-20-28.69-7.95-10.41-9.2-23.07-12.95-34.88-2.88-9-5.15-18.28-7.62-27.45a30.38,30.38,0,0,1-1.41-6.84c-.48-16.64-.81-33.29-1.17-49.93A17.37,17.37,0,0,1,135.71,28.79Z"/>
    <path class="b" d="M27.76,190c1.54,8.46,3.23,16.9,4.58,25.39,1,6.57,1.6,13.22,2.45,19.82.59,4.57-1.16,7.1-5.75,8.31-10.76,2.84-11.44,2.3-11-8.64a152.62,152.62,0,0,1,7.15-41.65c.36-1.08.8-2.12,1.21-3.18Z"/>
    <path class="f" d="M486.61,360.57c-24.35,5.38-48.11-2.11-72.14-3.68a17.8,17.8,0,0,1-4-1.2c-.16-.58-.31-1.17-.47-1.76,6.33-3.32,12.59-6.77,19.05-9.81.93-.43,3.42.8,4.17,1.93,7.06,10.75,18.46,10.8,29.27,11.83,8,.77,16.13.6,24.2.85Z"/>
    <path class="g" d="M572.83,87.05q.09,50.71.16,101.42c0,10.49-.1,21-.16,31.47a39.24,39.24,0,0,1-.76-4.9c-.4-14.45-.81-28.9-1.05-43.34-.4-24.43-.81-48.85-.88-73.27C570.13,94.64,571.89,90.85,572.83,87.05Z"/>
    <path class="h" d="M572.83,276.06v82.88c-1.94-16.51-5.05-33-5.4-49.53C567.2,298.33,570.89,287.18,572.83,276.06Z"/>
</svg>